<svg xmlns="http://www.w3.org/2000/svg" xmlns:xlink="http://www.w3.org/1999/xlink" width="85" height="85" viewBox="0 0 85 85">
  <defs>
    <clipPath id="clip-path">
      <rect id="Rectángulo_411055" data-name="Rectángulo 411055" width="64.101" height="64.073" fill="none"/>
    </clipPath>
  </defs>
  <g id="Grupo_1190079" data-name="Grupo 1190079" transform="translate(-419 -1121)">
    <path id="Trazado_824488" data-name="Trazado 824488" d="M42.5,0A42.5,42.5,0,1,1,0,42.5,42.5,42.5,0,0,1,42.5,0Z" transform="translate(419 1121)" fill="#e5e2d3"/>
    <g id="Grupo_1190080" data-name="Grupo 1190080" transform="translate(429.449 1131.463)">
      <g id="Grupo_1190075" data-name="Grupo 1190075" clip-path="url(#clip-path)">
        <path id="Trazado_1243097" data-name="Trazado 1243097" d="M115.451,0a19.992,19.992,0,0,1-.625,4.928,13.331,13.331,0,0,1-11.537,9.432c-2.571.178-5.16.091-7.741.123-.247,0-.494,0-.8,0v.9c0,3.021.005,6.041-.007,9.062a.74.74,0,0,0,.414.724,4.459,4.459,0,0,1,1.18,1.079q4.974,6.834,9.9,13.7A15.027,15.027,0,0,1,97.21,63.669c-7.674,1.644-14.769-1.808-17.764-8.831a14.442,14.442,0,0,1,1.613-14.708c3.284-4.679,6.669-9.287,10.036-13.908a8.923,8.923,0,0,1,1.234-1.111c.134-.124.315-.3.317-.449.025-1.31.015-2.62.015-4.017h-.634c-1.645,0-3.291.025-4.936-.015a13.386,13.386,0,0,1-12.51-9.775,13.883,13.883,0,0,1-.475-4.611c.05-.032.085-.072.119-.072,2.727.021,5.462-.075,8.18.1a12.893,12.893,0,0,1,9.923,5.683c.1.131.185.266.25.358a29.4,29.4,0,0,1,1.051-3.816A13.166,13.166,0,0,1,104.26.117c.069-.011.129-.077.193-.117ZM93.68,61.985a27.589,27.589,0,0,0,2.85-.284A12.994,12.994,0,0,0,104.637,41.3c-3.288-4.624-6.637-9.2-9.961-13.8-.624-.863-1.319-.862-1.944,0-3.324,4.6-6.66,9.189-9.963,13.8a12.714,12.714,0,0,0-2.111,10.653A13.1,13.1,0,0,0,93.68,61.985M113.222,2.129a3.244,3.244,0,0,0-.339-.039c-2.393,0-4.787-.044-7.178.018A11.2,11.2,0,0,0,95.489,9.4c-.348.932-.521,1.928-.8,2.98,2.555,0,4.924.047,7.292-.01a11.123,11.123,0,0,0,10.189-6.412,9.209,9.209,0,0,0,1.048-3.826M92.553,18.611c.018-.18.028-.241.028-.3a1.363,1.363,0,0,0-.012-.249,11.27,11.27,0,0,0-7.985-9.31,17.6,17.6,0,0,0-5.688-.5H76.228a11.375,11.375,0,0,0,7.408,9.635c2.907,1.071,5.916.569,8.917.723" transform="translate(-61.71)" fill="#090b0b"/>
        <path id="Trazado_1243098" data-name="Trazado 1243098" d="M0,218.083c.885-2.081,1.762-4.166,2.659-6.243a2.6,2.6,0,0,1,4.071-1.25,3.066,3.066,0,0,1,.859,1.116c.814,1.81,1.605,3.632,2.349,5.472a5.25,5.25,0,0,1-3.58,7.192A5.185,5.185,0,0,1,.14,220.649a2.492,2.492,0,0,0-.14-.316v-2.25m2.006,1.122a3.17,3.17,0,0,0,1.838,2.925,2.935,2.935,0,0,0,3.314-.432,3.293,3.293,0,0,0,.8-3.863c-.716-1.7-1.443-3.386-2.2-5.065-.108-.241-.4-.557-.6-.555s-.51.308-.618.549q-1.115,2.491-2.154,5.015a11.17,11.17,0,0,0-.386,1.426" transform="translate(0 -174.957)" fill="#080a0c"/>
        <path id="Trazado_1243099" data-name="Trazado 1243099" d="M65.682,126.448c-.1,2.457-1.061,4.154-3.131,5.065a4.843,4.843,0,0,1-5.593-.956,4.959,4.959,0,0,1-1.341-5.642c.735-2.018,1.646-3.973,2.522-5.937a2.6,2.6,0,0,1,4.674-.007q1.325,2.943,2.538,5.936a7.8,7.8,0,0,1,.331,1.542m-1.988.225c-.257-.732-.484-1.477-.779-2.193q-.9-2.18-1.864-4.329c-.1-.22-.389-.493-.587-.49s-.425.3-.576.51a3.667,3.667,0,0,0-.337.73c-.692,1.66-1.47,3.291-2.043,4.991a3.1,3.1,0,0,0,4.292,3.685,3.343,3.343,0,0,0,1.894-2.9" transform="translate(-46.027 -97.89)" fill="#090b0c"/>
        <path id="Trazado_1243100" data-name="Trazado 1243100" d="M331.694,250.277a5.31,5.31,0,0,1-4.81,5.3,5.147,5.147,0,0,1-5.486-3.92,5.276,5.276,0,0,1,.251-3.416c.767-1.832,1.543-3.661,2.343-5.478a2.619,2.619,0,0,1,4.853,0c.785,1.8,1.586,3.6,2.319,5.422a15.41,15.41,0,0,1,.53,2.09m-8.431.063a3.316,3.316,0,0,0,1.455,2.654,3.061,3.061,0,0,0,3.65-.18,3.235,3.235,0,0,0,.917-3.731c-.737-1.8-1.517-3.58-2.308-5.356a.574.574,0,0,0-1.119-.006q-1.168,2.638-2.268,5.306a8.9,8.9,0,0,0-.327,1.312" transform="translate(-267.593 -200.871)" fill="#090b0d"/>
        <path id="Trazado_1243101" data-name="Trazado 1243101" d="M283.623,138.922a18.908,18.908,0,0,1,.594-2.2c.688-1.729,1.456-3.425,2.176-5.141a2.642,2.642,0,0,1,5.014-.008c.746,1.8,1.565,3.564,2.288,5.369a5.248,5.248,0,1,1-10.073,1.977m8.408-.094a6.659,6.659,0,0,0-.283-1.136q-1.1-2.667-2.271-5.3a.984.984,0,0,0-.564-.486c-.13-.037-.433.177-.507.345-.839,1.913-1.725,3.811-2.438,5.771a2.949,2.949,0,0,0,.929,3.392,2.916,2.916,0,0,0,3.259.472,3.18,3.18,0,0,0,1.876-3.053" transform="translate(-236.27 -108.104)" fill="#090b0c"/>
        <path id="Trazado_1243102" data-name="Trazado 1243102" d="M124.668,195.936A13.1,13.1,0,0,1,111.645,185.9a12.715,12.715,0,0,1,2.111-10.653c3.3-4.614,6.639-9.2,9.963-13.8.624-.864,1.32-.866,1.944,0,3.324,4.6,6.673,9.179,9.961,13.8a12.994,12.994,0,0,1-8.107,20.405,27.643,27.643,0,0,1-2.85.284m8.487-15.948-4.956,3.723,1.243,1.642,2.234-1.656c.076,2.434-2.7,5.3-5.586,5.864a7.254,7.254,0,0,1-8.24-4.79,6.972,6.972,0,0,1,.147-5,7.242,7.242,0,0,1,4.879-4.319l-.5-1.942a9.172,9.172,0,0,0-6.963,9.016,9.335,9.335,0,0,0,7.332,9.041,9.469,9.469,0,0,0,11.1-7.192l1.382,1.8,1.642-1.238-3.715-4.956m-8.444-6.849V175.2l1.8.235.5-2.023-2.308-.276" transform="translate(-92.697 -133.951)" fill="#5fc0e4"/>
        <path id="Trazado_1243103" data-name="Trazado 1243103" d="M216.078,12.482a9.213,9.213,0,0,1-1.048,3.826,11.123,11.123,0,0,1-10.189,6.412c-2.367.057-4.737.01-7.292.01.276-1.051.449-2.048.8-2.98a11.2,11.2,0,0,1,10.216-7.288c2.391-.062,4.785-.017,7.177-.018a3.253,3.253,0,0,1,.339.039" transform="translate(-164.566 -10.354)" fill="#afc86a"/>
        <path id="Trazado_1243104" data-name="Trazado 1243104" d="M103.279,59.743c-3-.154-6.011.348-8.917-.723a11.375,11.375,0,0,1-7.408-9.635h2.668a17.6,17.6,0,0,1,5.688.5,11.27,11.27,0,0,1,7.985,9.31,1.363,1.363,0,0,1,.012.249c0,.061-.011.123-.028.3" transform="translate(-72.436 -41.132)" fill="#aec869"/>
        <path id="Trazado_1243105" data-name="Trazado 1243105" d="M12.016,230.151a11.167,11.167,0,0,1,.386-1.426q1.04-2.523,2.154-5.015c.108-.241.4-.546.618-.549s.494.314.6.555c.754,1.678,1.482,3.369,2.2,5.065a3.293,3.293,0,0,1-.8,3.863,2.935,2.935,0,0,1-3.314.432,3.17,3.17,0,0,1-1.838-2.925" transform="translate(-10.01 -185.903)" fill="#5fc0e4"/>
        <path id="Trazado_1243106" data-name="Trazado 1243106" d="M74.128,137.412a3.343,3.343,0,0,1-1.894,2.9,3.1,3.1,0,0,1-4.292-3.685c.573-1.7,1.351-3.331,2.043-4.991a3.667,3.667,0,0,1,.337-.73c.151-.212.378-.506.576-.51s.487.27.587.49q.969,2.148,1.864,4.329c.295.717.521,1.461.779,2.193" transform="translate(-56.461 -108.628)" fill="#5fc0e4"/>
        <path id="Trazado_1243107" data-name="Trazado 1243107" d="M333.437,261.06a8.9,8.9,0,0,1,.327-1.312q1.1-2.668,2.268-5.306a.574.574,0,0,1,1.119.006c.791,1.776,1.572,3.557,2.308,5.356a3.235,3.235,0,0,1-.917,3.731,3.061,3.061,0,0,1-3.65.18,3.316,3.316,0,0,1-1.455-2.654" transform="translate(-277.767 -211.591)" fill="#5fc0e4"/>
        <path id="Trazado_1243108" data-name="Trazado 1243108" d="M302.73,149.438a3.18,3.18,0,0,1-1.876,3.053,2.916,2.916,0,0,1-3.259-.472,2.949,2.949,0,0,1-.929-3.392c.713-1.961,1.6-3.858,2.438-5.771.074-.168.377-.382.507-.345a.984.984,0,0,1,.564.486q1.169,2.638,2.271,5.3a6.662,6.662,0,0,1,.283,1.136" transform="translate(-246.968 -118.714)" fill="#5fc0e3"/>
        <path id="Trazado_1243109" data-name="Trazado 1243109" d="M153.822,243.443l3.715,4.957-1.642,1.237-1.382-1.8a9.469,9.469,0,0,1-11.1,7.192,9.335,9.335,0,0,1-7.332-9.041,9.171,9.171,0,0,1,6.963-9.016l.5,1.942a7.242,7.242,0,0,0-4.879,4.319,6.97,6.97,0,0,0-.146,5,7.255,7.255,0,0,0,8.24,4.79c2.883-.561,5.662-3.43,5.586-5.864l-2.234,1.656-1.243-1.642,4.956-3.723" transform="translate(-113.364 -197.406)" fill="#04090b"/>
        <path id="Trazado_1243110" data-name="Trazado 1243110" d="M191.745,234.715l2.308.276-.5,2.023-1.8-.235Z" transform="translate(-159.731 -195.527)" fill="#030b0c"/>
      </g>
    </g>
  </g>
</svg>
