<svg xmlns="http://www.w3.org/2000/svg" xmlns:xlink="http://www.w3.org/1999/xlink" width="85" height="85" viewBox="0 0 85 85">
  <defs>
    <clipPath id="clip-path">
      <rect id="Rectángulo_410683" data-name="Rectángulo 410683" width="54.09" height="64.351" fill="none"/>
    </clipPath>
  </defs>
  <g id="Grupo_1190081" data-name="Grupo 1190081" transform="translate(-419 -1121)">
    <path id="Trazado_824488" data-name="Trazado 824488" d="M42.5,0A42.5,42.5,0,1,1,0,42.5,42.5,42.5,0,0,1,42.5,0Z" transform="translate(419 1121)" fill="#e5e2d3"/>
    <g id="Grupo_1190082" data-name="Grupo 1190082" transform="translate(434.455 1131.325)">
      <g id="Grupo_1188563" data-name="Grupo 1188563" clip-path="url(#clip-path)">
        <path id="Trazado_1241604" data-name="Trazado 1241604" d="M15.984,64.351V62.526a8.41,8.41,0,0,0,.978-.26,2.952,2.952,0,0,0,1.884-2.906q.1-2.76.162-5.523a.871.871,0,0,0-.241-.584c-1.353-1.279-2.725-2.538-4.128-3.837a4.335,4.335,0,0,1-2.579,1.862A4.235,4.235,0,0,1,7.839,50a.991.991,0,0,0-.719-.292A6.34,6.34,0,0,1,5.169,37.184a1.054,1.054,0,0,0,.618-.488A5.527,5.527,0,0,1,10.76,33.54,5.482,5.482,0,0,1,15.778,36.3c.106.167.312.389.468.386a6.836,6.836,0,0,1,3.51,1c0-1.259.014-2.381-.015-3.5a.629.629,0,0,0-.33-.469,4.59,4.59,0,0,1-2.894-2.753c-.016-.038-.014-.085-.033-.121a7.289,7.289,0,0,0-2.5-.89,5.782,5.782,0,0,1-8.073-4.091,2.239,2.239,0,0,0-1.187-1.611A7.8,7.8,0,0,1,2.447,13.177c.118-.17.26-.323.4-.5l.765.577.668.637A5.9,5.9,0,0,0,6.864,23.18c.748.258.848.6.814,1.289a3.876,3.876,0,0,0,3.947,4.084,4.717,4.717,0,0,0,2.79-1.079,4.694,4.694,0,0,0,3.652,1.4c.193,1.774.682,2.589,1.814,2.963,1.612.532,2.666-.308,3.5-1.561l1.395,1.044a5.082,5.082,0,0,0,2.8.991c-.012-.091-.007-.117-.018-.13a4.8,4.8,0,0,1-.728-5.693,4.739,4.739,0,0,1,5.16-2.607.532.532,0,0,0,.39-.116,3.555,3.555,0,0,1,3.46-.891,5.489,5.489,0,0,1,3.752-2.619,5.575,5.575,0,0,1,4.478,1.175l.715-1.917a11.516,11.516,0,0,0,.327-1.831,8.226,8.226,0,0,0-9.434-8.522c-.3.04-.613.034-.933.05a4.345,4.345,0,0,0-2.338-3.347,4.459,4.459,0,0,0-4.058.151c-1.225-2.786-3.262-4.363-6.293-4.042s-4.683,2.3-5.31,5.245a4.464,4.464,0,0,0-4.687.251A4.4,4.4,0,0,0,10.377,11.7a18.622,18.622,0,0,0-2.56.143,17.8,17.8,0,0,0-2.381.8l-.5-.6-.512-.826a7.909,7.909,0,0,1,4.1-1.42,5.792,5.792,0,0,1,3.9-4.629,10.978,10.978,0,0,1,2.637-.36.611.611,0,0,0,.611-.375,7.76,7.76,0,0,1,13.389-1.1.739.739,0,0,0,.581.26A6.027,6.027,0,0,1,35.92,6.772a.656.656,0,0,0,.7.421,10.024,10.024,0,0,1,10.184,8.156,9.873,9.873,0,0,1-.866,6.491c.437.122.861.2,1.256.357a6.525,6.525,0,0,1,4.336,5.5,1.1,1.1,0,0,0,.367.637,5.688,5.688,0,0,1,1.883,6.307,5.754,5.754,0,0,1-5.226,3.834.878.878,0,0,0-.608.369,7.328,7.328,0,0,1-9.454,3.03.826.826,0,0,0-.7.085q-4.755,3.642-9.471,7.334a1.076,1.076,0,0,0-.32.72c-.041.748-.015,1.5-.015,2.282l-.72.077-.121.016-.019,0H26.043c0-1.036.036-2.015-.014-2.989a1.319,1.319,0,0,1,.6-1.246c2.8-2.149,5.58-4.328,8.366-6.5l1.5-1.133-1.22-1.54-2.586,1.49-6.9,3.763c0-1.277.021-2.4-.005-3.522-.039-1.667-.112-3.334-.17-5-.017-.521-.015-1.045-.064-1.563a.609.609,0,0,0-.28-.41c-.934-.5-1.873-1.127-2.894-.158a.411.411,0,0,1-.23.093c-.394.039-.5.26-.5.637-.028,1.527-.1,3.052-.121,4.579a2.133,2.133,0,0,0,.254.994,6.23,6.23,0,0,1-1.465,7.785,7.96,7.96,0,0,1-3.132,1.508,3.021,3.021,0,0,0,.515.461c.976.886,1.961,1.763,2.9,2.686a1.4,1.4,0,0,1,.383.9c0,1.3-.023,2.6-.133,3.887-.152,1.784.208,3.667-1.07,5.329h7.564c-1.035-1.372-.974-2.877-1.018-4.413l.972-.1h.943c.018.4.041.771.049,1.139.046,2.117.726,2.958,2.782,3.432l.124,1.843Zm4.628-21.6a4.016,4.016,0,0,0-1.35-2.985A4.559,4.559,0,0,0,14.74,38.8c-.571-2.069-1.744-3.436-4.009-3.344-2.2.089-3.254,1.5-3.678,3.481-2.7.182-4.175,1.051-4.768,2.774a3.983,3.983,0,0,0,.441,4.246c1.5,2.019,3.534,2.3,5.8,1.4.129.281.228.508.337.73a2.424,2.424,0,0,0,2.428,1.417,2.434,2.434,0,0,0,2.053-2.07c.055-.317.121-.631.2-1.043a4.749,4.749,0,0,0,4.707.361,4.094,4.094,0,0,0,2.359-4.009m31.533-9.683a3.524,3.524,0,0,0-1.977-3.543.881.881,0,0,1-.534-.964,4.592,4.592,0,0,0-5.4-4.751.757.757,0,0,1-.871-.335,3.363,3.363,0,0,0-3.479-1.341,3.42,3.42,0,0,0-2.707,2.411c-.13.376-.27.749-.414,1.146-2.028-1.624-2.743-1.3-3.71.44-2.438-.745-4.07-.219-4.722,1.554a3.079,3.079,0,0,0,.024,2.265A3.42,3.42,0,0,0,31.524,32l-.215,2.057a2.657,2.657,0,0,0,1.213,2.276,3.35,3.35,0,0,0,3.744.108c.9,2.593,2.568,4.2,5.389,4.17,2.842-.032,4.456-1.728,5.3-4.27,2.908.584,5.117-.832,5.194-3.272M27.5,34.239c.066,2.243.132,4.473.2,6.775l4.641-2.577A5.179,5.179,0,0,1,29.309,34.1l-1.806.136" transform="translate(0 0)" fill="#090b09"/>
        <path id="Trazado_1241605" data-name="Trazado 1241605" d="M39.464,40.869,38.07,39.825c-.833,1.252-1.886,2.093-3.5,1.561-1.132-.374-1.621-1.188-1.814-2.963a4.694,4.694,0,0,1-3.652-1.4,4.717,4.717,0,0,1-2.79,1.079,3.876,3.876,0,0,1-3.947-4.084c.034-.686-.065-1.031-.814-1.289a5.9,5.9,0,0,1-2.581-9.287l-.668-.637L19.623,21.6l.5.6a17.808,17.808,0,0,1,2.381-.8,18.624,18.624,0,0,1,2.561-.143,4.395,4.395,0,0,1,1.681-4.239,4.464,4.464,0,0,1,4.687-.251c.627-2.945,2.285-4.925,5.31-5.245s5.068,1.256,6.293,4.042a4.459,4.459,0,0,1,4.058-.151,4.345,4.345,0,0,1,2.338,3.348c.32-.016.63-.01.933-.05A8.226,8.226,0,0,1,59.8,27.231a11.517,11.517,0,0,1-.327,1.831,5.286,5.286,0,0,1-.567-.245,7.262,7.262,0,0,0-3.561-1.009,6.69,6.69,0,0,0-4.564,1.572,3.844,3.844,0,0,1-2.61,1.2,1.184,1.184,0,0,0-.642.226,6.241,6.241,0,0,1-2.712.767,6.736,6.736,0,0,0-5.2,4.044,7.271,7.271,0,0,0-.149,5.247m13.445-19.8H51.083v1.786H52.91Zm1.936,3.678h1.8v-1.8h-1.8Z" transform="translate(-14.69 -9.552)" fill="#8ebb5f"/>
        <path id="Trazado_1241606" data-name="Trazado 1241606" d="M138.331,215.806c-2.786,2.169-5.565,4.348-8.367,6.5a1.319,1.319,0,0,0-.6,1.246c.05.974.014,1.953.014,2.989h1.093q.009.9.018,1.8l-.95.143.1,1.826.88.045.1,1.735-.972.1c.044,1.535-.017,3.04,1.018,4.413h-5.318a19.561,19.561,0,0,0,.6-2.785c.129-1.766.108-3.542.159-5.313.009-.31.079-.618.092-.928.037-.837.213-1.66-.73-2.259a6.616,6.616,0,0,1-1.294-1.5c.361-.333.851-.781,1.336-1.235a7.968,7.968,0,0,0,1.49-8.909,1.757,1.757,0,0,1-.257-.694c.008-1.223.059-2.445.1-3.7l2.1.593c.058,1.667.131,3.333.17,5,.026,1.122.005,2.244.005,3.522l6.9-3.763a2.587,2.587,0,0,0,.531.13,1.927,1.927,0,0,1,1.774,1.055" transform="translate(-103.338 -174.145)" fill="#c78f70"/>
        <path id="Trazado_1241607" data-name="Trazado 1241607" d="M157.106,324.864l-.881-.045c-.033-.594-.066-1.2-.1-1.826l.95-.143h.965v1.927l-.934.087" transform="translate(-129.92 -268.662)" fill="#110f10"/>
        <path id="Trazado_1241608" data-name="Trazado 1241608" d="M161.789,312.049l.121-.016-.121.016" transform="translate(-134.634 -259.66)" fill="#c78f70"/>
        <path id="Trazado_1241609" data-name="Trazado 1241609" d="M170.746,143.4l.215-2.057a3.419,3.419,0,0,1-3.171-2.049,3.078,3.078,0,0,1-.025-2.265c.652-1.773,2.284-2.3,4.722-1.554.966-1.735,1.681-2.064,3.71-.44.143-.4.284-.769.414-1.146a3.42,3.42,0,0,1,2.707-2.411,3.363,3.363,0,0,1,3.479,1.341.757.757,0,0,0,.871.335,4.592,4.592,0,0,1,5.4,4.751.88.88,0,0,0,.534.964,3.524,3.524,0,0,1,1.977,3.543c-.2.186-.4.368-.593.557a4.138,4.138,0,0,1-3.331,1.3,13.725,13.725,0,0,1-2.165-.559c-.739,2.118-1.718,4.159-4.407,4.2-2.766.047-3.71-2.055-4.531-4.251-.327.16-.62.313-.922.448a3.943,3.943,0,0,1-2.894.4,11.831,11.831,0,0,1-1.994-1.117m15.668-7.69H184.6v1.845h1.813Z" transform="translate(-139.437 -109.342)" fill="#8ebb5f"/>
        <path id="Trazado_1241610" data-name="Trazado 1241610" d="M13.612,217.495c.593-1.723,2.071-2.592,4.768-2.774.424-1.979,1.483-3.392,3.678-3.481,2.265-.092,3.438,1.275,4.009,3.344a4.56,4.56,0,0,1,4.523.961,4.016,4.016,0,0,1,1.35,2.984,2.394,2.394,0,0,0-.14.2,3.667,3.667,0,0,1-2.985,2.076,7.966,7.966,0,0,1-3.229-.449c-.484-.151-.964-.317-1.541-.507a3.814,3.814,0,0,1-.007.741,8.048,8.048,0,0,1-.5,1.776,1.427,1.427,0,0,1-2.538.108,15.471,15.471,0,0,1-.745-1.424c-.467.1-.928.239-1.4.3a4.342,4.342,0,0,1-4.158-1.3,5.644,5.644,0,0,1-1.091-2.557" transform="translate(-11.327 -175.781)" fill="#8eba5f"/>
        <path id="Trazado_1241611" data-name="Trazado 1241611" d="M110.762,199.723l-2.1-.593c-.037,1.25-.088,2.473-.1,3.7a1.757,1.757,0,0,0,.257.694,7.968,7.968,0,0,1-1.489,8.909c-.485.454-.976.9-1.336,1.235a6.616,6.616,0,0,0,1.294,1.5c.943.6.768,1.423.73,2.259-.014.31-.084.618-.092.928-.051,1.772-.03,3.548-.159,5.313a19.52,19.52,0,0,1-.6,2.785h-2.246c1.277-1.662.918-3.545,1.07-5.329.11-1.291.131-2.591.133-3.887a1.4,1.4,0,0,0-.383-.9c-.94-.923-1.924-1.8-2.9-2.686a3.007,3.007,0,0,1-.515-.461,7.96,7.96,0,0,0,3.132-1.508,6.23,6.23,0,0,0,1.465-7.785,2.134,2.134,0,0,1-.254-.994c.018-1.527.093-3.052.121-4.579.007-.377.109-.6.5-.637a.41.41,0,0,0,.23-.093c1.02-.969,1.959-.34,2.893.158a.609.609,0,0,1,.28.41c.049.518.047,1.042.064,1.563" transform="translate(-85.152 -164.005)" fill="#bb6753"/>
        <path id="Trazado_1241612" data-name="Trazado 1241612" d="M145.547,121.83a7.271,7.271,0,0,1,.149-5.247,6.736,6.736,0,0,1,5.2-4.044,6.241,6.241,0,0,0,2.712-.767,1.184,1.184,0,0,1,.642-.226,3.844,3.844,0,0,0,2.61-1.2,6.69,6.69,0,0,1,4.564-1.572,7.261,7.261,0,0,1,3.56,1.009,5.3,5.3,0,0,0,.567.245l-.715,1.917a5.575,5.575,0,0,0-4.478-1.175,5.489,5.489,0,0,0-3.752,2.619,3.555,3.555,0,0,0-3.46.891.532.532,0,0,1-.39.116A4.739,4.739,0,0,0,147.6,117a4.8,4.8,0,0,0,.728,5.693c.011.013.006.039.018.13a5.082,5.082,0,0,1-2.8-.991" transform="translate(-120.772 -90.514)" fill="#73ac39"/>
        <path id="Trazado_1241613" data-name="Trazado 1241613" d="M186.522,197.991a11.832,11.832,0,0,0,1.994,1.117,3.944,3.944,0,0,0,2.894-.4c.3-.135.6-.289.922-.448.821,2.2,1.766,4.3,4.531,4.251,2.69-.045,3.669-2.087,4.407-4.2a13.723,13.723,0,0,0,2.165.559,4.137,4.137,0,0,0,3.331-1.3c.195-.189.4-.372.593-.557-.077,2.44-2.286,3.856-5.193,3.272-.842,2.541-2.456,4.238-5.3,4.27-2.821.032-4.489-1.577-5.389-4.17a3.35,3.35,0,0,1-3.744-.108,2.657,2.657,0,0,1-1.213-2.276" transform="translate(-155.213 -163.937)" fill="#73ac39"/>
        <path id="Trazado_1241614" data-name="Trazado 1241614" d="M11.549,248.529a5.644,5.644,0,0,0,1.091,2.557,4.342,4.342,0,0,0,4.158,1.3c.47-.062.93-.2,1.4-.3a15.466,15.466,0,0,0,.745,1.424,1.427,1.427,0,0,0,2.538-.108,8.047,8.047,0,0,0,.5-1.776,3.814,3.814,0,0,0,.007-.741c.577.19,1.057.356,1.541.507a7.967,7.967,0,0,0,3.229.449,3.667,3.667,0,0,0,2.985-2.076,2.394,2.394,0,0,1,.14-.2,4.094,4.094,0,0,1-2.359,4.009,4.749,4.749,0,0,1-4.707-.361c-.08.412-.146.726-.2,1.043a2.338,2.338,0,0,1-4.481.652c-.109-.222-.207-.449-.337-.73-2.269.894-4.3.618-5.8-1.4a3.983,3.983,0,0,1-.441-4.246" transform="translate(-9.265 -206.815)" fill="#73ac39"/>
        <path id="Trazado_1241615" data-name="Trazado 1241615" d="M197.061,234.951a1.927,1.927,0,0,0-1.774-1.055,2.586,2.586,0,0,1-.531-.13l2.586-1.49,1.22,1.541-1.5,1.133" transform="translate(-162.068 -193.291)" fill="#b86652"/>
        <rect id="Rectángulo_410680" data-name="Rectángulo 410680" width="1.827" height="1.786" transform="translate(36.393 11.515)" fill="#fcfdfb"/>
        <rect id="Rectángulo_410681" data-name="Rectángulo 410681" width="1.798" height="1.801" transform="translate(40.156 13.392)" fill="#fcfdfb"/>
        <rect id="Rectángulo_410682" data-name="Rectángulo 410682" width="1.813" height="1.845" transform="translate(45.164 26.364)" fill="#fbfcf9"/>
      </g>
    </g>
  </g>
</svg>
