<svg xmlns="http://www.w3.org/2000/svg" xmlns:xlink="http://www.w3.org/1999/xlink" width="118" height="118" viewBox="0 0 118 118">
  <defs>
    <filter id="Elipse_12115" x="0" y="0" width="118" height="118" filterUnits="userSpaceOnUse">
      <feOffset dy="3" input="SourceAlpha"/>
      <feGaussianBlur stdDeviation="3" result="blur"/>
      <feFlood flood-opacity="0.161"/>
      <feComposite operator="in" in2="blur"/>
      <feComposite in="SourceGraphic"/>
    </filter>
    <clipPath id="clip-path">
      <rect id="Rectángulo_410591" data-name="Rectángulo 410591" width="58.058" height="63.453" fill="none"/>
    </clipPath>
  </defs>
  <g id="Grupo_1188204" data-name="Grupo 1188204" transform="translate(-799.781 -2543)">
    <g transform="matrix(1, 0, 0, 1, 799.78, 2543)" filter="url(#Elipse_12115)">
      <g id="Elipse_12115-2" data-name="Elipse 12115" transform="translate(9 6)" fill="#fbe0aa" stroke="#ab7c1f" stroke-width="2">
        <circle cx="50" cy="50" r="50" stroke="none"/>
        <circle cx="50" cy="50" r="49" fill="none"/>
      </g>
    </g>
    <g id="Grupo_1188212" data-name="Grupo 1188212" transform="translate(829.752 2567.273)">
      <g id="Grupo_1188211" data-name="Grupo 1188211" clip-path="url(#clip-path)">
        <path id="Trazado_1241193" data-name="Trazado 1241193" d="M57.771,63.453H.288c-.614-1.41-.273-1.921,1.309-1.927,2.3-.008,4.593,0,6.869,0V56.888a5.469,5.469,0,0,0-.582-.039,6.053,6.053,0,0,1-6.428-6.6c.17-2.957.015-5.932.013-8.9,0-2.843.011-5.687.007-8.531,0-.682.124-1.3.951-1.294s.951.641.967,1.31c.008.357.034.714.052,1.075H5.027a5.55,5.55,0,0,1,1.727-5.08c.431-.374.8-.825,1.191-1.24,1.566-1.231,1.669-1.231,3.225,0a8.992,8.992,0,0,0,.828.9,5.7,5.7,0,0,1,2.119,5.023,1.507,1.507,0,0,0,.086.419h1.489c0-.362.006-.682,0-1-.016-.727.148-1.406,1.013-1.393.884.014.937.718.936,1.432q-.017,8.973-.007,17.946A5.128,5.128,0,0,1,15.2,55.614a27.183,27.183,0,0,1-4.64,1.684v4.184h17.42V52.134c-1.449-.411-2.775-.75-4.075-1.17a1.03,1.03,0,0,1-.672-1.563,11.88,11.88,0,0,1,1.8,0c.967.144,1.919.394,2.908.607.37-4.967-1.508-7.245-5.113-6.46a11.183,11.183,0,0,1-.031,2.068,6.35,6.35,0,0,1-.73,1.52c-1.112-.025-1.173-.784-1.174-1.63q-.017-8.967-.055-17.932l1.024-1.045,1,1.017V28.9H24.52v-1.32c-.1-2.343,1.672-3.662,3.092-5.253H16.932v5.249c-.314.313-.626.868-.943.871s-.636-.548-.955-.856v-5.4c-3.421,0-6.952-.019-10.483.037-.264,0-.7.516-.746.834-.2,1.5-.294,3.016-.425,4.526l-1.246.9c-.212-.434-.606-.869-.6-1.3a25.673,25.673,0,0,1,.3-3.922A27.309,27.309,0,0,1,12.519,5.5a1.12,1.12,0,0,1,1.63-.024,1.442,1.442,0,0,1-.66,1.68c-1.173.927-2.262,1.961-3.385,2.951,1.645.265,3.17.12,4.656.3,2.307.277,3.746-.333,4.65-2.7.685-1.795,2.092-3.314,3.3-5.136-1.688.651-3.267,1.2-4.791,1.876A1.316,1.316,0,0,1,16.168,4.2c.233-.473.344-1.205.716-1.379A27.517,27.517,0,0,1,56.531,27.137c0,.447-.388.9-.6,1.345L54.686,27.6c-.134-1.776-.268-3.551-.4-5.336H42.709l.2,1.032q.094,2.145.188,4.29a4.148,4.148,0,0,1-1.171.86c-.166.05-.533-.562-.809-.872-.052-.935-.109-1.868-.154-2.8-.126-2.63-.124-2.63-2.781-2.468h-7.84c1.6,1.642,3.3,2.936,3.194,5.27V28.9h1.649V27.55l1-1.017,1.024,1.045c-.016.453-.044.905-.045,1.358-.007,5.483,0,10.966-.019,16.45a6.046,6.046,0,0,1-4.671,6.277,16.106,16.106,0,0,1-2.377.216v9.577H47.521V56.935a4.582,4.582,0,0,0-.752-.083,6.173,6.173,0,0,1-6.391-6.682c.2-4.529.047-9.072.047-13.61,0-1.32-.068-2.646.043-3.956.033-.388.569-.734.875-1.1.34.344.8.636.985,1.049a3.648,3.648,0,0,1,.035,1.36h1.5c.3-3.264.455-3.667,1.836-5.082.4-.409.782-.834,1.173-1.253,1.534-1.248,1.721-1.248,3.222,0a14.547,14.547,0,0,0,1.092,1.158,5.08,5.08,0,0,1,1.868,4.487,4.432,4.432,0,0,0,.045.682h1.567c0-.393,0-.721,0-1.05.006-.663.125-1.316.942-1.332.919-.017.975.686.974,1.394-.009,6.021.01,12.043-.026,18.064a5.74,5.74,0,0,1-4.294,5.636,17.96,17.96,0,0,1-2.686.323v4.582c2.352,0,4.617-.006,6.882,0,1.587.006,1.927.514,1.312,1.927m-44.6-27.228c-2.116.641-2.966,2.447-2.52,5.271l2.75-1.155.576-.1.233-.054h1.519V35.751l-2.558.474m0,10.372h2.478V42.029l-2.481.4c-2.191.915-2.974,2.609-2.506,5.4L13.171,46.6M32.5,41.631l2.664-.261V37l-2.664.455c-2.12.98-2.748,2.4-2.368,5.342L32.5,41.631M8.441,29.958A8.649,8.649,0,0,0,7.352,31.11a2.638,2.638,0,0,0,1.285,4.129,11.113,11.113,0,0,1,.035-2.1c.085-.436.507-.806.778-1.205.782.049,1.056.5,1.026,1.24-.029.72-.007,1.442-.007,2.221,2.729-1.422,2.379-3.637-.955-6.6L8.441,29.958m43.626,6.266c-2.171.858-2.77,2.175-2.4,5.27l2.4-1.108,2.558-.244V35.777l-2.559.446m-4.736-6.24a3.635,3.635,0,0,0-1.388,4c.105.569.935,1,1.647,1.71a16.512,16.512,0,0,1,.033-2.536,4.045,4.045,0,0,1,.732-1.224c.773.025,1.089.449,1.075,1.194s0,1.5,0,2.374c1.747-1.163,2.172-1.791,1.549-3.528a16.322,16.322,0,0,0-2.341-3.426l-1.3,1.433M28.789,26.893c.884.009,1.239.483,1.212,1.334-.022.7,0,1.4,0,2.128,1.959-.663,2.02-2.113,1.481-3.429a19.393,19.393,0,0,0-2.333-3.414l-1.131,1.267c-2.255,1.958-2.3,4.3.051,5.523a9.307,9.307,0,0,1,.027-1.852,7.7,7.7,0,0,1,.7-1.557M32.5,35.4l2.662-.3V30.673l-2.681.512c-2.149,1-2.916,2.813-2.3,5.279L32.5,35.4m19.57,7.037c-2.193,1.025-2.781,2.335-2.384,5.353l2.165-1.048,2.795-.284V42.027l-2.576.413M13.142,48.735c-2.379.839-3,3.061-2.371,6.308l1.906-.28c2.574-.656,3.721-3.2,2.8-6.468l-2.34.44m38.676,6c2.53-.936,3.43-3,2.683-6.452l-2.456.475c-2.515,1.009-2.792,2.925-2.264,6.294l2.037-.317M32.256,43.877c-2.063,1.112-2.588,2.569-2.1,6.055l2.111-.275c2.526-.536,3.414-3.117,2.761-6.455l-2.77.674M30.047,2.762l.027,7.414c1.331.071,2.661.167,3.993.206,1.212.035,2.425.007,3.707.007-1.088-3.633-4.963-8.317-7.727-8.22v.594m6.9,1.976,3.04,5.439h7.7c-1.709-2.786-8.316-6.862-12.4-7.387l1.662,1.948M49.347,20.3h4.472c-.905-1.977-1.78-3.767-2.55-5.6a3.7,3.7,0,0,0-4.525-2.523,7.567,7.567,0,0,1-1.108.05h-4.9c.56,2.378.56,2.378-.095,3.083-.4-.218-.915-.345-1.155-.675a3.679,3.679,0,0,1-.523-1.5c-.135-.752-.511-.97-1.264-.956-2.181.041-4.364-.017-6.547-.005a5.323,5.323,0,0,0-1.1.238V20.3H40.457l-.312-.3L41.156,17.6c1.54.312,1.023,1.727,1.381,2.694ZM15.38,20.285l1.842-8.107c-2.684,0-5.362-.022-8.038.025a1.554,1.554,0,0,0-1.109.553,23.88,23.88,0,0,0-3.6,7.529Zm12.583.011V12.173c-2.689,0-5.285-.02-7.881.025a1.162,1.162,0,0,0-.907.556c-.685,2.468-1.293,4.956-1.949,7.542ZM20.116,10.278h7.87V1.96c-4.345,1.213-6.073,4.682-7.87,8.317M42.452,48.455c-.681,4.429,1.417,7.086,4.958,6.37.675-4.318-1.1-6.64-4.958-6.37M8.429,54.871c.319-4.807-1.315-6.888-4.934-6.37-.767,4.231,1.189,6.8,4.934,6.37M28.014,36.284c.159-4-1.6-5.93-5.09-5.35v3.94l5.09,1.41M3.4,46.226l5.013,1.311c.472-3.753-1.349-5.8-5.013-5.285ZM3.474,36v4.116a20.238,20.238,0,0,1,2.666.4,17.44,17.44,0,0,1,2.3,1.011c.215-4.283-1.3-5.963-4.971-5.522M47.519,47.835c.072-4.287-1.751-6.236-5.129-5.548v4.168A18.1,18.1,0,0,1,45,46.784a20.091,20.091,0,0,1,2.52,1.051M22.892,41.12l5.126,1.472c.113-4.051-1.621-5.93-5.126-5.354Zm19.489-1.007a18.974,18.974,0,0,1,2.711.374,17.078,17.078,0,0,1,2.392,1.068c.228-4.177-1.687-6.227-5.1-5.487Z" transform="translate(0 0)" fill="#0d0f0d"/>
        <path id="Trazado_1241194" data-name="Trazado 1241194" d="M25.362,47.426h-10.9a23.886,23.886,0,0,1,3.6-7.529,1.553,1.553,0,0,1,1.109-.552c2.676-.047,5.354-.025,8.038-.025l-1.842,8.106" transform="translate(-9.983 -27.141)" fill="#2cb4e5"/>
        <path id="Trazado_1241195" data-name="Trazado 1241195" d="M66.365,47.426H55.628c.656-2.586,1.265-5.074,1.949-7.542a1.162,1.162,0,0,1,.907-.556c2.6-.045,5.192-.025,7.881-.025Z" transform="translate(-38.403 -27.13)" fill="#4ba45b"/>
        <path id="Trazado_1241196" data-name="Trazado 1241196" d="M22.57,77.052l-3.864,0c-1.556-1.227-1.658-1.227-3.225,0H10.917c.131-1.51.223-3.026.424-4.526.043-.318.482-.83.746-.834,3.531-.056,7.062-.037,10.483-.037Z" transform="translate(-7.537 -49.465)" fill="#2bb0e0"/>
        <path id="Trazado_1241197" data-name="Trazado 1241197" d="M104.927,47.905H97.036V40.022c1.647,0,3.3.05,4.939-.026.865-.04,1.29.25,1.464,1.077.48,2.281.989,4.556,1.487,6.833" transform="translate(-66.989 -27.609)" fill="#4ca45c"/>
        <path id="Trazado_1241198" data-name="Trazado 1241198" d="M131.235,42.565c.654-.705.654-.705.1-3.083h4.9a11.959,11.959,0,0,1,.977,1.56c.939,2.159,1.828,4.34,2.735,6.513h-6.81c-.359-.967.159-2.382-1.381-2.694q-.259-1.149-.519-2.3" transform="translate(-90.599 -27.257)" fill="#2cb4e5"/>
        <path id="Trazado_1241199" data-name="Trazado 1241199" d="M64.964,14.648c1.8-3.636,3.525-7.1,7.87-8.317v8.317Z" transform="translate(-44.848 -4.371)" fill="#4aa15a"/>
        <path id="Trazado_1241200" data-name="Trazado 1241200" d="M36.674,11.21l2.019-1.275a1.316,1.316,0,0,0,1.747.242c1.523-.676,3.1-1.224,4.791-1.876-1.2,1.822-2.611,3.342-3.3,5.137-.9,2.368-2.342,2.978-4.65,2.7-1.486-.179-3.011-.034-4.656-.3,1.123-.99,2.212-2.024,3.385-2.951a1.443,1.443,0,0,0,.66-1.68" transform="translate(-22.526 -5.731)" fill="#2bb0e0"/>
        <path id="Trazado_1241201" data-name="Trazado 1241201" d="M58.594,77.348l-3.915-.005V72.094H65.36c-1.42,1.591-3.192,2.909-3.093,5.253l-1.649-.026-1-1.017-1.024,1.045" transform="translate(-37.748 -49.77)" fill="#4ba45b"/>
        <path id="Trazado_1241202" data-name="Trazado 1241202" d="M142.542,77.406l-3.773.009q-.094-2.144-.188-4.289c.167-.316.326-.9.5-.906,2.193-.063,4.388-.041,6.692-.041.174,1.836.33,3.493.487,5.15l-.5.076c-1.5-1.247-1.688-1.247-3.222,0" transform="translate(-95.67 -49.827)" fill="#2cb4e5"/>
        <path id="Trazado_1241203" data-name="Trazado 1241203" d="M151.09,47.218c-.907-2.173-1.8-4.354-2.735-6.513a11.966,11.966,0,0,0-.976-1.561,7.612,7.612,0,0,0,1.108-.05,3.7,3.7,0,0,1,4.525,2.523c.77,1.833,1.644,3.623,2.55,5.6Z" transform="translate(-101.744 -26.92)" fill="#10ade8"/>
        <path id="Trazado_1241204" data-name="Trazado 1241204" d="M72.454,146.163,71.29,143.9a6.352,6.352,0,0,0,.731-1.52,11.182,11.182,0,0,0,.031-2.068c3.606-.785,5.483,1.493,5.114,6.46-.989-.212-1.941-.463-2.908-.607a11.884,11.884,0,0,0-1.8-.005" transform="translate(-49.215 -96.762)" fill="#ffd65f"/>
        <path id="Trazado_1241205" data-name="Trazado 1241205" d="M106.1,77.248l-1.235.06-1.024-1.045-1,1.017-1.649.026c.1-2.335-1.59-3.629-3.194-5.27h7.84q.131,2.606.262,5.212" transform="translate(-67.653 -49.73)" fill="#4ba45b"/>
        <path id="Trazado_1241206" data-name="Trazado 1241206" d="M136.81,156.438c3.856-.27,5.633,2.052,4.958,6.37-3.542.715-5.64-1.941-4.958-6.37" transform="translate(-94.359 -107.983)" fill="#ffd25d"/>
        <path id="Trazado_1241207" data-name="Trazado 1241207" d="M115.605,10.959l-1.662-1.948c4.083.525,10.69,4.6,12.4,7.387h-4.1l.123-.362a5.834,5.834,0,0,0-.712-.892c-1.176-1-2.336-2.037-3.588-2.939a16.928,16.928,0,0,0-2.46-1.246" transform="translate(-78.661 -6.221)" fill="#0da9e2"/>
        <path id="Trazado_1241208" data-name="Trazado 1241208" d="M15.85,162.834c-3.745.431-5.7-2.139-4.935-6.37,3.619-.518,5.253,1.563,4.935,6.37" transform="translate(-7.422 -107.962)" fill="#ffd35e"/>
        <path id="Trazado_1241209" data-name="Trazado 1241209" d="M107.626,42.449q.26,1.149.519,2.3l-1.012,2.394.312.3h-2.519c-.5-2.277-1.007-4.552-1.488-6.833-.174-.827-.6-1.117-1.464-1.077-1.643.076-3.292.025-4.939.026a5.321,5.321,0,0,1,1.1-.238c2.182-.011,4.365.046,6.546.005.753-.014,1.129.2,1.264.956a3.682,3.682,0,0,0,.523,1.5c.241.33.76.458,1.155.675" transform="translate(-66.989 -27.141)" fill="#2f9645"/>
        <path id="Trazado_1241210" data-name="Trazado 1241210" d="M145.812,77.147c-.157-1.658-.314-3.315-.487-5.151-2.3,0-4.5-.021-6.692.041-.176,0-.335.59-.5.906l-.2-1.032H149.5c.135,1.786.269,3.561.4,5.336l-4.094-.1" transform="translate(-95.219 -49.644)" fill="#0da5db"/>
        <path id="Trazado_1241211" data-name="Trazado 1241211" d="M97.063,16.333q-.013-3.707-.027-7.414a17.3,17.3,0,0,1,5.159,7.414Z" transform="translate(-66.989 -6.157)" fill="#4ca45c"/>
        <path id="Trazado_1241212" data-name="Trazado 1241212" d="M79.12,105.026l-5.09-1.41v-3.94c3.495-.58,5.249,1.345,5.09,5.35" transform="translate(-51.107 -68.742)" fill="#ffd55e"/>
        <path id="Trazado_1241213" data-name="Trazado 1241213" d="M10.986,140.256v-3.974c3.664-.511,5.485,1.532,5.013,5.285l-5.013-1.311" transform="translate(-7.584 -94.029)" fill="#fbe295"/>
        <path id="Trazado_1241214" data-name="Trazado 1241214" d="M11.218,116.1c3.667-.441,5.186,1.239,4.971,5.522a17.441,17.441,0,0,0-2.3-1.011,20.236,20.236,0,0,0-2.666-.4Z" transform="translate(-7.744 -80.102)" fill="#fdd15d"/>
        <path id="Trazado_1241215" data-name="Trazado 1241215" d="M142.027,141.812a20.132,20.132,0,0,0-2.52-1.051,18.11,18.11,0,0,0-2.609-.329v-4.168c3.378-.688,5.2,1.261,5.129,5.548" transform="translate(-94.508 -93.978)" fill="#ffe698"/>
        <path id="Trazado_1241216" data-name="Trazado 1241216" d="M73.928,123.918v-3.881c3.505-.576,5.24,1.3,5.126,5.354l-5.126-1.473" transform="translate(-51.037 -82.798)" fill="#ffe99a"/>
        <path id="Trazado_1241217" data-name="Trazado 1241217" d="M136.87,120.2v-4.045c3.416-.74,5.331,1.31,5.1,5.487a17.077,17.077,0,0,0-2.392-1.068,18.973,18.973,0,0,0-2.711-.374" transform="translate(-94.489 -80.083)" fill="#ffd35e"/>
        <path id="Trazado_1241218" data-name="Trazado 1241218" d="M97.063,15.006h5.132a17.3,17.3,0,0,0-5.159-7.414V7c2.764-.1,6.639,4.587,7.727,8.22-1.282,0-2.5.028-3.707-.007-1.332-.038-2.662-.134-3.993-.205" transform="translate(-66.989 -4.831)" fill="#2e9143"/>
        <path id="Trazado_1241219" data-name="Trazado 1241219" d="M104.169,140.2l2.77-.674c.653,3.339-.235,5.919-2.761,6.455q0-2.89-.009-5.78" transform="translate(-71.914 -96.321)" fill="#feb130"/>
        <path id="Trazado_1241220" data-name="Trazado 1241220" d="M119.312,15.3a16.927,16.927,0,0,1,2.46,1.246c1.252.9,2.412,1.935,3.588,2.939a5.834,5.834,0,0,1,.712.892l-.123.362h-3.6l-3.04-5.44" transform="translate(-82.368 -10.563)" fill="#2cb4e5"/>
        <path id="Trazado_1241221" data-name="Trazado 1241221" d="M167.572,156.4l2.455-.475c.747,3.452-.153,5.516-2.683,6.451q.114-2.988.227-5.976" transform="translate(-115.527 -107.64)" fill="#f8ad2e"/>
        <path id="Trazado_1241222" data-name="Trazado 1241222" d="M123.579,77.118q-.131-2.606-.262-5.212c2.657-.163,2.655-.162,2.781,2.468.045.935.1,1.869.154,2.8l-2.673-.059" transform="translate(-85.133 -49.601)" fill="#2f9645"/>
        <path id="Trazado_1241223" data-name="Trazado 1241223" d="M36.177,163.417l-1.906.28c-.63-3.248-.008-5.47,2.371-6.308-.109,2.013.447,4.077-.464,6.028" transform="translate(-23.5 -108.654)" fill="#fdbe43"/>
        <path id="Trazado_1241224" data-name="Trazado 1241224" d="M40.941,162.436c.912-1.951.355-4.015.464-6.028l2.34-.44c.917,3.273-.23,5.812-2.8,6.468" transform="translate(-28.264 -107.673)" fill="#feb130"/>
        <path id="Trazado_1241225" data-name="Trazado 1241225" d="M162.532,157.455q-.114,2.988-.227,5.976l-2.037.318c-.528-3.37-.251-5.284,2.264-6.294" transform="translate(-110.487 -108.7)" fill="#ffc244"/>
        <path id="Trazado_1241226" data-name="Trazado 1241226" d="M99.106,141.7q0,2.89.009,5.78L97,147.757c-.485-3.486.04-4.944,2.1-6.055" transform="translate(-66.851 -97.825)" fill="#ffc244"/>
        <path id="Trazado_1241227" data-name="Trazado 1241227" d="M167.664,136.141l2.576-.413v4.434l-2.795.284q.109-2.152.219-4.3" transform="translate(-115.597 -93.701)" fill="#f8bb42"/>
        <path id="Trazado_1241228" data-name="Trazado 1241228" d="M104.888,99.571l2.681-.512v4.432l-2.662.3q-.009-2.109-.019-4.218" transform="translate(-72.41 -68.386)" fill="#feb130"/>
        <path id="Trazado_1241229" data-name="Trazado 1241229" d="M90.466,77.2,91.6,75.931a19.382,19.382,0,0,1,2.333,3.414c.54,1.316.479,2.765-1.481,3.428,0-.725-.018-1.427,0-2.128.027-.851-.328-1.325-1.212-1.334L90.466,77.2" transform="translate(-62.454 -52.419)" fill="#fdd15d"/>
        <path id="Trazado_1241230" data-name="Trazado 1241230" d="M152.855,93.639l1.3-1.433a16.333,16.333,0,0,1,2.341,3.425c.622,1.737.2,2.365-1.55,3.528,0-.874-.011-1.624,0-2.374s-.3-1.169-1.075-1.193l-1.024-1.953" transform="translate(-105.524 -63.655)" fill="#fdd15d"/>
        <path id="Trazado_1241231" data-name="Trazado 1241231" d="M168.152,115.99l2.559-.446v4.365l-2.558.244q0-2.082,0-4.163" transform="translate(-116.085 -79.766)" fill="#f6ab2d"/>
        <path id="Trazado_1241232" data-name="Trazado 1241232" d="M27.26,94.146l1.073-1.168c3.334,2.965,3.684,5.181.955,6.6,0-.778-.023-1.5.006-2.221.03-.742-.244-1.19-1.026-1.24L27.26,94.146" transform="translate(-18.819 -64.188)" fill="#ffd35e"/>
        <path id="Trazado_1241233" data-name="Trazado 1241233" d="M104.957,119.936l2.664-.455v4.374l-2.664.261q0-2.09,0-4.18" transform="translate(-72.458 -82.484)" fill="#ffc244"/>
        <path id="Trazado_1241234" data-name="Trazado 1241234" d="M42.524,136.136l2.481-.4V140.3H42.527q0-2.084,0-4.167" transform="translate(-29.357 -93.705)" fill="#ffc244"/>
        <path id="Trazado_1241235" data-name="Trazado 1241235" d="M43.332,119.95l-.576.1q-.115-2.058-.23-4.116l2.559-.473V119.9H43.565a.514.514,0,0,0-.233.054" transform="translate(-29.358 -79.709)" fill="#feb130"/>
        <path id="Trazado_1241236" data-name="Trazado 1241236" d="M36.652,116.99l.23,4.116-2.75,1.155c-.446-2.824.4-4.629,2.52-5.271" transform="translate(-23.484 -80.765)" fill="#fbbc42"/>
        <path id="Trazado_1241237" data-name="Trazado 1241237" d="M36.646,137.032l0,4.167-2.509,1.231c-.468-2.788.315-4.482,2.506-5.4" transform="translate(-23.478 -94.601)" fill="#ffd25d"/>
        <path id="Trazado_1241238" data-name="Trazado 1241238" d="M162.58,116.985q0,2.082,0,4.163l-2.4,1.107c-.375-3.1.224-4.412,2.4-5.27" transform="translate(-110.512 -80.761)" fill="#ffc144"/>
        <path id="Trazado_1241239" data-name="Trazado 1241239" d="M162.58,137.063q-.11,2.152-.219,4.3l-2.165,1.048c-.4-3.018.191-4.328,2.384-5.352" transform="translate(-110.513 -94.622)" fill="#ffd55e"/>
        <path id="Trazado_1241240" data-name="Trazado 1241240" d="M99.306,100.714q.009,2.109.019,4.218l-2.314,1.061c-.62-2.466.146-4.275,2.3-5.279" transform="translate(-66.828 -69.528)" fill="#ffc144"/>
        <path id="Trazado_1241241" data-name="Trazado 1241241" d="M99.444,120.95q0,2.09,0,4.18l-2.369,1.162c-.38-2.945.249-4.362,2.368-5.342" transform="translate(-66.945 -83.498)" fill="#ffd65f"/>
        <path id="Trazado_1241242" data-name="Trazado 1241242" d="M23.675,96.749l1.008,1.975c-.271.4-.692.77-.778,1.206a11.113,11.113,0,0,0-.035,2.1A2.638,2.638,0,0,1,22.586,97.9a8.63,8.63,0,0,1,1.089-1.152" transform="translate(-15.234 -66.791)" fill="#fbe295"/>
        <path id="Trazado_1241243" data-name="Trazado 1241243" d="M149.522,96.834l1.024,1.953a4.036,4.036,0,0,0-.732,1.224,16.469,16.469,0,0,0-.033,2.536c-.712-.707-1.542-1.142-1.647-1.71a3.635,3.635,0,0,1,1.388-4" transform="translate(-102.191 -66.85)" fill="#ffe698"/>
        <path id="Trazado_1241244" data-name="Trazado 1241244" d="M86.676,80.024l.777,2.114a7.722,7.722,0,0,0-.7,1.557,9.331,9.331,0,0,0-.027,1.852c-2.346-1.224-2.307-3.565-.051-5.523" transform="translate(-58.663 -55.245)" fill="#fbe295"/>
        <path id="Trazado_1241245" data-name="Trazado 1241245" d="M45.129,129.836a.515.515,0,0,1,.233-.054l-.233.054" transform="translate(-31.155 -89.596)" fill="#fbbc42"/>
      </g>
    </g>
  </g>
</svg>
