<svg xmlns="http://www.w3.org/2000/svg" xmlns:xlink="http://www.w3.org/1999/xlink" width="118" height="118" viewBox="0 0 118 118">
  <defs>
    <filter id="Elipse_12115" x="0" y="0" width="118" height="118" filterUnits="userSpaceOnUse">
      <feOffset dy="3" input="SourceAlpha"/>
      <feGaussianBlur stdDeviation="3" result="blur"/>
      <feFlood flood-opacity="0.161"/>
      <feComposite operator="in" in2="blur"/>
      <feComposite in="SourceGraphic"/>
    </filter>
    <clipPath id="clip-path">
      <rect id="Rectángulo_410577" data-name="Rectángulo 410577" width="65.06" height="62.826" fill="none"/>
    </clipPath>
  </defs>
  <g id="Grupo_1181947" data-name="Grupo 1181947" transform="translate(-799.781 -2543)">
    <g transform="matrix(1, 0, 0, 1, 799.78, 2543)" filter="url(#Elipse_12115)">
      <g id="Elipse_12115-2" data-name="Elipse 12115" transform="translate(9 6)" fill="#fbe0aa" stroke="#ab7c1f" stroke-width="2">
        <circle cx="50" cy="50" r="50" stroke="none"/>
        <circle cx="50" cy="50" r="49" fill="none"/>
      </g>
    </g>
    <g id="Grupo_1188198" data-name="Grupo 1188198" transform="translate(826.251 2567.587)">
      <g id="Grupo_1188197" data-name="Grupo 1188197" clip-path="url(#clip-path)">
        <path id="Trazado_1241071" data-name="Trazado 1241071" d="M7.85,29.184c0-3.518-.007-6.875.005-10.232,0-.735-.25-.938-1.015-.841a3.983,3.983,0,0,1-4.69-3.5,3.137,3.137,0,0,0-.765-1.51,4.148,4.148,0,0,1,.04-5.992,3.143,3.143,0,0,0,.75-1.536,4.071,4.071,0,0,1,4.7-3.509A1.563,1.563,0,0,0,7.986,1.6c2.1-2.171,4.438-2.131,6.514.113a1.4,1.4,0,0,0,1.023.354,4.155,4.155,0,0,1,4.8,3.758,2.54,2.54,0,0,0,.657,1.261,4.112,4.112,0,0,1-.03,6.085,2.772,2.772,0,0,0-.675,1.414,4.024,4.024,0,0,1-4.645,3.559c-.73-.114-1.06-.063-1.057.735.009,3.4,0,6.8,0,10.3,1.083,0,2.053.025,3.022-.007,1.082-.036,1.519.484,1.5,1.529-.025,1.308.071,2.622-.031,3.922a1.643,1.643,0,0,0,1.189,1.892,10.284,10.284,0,0,1,5.877,5.421A2.652,2.652,0,0,0,27.541,43.1a47.207,47.207,0,0,0,4.514,1.451,2.609,2.609,0,0,1,1.855,1.692c.686,1.677,1.438,3.327,2.2,5.083,1.783-.561,3.544-1.075,5.268-1.688a1.971,1.971,0,0,0,.88-.957c1.145-2.227,2.267-4.466,3.346-6.725a4.2,4.2,0,0,0,.351-1.593,14.85,14.85,0,0,0-.02-3.5c-.649-3.266,1.423-5.212,3.311-7.262a3.983,3.983,0,0,1,1.176-.608q0-5.247-.008-10.5c0-.119-.121-.238-.233-.445-1.786.433-3.6.2-4.523-1.448-.991-1.758-1.844-3.618-2.724-5.445-.656-1.362-.08-2.8,1.009-3.954a3.214,3.214,0,0,0,.816-1.5,4.071,4.071,0,0,1,4.747-3.618,1.3,1.3,0,0,0,.932-.266c2.624-2.529,4.739-2.427,7.036.377A4.214,4.214,0,0,1,62.95,5.984,2.074,2.074,0,0,0,63.6,7.1a4.21,4.21,0,0,1,.077,6.011,3.081,3.081,0,0,0-.786,1.5,4.018,4.018,0,0,1-4.67,3.525c-.779-.106-1.034.082-1.033.814.005,3.357,0,6.713,0,10.229,2.058,0,4.051.052,6.039-.019,1.306-.047,1.836.39,1.831,1.762-.039,10-.019,19.995-.023,29.992,0,1.718-.2,1.905-1.962,1.905q-30.553,0-61.106,0C.129,62.824,0,62.69,0,60.8Q0,45.94,0,31.084c0-1.739.163-1.9,1.951-1.9,1.91,0,3.82,0,5.9,0M2.3,60.463H62.7V37.124H48.4c-.567,3.43-.53,3.572,2.349,5.084a5.914,5.914,0,0,1,2.747,2.842c1.379,2.938,2.849,5.833,4.312,8.731.367.726.911,1.455,0,2.084s-1.484-.106-1.914-.78c-.936-1.469-1.811-2.975-2.711-4.465a9.53,9.53,0,0,0-3.794,5.46c-.116.455-.984.72-1.506,1.072-.221-.588-.727-1.241-.611-1.753a8.156,8.156,0,0,1,2.806-5.013A11.614,11.614,0,0,0,51.943,48.5a1.26,1.26,0,0,0,.16-1.058,6.286,6.286,0,0,0-4.591-4.17c-1.158,2.31-2.267,4.672-3.53,6.949a3.724,3.724,0,0,1-1.787,1.55c-1.912.731-3.914,1.221-5.851,1.892a1.462,1.462,0,0,1-2.123-.912c-.214-.517-.445-1.026-.655-1.544-1.732-4.276-1.731-4.277-6.1-5.724a9.139,9.139,0,0,0-1.066-.331,2.856,2.856,0,0,1-2.24-1.891c-1.035-2.705-3.225-4.075-5.846-5.073-.49.676-.941,1.384-1.477,2.018a3.266,3.266,0,0,0-.641,3.229,4.54,4.54,0,0,0,2.088,3.113,9.511,9.511,0,0,1,2.11,1.606,3.062,3.062,0,0,1,.863,1.747c.054.992.138,1.769,1.149,2.3.327.172.5.936.447,1.4-.023.221-.74.548-1.119.519a2.928,2.928,0,0,1-2.694-2.94,2.443,2.443,0,0,0-.442-1.5,16.758,16.758,0,0,0-2.422-1.888c-.215-.15-.69-.246-.838-.121a19.2,19.2,0,0,0-2.7,2.527c-.687.86-1.023,2-1.681,2.885a1.723,1.723,0,0,1-1.452.345,1.285,1.285,0,0,1-.46-1.144c.987-1.971,1.557-4.228,3.539-5.566,1.79-1.209,1.843-1.222,1.21-3.419a3.407,3.407,0,0,1,.649-3.616,20.494,20.494,0,0,0,1.729-2.536H2.3ZM4.751,13.37c-.365,2.31.857,3.187,2.584,2.19,1.177-.68,1.589-.176,2.12.817a3.11,3.11,0,0,0,1.689,1.517c.944.225,1.639-.51,1.9-1.468.326-1.187.909-1.411,2.062-.884a2.627,2.627,0,0,0,2.141.009c.46-.286.661-1.243.682-1.913.025-.818.111-1.38.934-1.807,1.628-.844,1.679-2.435.1-3.33a1.724,1.724,0,0,1-1-1.9c.148-2.03-1.132-2.862-2.9-1.892-1.072.587-1.664.291-2-.782-.29-.915-.774-1.643-1.828-1.628A1.9,1.9,0,0,0,9.353,3.894C9.047,5,8.459,5.288,7.382,4.732,5.5,3.761,4.3,4.588,4.475,6.72a1.559,1.559,0,0,1-.988,1.758c-1.566.79-1.484,2.37.014,3.375a6.8,6.8,0,0,1,1.25,1.517m42.329.207c-.069,2.146,1.134,2.942,2.921,1.951,1.072-.594,1.679-.293,1.985.786.269.947.783,1.622,1.807,1.631a1.878,1.878,0,0,0,1.9-1.557c.336-1.222.964-1.39,2.062-.79,1.666.911,3.01.011,2.831-1.867a1.717,1.717,0,0,1,1.066-1.989,1.757,1.757,0,0,0-.084-3.273A1.584,1.584,0,0,1,60.6,6.585c.2-1.906-1.115-2.839-2.792-1.956-1.148.6-1.7.384-2.239-.8a2.862,2.862,0,0,0-1.717-1.476c-.938-.2-1.609.528-1.861,1.51-.287,1.117-.909,1.393-1.971.85-1.83-.937-3.063-.175-2.935,1.827a1.675,1.675,0,0,1-1.076,1.968,1.76,1.76,0,0,0-.033,3.217c.94.445,1.278.988,1.1,1.854M2.365,34.7H16.722v-3.24H2.365Zm45.91-.005H62.727V31.429H52.761c-2.4,0-3.5.79-4.487,3.262M12.243,20.27H10.187v8.788h2.056ZM52.809,29.1h2.034v-8.85H52.809Z" transform="translate(0 0)" fill="#161615"/>
        <path id="Trazado_1241072" data-name="Trazado 1241072" d="M85.378,55.321c1.44,3,2.857,5.976,4.293,8.94.523,1.079,1.156,2.42.144,3.219a10.8,10.8,0,0,1-4.2,1.8c-.46.107-1.415-.837-1.762-1.5-1.484-2.836-2.824-5.748-4.222-8.63-.156-.321-.349-.624-.574-1.024-1.7,1.287-3.56,1.838-5.2.5-1.333-1.084-2.649-2.156-4.051-3.16-1.453-1.039-1.686-2.673-1.165-4.409a3.214,3.214,0,0,0,.051-1.663,4.149,4.149,0,0,1,2.7-5.25,1.725,1.725,0,0,0,.862-1.008A4.111,4.111,0,0,1,77.976,40.4a1.868,1.868,0,0,0,1.433-.09,4.136,4.136,0,0,1,5.734,1.325,2.523,2.523,0,0,0,1.188.913,4.14,4.14,0,0,1,2.612,5.5,2.466,2.466,0,0,0-.039,1.422c.783,2.577-.222,4.528-2.848,5.425a3.954,3.954,0,0,0-.679.424m-2.123-.334c-.221-1.725.037-2.391,1.5-2.261a2.273,2.273,0,0,0,1.807-.938,2.371,2.371,0,0,0-.138-2.025,1.572,1.572,0,0,1,.1-2.107,1.733,1.733,0,0,0-1.383-2.949,1.69,1.69,0,0,1-1.749-1.24c-.228-.6-.891-1.363-1.437-1.432A2.645,2.645,0,0,0,80,42.922c-.76.865-1.394,1.059-2.182.2a1.841,1.841,0,0,0-3.331,1.5c.135,1.1-.259,1.6-1.475,1.621a2.557,2.557,0,0,0-1.939.91,2.66,2.66,0,0,0,.23,2.155,1.53,1.53,0,0,1-.071,1.888c-1.132,1.617-.523,2.822,1.4,3.115a2.138,2.138,0,0,1,1.472.95c.936,2.161,2.134,2.449,3.629.692.71-.834,1.389-.878,2.093-.089.654.733,1.443,1.229,2.3.62a5.049,5.049,0,0,0,1.123-1.5m-1.01,4.047c.162.435.289.868.479,1.272.813,1.726,1.675,3.431,2.462,5.169.8,1.773,1.017,1.84,2.718.555l-3.8-7.935-1.861.94" transform="translate(-47.58 -27.605)" fill="#161615"/>
        <path id="Trazado_1241073" data-name="Trazado 1241073" d="M7.554,145.357V122.036H21.436a20.519,20.519,0,0,1-1.729,2.536,3.407,3.407,0,0,0-.649,3.616c.633,2.2.581,2.211-1.21,3.419-1.982,1.338-2.553,3.6-3.539,5.566a1.285,1.285,0,0,0,.46,1.144,1.723,1.723,0,0,0,1.453-.345c.658-.89.994-2.025,1.681-2.885a19.2,19.2,0,0,1,2.7-2.527c.148-.125.622-.029.838.121a16.716,16.716,0,0,1,2.422,1.888,2.442,2.442,0,0,1,.442,1.5,2.928,2.928,0,0,0,2.694,2.94c.379.029,1.1-.3,1.119-.519.049-.462-.12-1.226-.447-1.4-1.012-.533-1.1-1.311-1.15-2.3a3.06,3.06,0,0,0-.863-1.747,9.512,9.512,0,0,0-2.11-1.606,4.543,4.543,0,0,1-2.088-3.113A3.265,3.265,0,0,1,22.1,125.1c.537-.634.987-1.342,1.478-2.018,2.62,1,4.81,2.368,5.845,5.073a2.856,2.856,0,0,0,2.24,1.891,9.12,9.12,0,0,1,1.067.331c4.365,1.448,4.364,1.448,6.1,5.724.21.518.441,1.027.654,1.544a1.462,1.462,0,0,0,2.123.912c1.937-.671,3.939-1.161,5.851-1.892a3.727,3.727,0,0,0,1.787-1.55c1.262-2.277,2.372-4.639,3.529-6.948a6.285,6.285,0,0,1,4.591,4.169,1.259,1.259,0,0,1-.159,1.059,11.619,11.619,0,0,1-1.871,1.887,8.157,8.157,0,0,0-2.806,5.013c-.116.512.39,1.165.611,1.753.521-.352,1.39-.616,1.506-1.072a9.529,9.529,0,0,1,3.794-5.46c.9,1.49,1.775,3,2.711,4.465.43.675.983,1.419,1.914.781s.371-1.358,0-2.084c-1.463-2.9-2.934-5.793-4.312-8.731A5.915,5.915,0,0,0,56,127.1c-2.879-1.512-2.916-1.654-2.349-5.084h14.3v23.339Z" transform="translate(-5.256 -84.894)" fill="#915643"/>
        <path id="Trazado_1241074" data-name="Trazado 1241074" d="M10.113,18.636a6.822,6.822,0,0,0-1.25-1.517c-1.5-1.005-1.58-2.585-.014-3.375a1.56,1.56,0,0,0,.988-1.758C9.659,9.853,10.858,9.026,12.743,10c1.077.555,1.665.269,1.972-.838a1.9,1.9,0,0,1,1.869-1.592c1.053-.015,1.538.713,1.827,1.628.34,1.074.932,1.369,2,.782,1.773-.971,3.053-.139,2.9,1.892a1.725,1.725,0,0,0,1,1.9c1.583.9,1.532,2.486-.1,3.33-.823.427-.909.989-.934,1.807-.02.67-.222,1.628-.682,1.914a2.629,2.629,0,0,1-2.141-.009c-1.153-.527-1.736-.3-2.062.884-.263.957-.958,1.693-1.9,1.468a3.112,3.112,0,0,1-1.689-1.517c-.531-.992-.943-1.5-2.12-.817-1.727,1-2.949.121-2.584-2.19" transform="translate(-5.362 -5.265)" fill="#4ba35c"/>
        <path id="Trazado_1241075" data-name="Trazado 1241075" d="M149.86,18.885c.174-.866-.165-1.408-1.1-1.854a1.76,1.76,0,0,1,.033-3.217,1.674,1.674,0,0,0,1.075-1.968c-.128-2,1.1-2.764,2.935-1.827,1.062.544,1.684.267,1.971-.85.252-.982.922-1.706,1.861-1.51a2.86,2.86,0,0,1,1.717,1.476c.539,1.184,1.091,1.405,2.239.8,1.676-.883,2.994.05,2.792,1.956a1.584,1.584,0,0,0,.968,1.886,1.757,1.757,0,0,1,.084,3.273,1.718,1.718,0,0,0-1.066,1.989c.179,1.878-1.165,2.778-2.831,1.867-1.1-.6-1.725-.432-2.062.79a1.878,1.878,0,0,1-1.9,1.557c-1.024-.009-1.539-.684-1.808-1.631-.306-1.079-.914-1.38-1.985-.786-1.788.99-2.99.2-2.921-1.951" transform="translate(-102.78 -5.307)" fill="#4ba35c"/>
        <rect id="Rectángulo_410574" data-name="Rectángulo 410574" width="14.357" height="3.24" transform="translate(2.364 31.458)" fill="#4da55c"/>
        <path id="Trazado_1241076" data-name="Trazado 1241076" d="M158.663,106.562c.984-2.472,2.089-3.262,4.488-3.262h9.965v3.262Z" transform="translate(-110.389 -71.87)" fill="#4ca45c"/>
        <rect id="Rectángulo_410575" data-name="Rectángulo 410575" width="2.056" height="8.788" transform="translate(10.187 20.27)" fill="#915743"/>
        <rect id="Rectángulo_410576" data-name="Rectángulo 410576" width="2.034" height="8.85" transform="translate(52.809 20.246)" fill="#915743"/>
        <path id="Trazado_1241077" data-name="Trazado 1241077" d="M88.463,60.361a5.054,5.054,0,0,1-1.123,1.5c-.861.609-1.651.113-2.305-.62-.7-.789-1.383-.745-2.093.089-1.495,1.757-2.693,1.469-3.629-.692a2.138,2.138,0,0,0-1.472-.95c-1.926-.293-2.534-1.5-1.4-3.115a1.529,1.529,0,0,0,.071-1.888,2.661,2.661,0,0,1-.229-2.155,2.557,2.557,0,0,1,1.939-.91C79.437,51.6,79.831,51.1,79.7,50a1.841,1.841,0,0,1,3.331-1.5c.788.858,1.422.664,2.182-.2a2.644,2.644,0,0,1,1.953-.887c.546.069,1.209.83,1.437,1.432a1.69,1.69,0,0,0,1.749,1.24,1.733,1.733,0,0,1,1.383,2.949,1.572,1.572,0,0,0-.1,2.107,2.37,2.37,0,0,1,.138,2.025,2.272,2.272,0,0,1-1.807.938c-1.465-.131-1.724.535-1.5,2.261" transform="translate(-52.788 -32.979)" fill="#4ba35c"/>
        <path id="Trazado_1241078" data-name="Trazado 1241078" d="M113.933,101.147l1.861-.94,3.8,7.936c-1.7,1.285-1.915,1.218-2.718-.555-.787-1.738-1.649-3.442-2.462-5.169-.19-.4-.317-.837-.479-1.272" transform="translate(-79.269 -69.719)" fill="#8d5542"/>
      </g>
    </g>
  </g>
</svg>
