<svg xmlns="http://www.w3.org/2000/svg" xmlns:xlink="http://www.w3.org/1999/xlink" width="118" height="118" viewBox="0 0 118 118">
  <defs>
    <filter id="Elipse_12115" x="0" y="0" width="118" height="118" filterUnits="userSpaceOnUse">
      <feOffset dy="3" input="SourceAlpha"/>
      <feGaussianBlur stdDeviation="3" result="blur"/>
      <feFlood flood-opacity="0.161"/>
      <feComposite operator="in" in2="blur"/>
      <feComposite in="SourceGraphic"/>
    </filter>
    <clipPath id="clip-path">
      <rect id="Rect치ngulo_410594" data-name="Rect치ngulo 410594" width="63.957" height="63.943" fill="none"/>
    </clipPath>
  </defs>
  <g id="Grupo_1188213" data-name="Grupo 1188213" transform="translate(-799.781 -2543)">
    <g transform="matrix(1, 0, 0, 1, 799.78, 2543)" filter="url(#Elipse_12115)">
      <g id="Elipse_12115-2" data-name="Elipse 12115" transform="translate(9 6)" fill="#fbe0aa" stroke="#ab7c1f" stroke-width="2">
        <circle cx="50" cy="50" r="50" stroke="none"/>
        <circle cx="50" cy="50" r="49" fill="none"/>
      </g>
    </g>
    <g id="Grupo_1188215" data-name="Grupo 1188215" transform="translate(826.803 2567.028)">
      <g id="Grupo_1188214" data-name="Grupo 1188214" clip-path="url(#clip-path)">
        <path id="Trazado_1241246" data-name="Trazado 1241246" d="M43.691,0h2.746A2.612,2.612,0,0,1,47.9,3.089h6.03L54.926,0h1a7.2,7.2,0,0,1,.511,1.825c.042,5.031.019,10.063.035,15.095,0,.382.071,1.05.248,1.1,2.22.634,1.928,2.407,1.928,4.058v8.8c.492,0,.859.027,1.222,0,2.811-.239,4.12,1.607,4.088,4.055-.11,8.357-.042,16.716-.042,25.074,0,2.819-1.091,3.913-3.9,3.913q-28.006,0-56.013.029a3.923,3.923,0,0,1-4-2.277V33.205c.952-2.348,2.991-2.473,5.166-2.4-.716-.622-.193-2.075-1.578-2.012A3.542,3.542,0,0,1,0,26.464V10.985C.834,8.37,1.73,5.771,2.477,3.131A4.261,4.261,0,0,1,4.993,0H15.978a4.381,4.381,0,0,1,2.216,4.561c-.083,1.3-.016,2.618-.016,3.914,3.277.1,3.822.78,4.377,5.317,3.047-.061,6.412-.467,6.273,4.17h3.056c.25-3.325,1.192-4.177,4.555-4.177.5,0,1-.034,1.5.008.643.054.911-.163,1.1-.832,1.009-3.575,2.05-7.142,3.191-10.676A10.511,10.511,0,0,1,43.691,0m15,33.213v8.242h3.02c0-2.214,0-4.309,0-6.4,0-1.985-.976-2.577-3.02-1.837M38.466,24.689a2.922,2.922,0,0,0-3.113,3.191,2.851,2.851,0,0,0,3.327,2.8,2.93,2.93,0,0,0,2.995-2.942,3.1,3.1,0,0,0-3.209-3.048M24.7,30.681a2.979,2.979,0,0,0,2.987-2.914,3.189,3.189,0,0,0-3.474-3.115A2.968,2.968,0,0,0,21.4,28.146a2.773,2.773,0,0,0,3.3,2.535m-15.215.061a2.945,2.945,0,0,0,3.251-2.894,2.983,2.983,0,0,0-3.252-3.174,3.034,3.034,0,0,0,0,6.068M59.629,55.326c2.052.2,2.052.2,2.052-1.843V43.727H59.651c-.612-.1-1.017-.038-1.009.775q.049,5.019,0,10.039c-.006.764.316.95.985.784M43.693,17.98h1.955V2.334c-.783-.264-1.24-.1-1.436.7-.206.84-.483,1.662-.73,2.492L39.836,17.98Zm1.983,2.256H18.255v2.023h29.6V20.236ZM13.959,17.972h2.017c0-4.653,0-9.174,0-13.7,0-2.023-.162-2.167-2.259-2.026H11.734c0,2.162,0,4.313,0,6.463,0,2.977-1.073,4.063-4.023,4.07-1.813,0-3.625,0-5.451,0v7.644c.943-.341,1.729-.639,2.525-.909a25.761,25.761,0,0,1,4.089-1.3,43.354,43.354,0,0,1,5.086-.245m45.7,39.689c-.6-.174-.92-.011-1.275.586A3.037,3.037,0,0,1,56.775,59.6c-2.38.6-3.595.039-4.829-1.943H2.175v1.775c0,2.319,0,2.32,2.358,2.32q26.7,0,53.39,0c.5,0,.993-.047,1.49-.073.822-.089,2,.551,2.239-.815a19.248,19.248,0,0,0,.035-3.2ZM52.13,32.984H51.049q-23.521,0-47.043,0a2.177,2.177,0,0,0-.979.084c-.324.178-.771.537-.778.826-.061,2.516-.035,5.034-.035,7.551H52.13ZM47.973,17.965a3.63,3.63,0,0,1,1.824,5.27,5.782,5.782,0,0,0-.785,3.247,2.135,2.135,0,0,1-2.362,2.3c-.951.039-1.9.007-2.849.007l-.836,2h9.217c0-3.494.018-6.9-.011-10.31a2,2,0,0,1,1.3-2.175c.759-.237.811-.637.808-1.27-.019-3.576-.008-7.152-.014-10.728,0-.315-.057-.63-.084-.918h-6.2ZM56.352,20.3H54.487V57.433h1.865ZM34.137,43.693c-1.82,0-3.347-.065-4.862.036a2.218,2.218,0,0,0-1.488.766c-2.4,3.336-4.737,6.722-7.081,10.1a4.427,4.427,0,0,0-.331.79c1.718,0,3.3.036,4.875-.026a1.647,1.647,0,0,0,1.149-.548c2.542-3.591,5.035-7.217,7.739-11.119M3.119,55.385c1.847,0,3.385.068,4.911-.038a2.244,2.244,0,0,0,1.489-.8c2.234-3.1,4.4-6.254,6.575-9.4.293-.423.555-.867.93-1.455-1.9,0-3.559-.02-5.217.019a1.181,1.181,0,0,0-.832.409C8.4,47.781,5.848,51.461,3.119,55.385m22.5-11.693c-1.858,0-3.429-.059-4.989.035a2.087,2.087,0,0,0-1.385.754C17.585,46.763,16,49.1,14.39,51.423c-.864,1.247-1.717,2.5-2.715,3.955,1.96,0,3.649.022,5.336-.021a1.192,1.192,0,0,0,.811-.465c2.553-3.632,5.08-7.282,7.8-11.2M37.238,55.385c1.615,0,2.863-.067,4.1.02a2.393,2.393,0,0,0,2.641-1.317,27.66,27.66,0,0,1,1.915-2.761c1.721-2.479,3.436-4.962,5.285-7.635-1.661,0-3.1.081-4.532-.027A2.129,2.129,0,0,0,44.528,44.8c-1.675,2.477-3.393,4.925-5.093,7.385-.674.976-1.342,1.957-2.2,3.2m5.405-11.693c-1.85,0-3.41-.058-4.96.035a2.053,2.053,0,0,0-1.374.741c-2.225,3.1-4.387,6.241-6.559,9.377-.292.422-.533.88-.929,1.54,1.729,0,3.213.077,4.682-.039a2.466,2.466,0,0,0,1.611-.841c1.536-2.059,2.964-4.2,4.427-6.313.98-1.416,1.955-2.836,3.1-4.5M9.538,2.136a29.881,29.881,0,0,0-3.426.04,1.793,1.793,0,0,0-1.3.859c-.834,2.5-1.538,5.036-2.318,7.67,2.017,0,3.924.067,5.819-.051A1.638,1.638,0,0,0,9.483,9.581c.108-2.435.055-4.877.055-7.445M2.219,22.922a17.7,17.7,0,0,0,.05,2.726,1.511,1.511,0,0,0,1.043.941,1.4,1.4,0,0,0,1.169-.636c1.041-2.318,2.923-3.762,5.167-3.64a5.151,5.151,0,0,1,4.925,3.574c.289.808.67.908,1.308.651v-6.3c-2.3,0-4.508-.088-6.7.041a9.712,9.712,0,0,0-2.818.866c-1.286.5-2.54,1.084-4.14,1.776M52.1,55.317V46.174l-6.306,9.143ZM8.5,43.806H2.327v8.907L8.5,43.806m9.738-33v7.174h1.985c0-1.869,0-3.681,0-5.492,0-1.657-.217-1.844-1.984-1.682m1.709,20.051c-.321-3.066-2.622-1.9-4.258-2.068-1.519-.161-1,1.391-1.839,2.068Zm8.963-.038h5.1c-.886-2.177-.886-2.177-4.192-2l-.909,2m.05-6.263c.844,2.17.845,2.1,3.275,2.149,1.608.035,1.2-1.379,1.962-2.149Zm14.012.014c.871,2.392,1.047,2.478,3.845,1.948V24.57ZM22.49,17.948h4.04c.369-2.09-.729-2.253-4.04-1.767Zm11.735-.038c3.182.457,3.885.077,3.63-1.93-.661,0-1.326,0-1.99,0-1.565.01-1.765.237-1.64,1.929M17.974,24.544c.236.832.393,2.017.6,2.026,1.335.059.876-1.349,1.637-2.026Z" fill="#090e0a"/>
        <path id="Trazado_1241247" data-name="Trazado 1241247" d="M58.735,131.571v8.464H8.819c0-2.517-.026-5.035.035-7.551.007-.29.454-.648.778-.826a2.169,2.169,0,0,1,.978-.084q23.522,0,47.043,0h1.081m-41.527,6.914c.522-.71,1.094-1.15,1.055-1.528a1.546,1.546,0,0,0-1.036-1.049c-.283-.054-.971.595-.992.958-.025.416.487.864.973,1.62m35.633-1.563c-.69-.508-1.147-1.087-1.464-1.018a1.607,1.607,0,0,0-1.011,1.082c-.049.281.611.966.95.964.419,0,.835-.53,1.525-1.028M25.835,138.5c.463-.762.955-1.215.926-1.631-.026-.365-.637-.689-.989-1.031-.351.392-.913.748-.985,1.185-.054.332.515.766,1.048,1.477m14.246-3.62c-.7-.531-1.121-1.085-1.429-1.028-.416.076-.745.623-1.112.968.335.336.637.891,1.013.946.353.051.783-.425,1.528-.885M35.8,136.983c-.7-.532-1.1-1.068-1.507-1.071-.336,0-.981.664-.941.96a1.585,1.585,0,0,0,.983,1.078c.3.078.761-.475,1.465-.967m8.51-.043c-.681-.52-1.125-1.1-1.427-1.031a1.584,1.584,0,0,0-1.015,1.05c-.051.291.572.979.907.988.406.01.825-.509,1.535-1.007M12.965,133.3c-.506.7-1.068,1.158-.995,1.456a1.6,1.6,0,0,0,1.068,1c.29.046.966-.59.969-.927,0-.4-.523-.814-1.043-1.528m16.986,3.006c.539-.678,1.109-1.1,1.054-1.4-.075-.419-.623-.754-.969-1.125-.34.331-.9.63-.957,1-.053.355.424.788.872,1.522m17.125-3.023c-.494.72-1.031,1.17-.96,1.481.094.411.665.712,1.031,1.061.32-.354.859-.687.9-1.068.034-.353-.468-.758-.967-1.474m10.086,1.4c-.783-.423-1.247-.878-1.656-.832-.354.04-.645.647-.964,1,.392.324.76.856,1.183.9.333.038.735-.52,1.437-1.075m-35.653,1.584c.5-.644,1.063-1.071,1-1.379-.08-.417-.638-.742-.991-1.107-.36.359-.925.676-1.011,1.092-.063.3.5.739,1,1.394" transform="translate(-6.604 -98.587)" fill="#4ba35b"/>
        <path id="Trazado_1241248" data-name="Trazado 1241248" d="M65.913,233.875c-.5.025-.993.073-1.49.073q-26.7.006-53.39,0c-2.357,0-2.357,0-2.358-2.32v-1.775H58.448c1.234,1.982,2.448,2.547,4.829,1.943a3.038,3.038,0,0,0,1.613-1.352c.355-.6.677-.759,1.275-.586q-.126,2.007-.252,4.014" transform="translate(-6.501 -172.2)" fill="#4ca45c"/>
        <path id="Trazado_1241249" data-name="Trazado 1241249" d="M20.717,24.7a43.462,43.462,0,0,0-5.086.245,25.789,25.789,0,0,0-4.089,1.3c-.8.269-1.581.568-2.525.909V19.51c1.826,0,3.638,0,5.451,0,2.95-.007,4.022-1.093,4.023-4.07,0-2.15,0-4.3,0-6.463h1.984a14.061,14.061,0,0,1,.239,1.83c.018,4.631.006,9.262,0,13.892" transform="translate(-6.757 -6.726)" fill="#de2c29"/>
        <rect id="Rect치ngulo_410593" data-name="Rect치ngulo 410593" width="1.865" height="37.131" transform="translate(54.487 20.302)" fill="#8d8d8c"/>
        <path id="Trazado_1241250" data-name="Trazado 1241250" d="M95.052,174.263c-2.7,3.9-5.2,7.528-7.739,11.119a1.648,1.648,0,0,1-1.149.548c-1.577.062-3.157.025-4.875.025a4.415,4.415,0,0,1,.331-.79c2.344-3.378,4.678-6.764,7.081-10.1a2.218,2.218,0,0,1,1.488-.766c1.515-.1,3.042-.036,4.862-.036" transform="translate(-60.915 -130.571)" fill="#8e3f20"/>
        <path id="Trazado_1241251" data-name="Trazado 1241251" d="M12.444,186.009c2.729-3.925,5.278-7.6,7.856-11.264a1.181,1.181,0,0,1,.832-.409c1.658-.038,3.317-.019,5.217-.019-.375.588-.637,1.033-.93,1.455-2.179,3.141-4.341,6.294-6.575,9.4a2.245,2.245,0,0,1-1.489.8c-1.526.106-3.063.038-4.911.038" transform="translate(-9.325 -130.624)" fill="#8e3f20"/>
        <path id="Trazado_1241252" data-name="Trazado 1241252" d="M60.53,174.271c-2.721,3.917-5.248,7.568-7.8,11.2a1.192,1.192,0,0,1-.811.465c-1.687.043-3.376.021-5.336.021,1-1.454,1.851-2.708,2.715-3.955,1.608-2.322,3.195-4.66,4.86-6.941a2.087,2.087,0,0,1,1.385-.754c1.561-.095,3.131-.035,4.989-.035" transform="translate(-34.907 -130.579)" fill="#8e3f20"/>
        <path id="Trazado_1241253" data-name="Trazado 1241253" d="M148.575,185.91c.855-1.247,1.523-2.228,2.2-3.2,1.7-2.46,3.418-4.908,5.092-7.385a2.129,2.129,0,0,1,2.119-1.131c1.428.108,2.871.027,4.533.027-1.849,2.673-3.564,5.156-5.285,7.635a27.649,27.649,0,0,0-1.915,2.761,2.392,2.392,0,0,1-2.64,1.317c-1.237-.086-2.485-.019-4.1-.019" transform="translate(-111.337 -130.525)" fill="#8e3f20"/>
        <path id="Trazado_1241254" data-name="Trazado 1241254" d="M128.816,174.271c-1.147,1.664-2.122,3.084-3.1,4.5-1.463,2.114-2.891,4.254-4.427,6.313a2.465,2.465,0,0,1-1.611.84c-1.469.117-2.953.039-4.682.039.4-.66.636-1.118.929-1.54,2.172-3.136,4.334-6.279,6.559-9.377a2.054,2.054,0,0,1,1.374-.741c1.551-.093,3.111-.035,4.96-.035" transform="translate(-86.172 -130.579)" fill="#8e3f20"/>
        <path id="Trazado_1241255" data-name="Trazado 1241255" d="M100.315,82.761H72.834V80.738h27.42q.03,1.012.061,2.023" transform="translate(-54.579 -60.502)" fill="#6c7b82"/>
        <path id="Trazado_1241256" data-name="Trazado 1241256" d="M17,8.434c0,2.568.054,5.01-.055,7.445a1.637,1.637,0,0,1-1.169,1.072c-1.9.118-3.8.051-5.819.051.779-2.634,1.484-5.174,2.318-7.67a1.793,1.793,0,0,1,1.3-.859A29.885,29.885,0,0,1,17,8.434" transform="translate(-7.459 -6.298)" fill="#1292d4"/>
        <path id="Trazado_1241257" data-name="Trazado 1241257" d="M8.761,83.344c1.6-.692,2.855-1.274,4.14-1.776a9.714,9.714,0,0,1,2.818-.866c2.195-.128,4.4-.041,6.7-.041v6.3c-.638.257-1.018.157-1.308-.651a5.151,5.151,0,0,0-4.925-3.574c-2.244-.122-4.126,1.322-5.167,3.64a1.4,1.4,0,0,1-1.169.636A1.51,1.51,0,0,1,8.81,86.07a17.7,17.7,0,0,1-.05-2.726" transform="translate(-6.542 -60.422)" fill="#b70b16"/>
        <path id="Trazado_1241258" data-name="Trazado 1241258" d="M54.974,24.581c0-4.631.015-9.262,0-13.892a14.061,14.061,0,0,0-.239-1.83c2.1-.141,2.258,0,2.258,2.026,0,4.522,0,9.043,0,13.7Z" transform="translate(-41.014 -6.609)" fill="#b90b16"/>
        <path id="Trazado_1241259" data-name="Trazado 1241259" d="M173.489,12.153c.246-.83.524-1.652.73-2.492.2-.8.653-.961,1.436-.7V24.61H173.7c0-3.718,0-7.436-.014-11.154a8.813,8.813,0,0,0-.2-1.3" transform="translate(-130.006 -6.63)" fill="#5e5e5e"/>
        <path id="Trazado_1241260" data-name="Trazado 1241260" d="M189.015,193.368h-6.306l6.306-9.143Z" transform="translate(-136.915 -138.051)" fill="#8d3e20"/>
        <path id="Trazado_1241261" data-name="Trazado 1241261" d="M15.455,174.777l-6.171,8.907v-8.907Z" transform="translate(-6.957 -130.971)" fill="#8f3f20"/>
        <path id="Trazado_1241262" data-name="Trazado 1241262" d="M162.585,22.037a8.812,8.812,0,0,1,.2,1.3c.017,3.718.012,7.436.014,11.154h-3.857l3.647-12.457" transform="translate(-119.102 -16.514)" fill="#8b8b8b"/>
        <path id="Trazado_1241263" data-name="Trazado 1241263" d="M237.933,174.462h2.031v2.651q0,3.552,0,7.1c0,2.042,0,2.042-2.052,1.843q.011-5.8.021-11.6" transform="translate(-178.282 -130.735)" fill="#652e19"/>
        <path id="Trazado_1241264" data-name="Trazado 1241264" d="M28.786,104.513a3.034,3.034,0,0,1,0-6.068,4.647,4.647,0,0,1,0,6.068" transform="translate(-19.301 -73.771)" fill="#8b8b8b"/>
        <path id="Trazado_1241265" data-name="Trazado 1241265" d="M88.59,104.387a2.773,2.773,0,0,1-3.3-2.535A2.967,2.967,0,0,1,88.1,98.359a4.265,4.265,0,0,1,1.23,3.828,17.108,17.108,0,0,1-.743,2.2" transform="translate(-63.89 -73.707)" fill="#8b8b8b"/>
        <path id="Trazado_1241266" data-name="Trazado 1241266" d="M144.365,104.5a2.851,2.851,0,0,1-3.327-2.8,2.922,2.922,0,0,1,3.113-3.191c.535,1.175,1.326,2.3.973,3.687-.2.781-.5,1.536-.759,2.3" transform="translate(-105.685 -73.817)" fill="#8b8b8b"/>
        <path id="Trazado_1241267" data-name="Trazado 1241267" d="M234.169,131.6c2.043-.739,3.017-.147,3.019,1.837,0,2.1,0,4.191,0,6.4h-2.048c0-2.422-.018-4.844.018-7.265.011-.745-.233-1.083-.99-.977" transform="translate(-175.478 -98.386)" fill="#2b8844"/>
        <path id="Trazado_1241268" data-name="Trazado 1241268" d="M72.761,42.977c1.766-.162,1.98.025,1.984,1.682,0,1.811,0,3.623,0,5.492H72.761Z" transform="translate(-54.524 -32.17)" fill="#8d8d8c"/>
        <path id="Trazado_1241269" data-name="Trazado 1241269" d="M37.841,104.508a4.648,4.648,0,0,0,0-6.068,2.983,2.983,0,0,1,3.252,3.174,2.945,2.945,0,0,1-3.251,2.894" transform="translate(-28.356 -73.767)" fill="#5b5b5b"/>
        <path id="Trazado_1241270" data-name="Trazado 1241270" d="M234.979,174.352q-.011,5.8-.021,11.6c-.669.165-.991-.021-.985-.785.025-3.346.03-6.693,0-10.039-.008-.814.4-.877,1.009-.775" transform="translate(-175.329 -130.626)" fill="#8f3f20"/>
        <path id="Trazado_1241271" data-name="Trazado 1241271" d="M153.686,104.5c.256-.767.56-1.522.759-2.3.353-1.392-.438-2.512-.973-3.687a3.1,3.1,0,0,1,3.209,3.048,2.93,2.93,0,0,1-2.995,2.943" transform="translate(-115.006 -73.818)" fill="#5b5b5b"/>
        <path id="Trazado_1241272" data-name="Trazado 1241272" d="M97.093,104.383a17.109,17.109,0,0,0,.743-2.2,4.265,4.265,0,0,0-1.23-3.828,3.189,3.189,0,0,1,3.475,3.115,2.979,2.979,0,0,1-2.988,2.914" transform="translate(-72.393 -73.702)" fill="#5b5b5b"/>
        <path id="Trazado_1241273" data-name="Trazado 1241273" d="M115.541,97.974h5.237c-.765.77-.354,2.185-1.962,2.149-2.43-.054-2.431.021-3.275-2.149" transform="translate(-86.582 -73.418)" fill="#47626f"/>
        <path id="Trazado_1241274" data-name="Trazado 1241274" d="M234.169,132.459c.757-.107,1,.231.99.977-.036,2.421-.017,4.844-.018,7.265h-.972Z" transform="translate(-175.478 -99.245)" fill="#4ca45c"/>
        <path id="Trazado_1241275" data-name="Trazado 1241275" d="M171.447,98.029h3.845v1.948c-2.8.53-2.974.444-3.845-1.948" transform="translate(-128.476 -73.459)" fill="#47626f"/>
        <path id="Trazado_1241276" data-name="Trazado 1241276" d="M89.733,65.646V63.879c3.311-.486,4.409-.323,4.04,1.767Z" transform="translate(-67.243 -47.698)" fill="#6a7a80"/>
        <path id="Trazado_1241277" data-name="Trazado 1241277" d="M237.044,234.071q.126-2.007.252-4.014h2.022a19.22,19.22,0,0,1-.035,3.2c-.235,1.365-1.417.726-2.239.815" transform="translate(-177.632 -172.396)" fill="#2b8844"/>
        <path id="Trazado_1241278" data-name="Trazado 1241278" d="M136.462,65.684c-.125-1.692.074-1.919,1.64-1.929.664,0,1.329,0,1.99,0,.254,2.007-.448,2.387-3.63,1.93" transform="translate(-102.236 -47.774)" fill="#6a7a80"/>
        <path id="Trazado_1241279" data-name="Trazado 1241279" d="M182.3,82.761q-.03-1.012-.061-2.023h2.174v2.023Z" transform="translate(-136.562 -60.502)" fill="#394043"/>
        <path id="Trazado_1241280" data-name="Trazado 1241280" d="M71.712,97.926h2.239c-.761.677-.3,2.085-1.637,2.026-.209-.009-.367-1.194-.6-2.026" transform="translate(-53.738 -73.382)" fill="#47626f"/>
        <path id="Trazado_1241281" data-name="Trazado 1241281" d="M39.4,151.47c-.486-.756-1-1.2-.973-1.62.022-.363.709-1.012.993-.958a1.548,1.548,0,0,1,1.036,1.049c.038.379-.534.819-1.056,1.528" transform="translate(-28.792 -111.572)" fill="#04170c"/>
        <path id="Trazado_1241282" data-name="Trazado 1241282" d="M177.069,149.892c-.69.5-1.106,1.026-1.525,1.028-.34,0-1-.683-.951-.964a1.607,1.607,0,0,1,1.011-1.082c.317-.069.774.51,1.464,1.018" transform="translate(-130.832 -111.557)" fill="#04170c"/>
        <path id="Trazado_1241283" data-name="Trazado 1241283" d="M73.584,151.273c-.533-.711-1.1-1.145-1.048-1.477.072-.437.634-.794.985-1.185.353.342.963.666.989,1.031.029.416-.463.869-.926,1.631" transform="translate(-54.353 -111.364)" fill="#04170c"/>
        <path id="Trazado_1241284" data-name="Trazado 1241284" d="M125.971,141.7c-.745.46-1.175.937-1.528.885-.375-.054-.678-.609-1.013-.946.366-.345.7-.891,1.112-.968.308-.057.729.5,1.429,1.028" transform="translate(-92.495 -105.413)" fill="#001108"/>
        <path id="Trazado_1241285" data-name="Trazado 1241285" d="M109.154,149.992c-.7.491-1.167,1.045-1.465.967a1.585,1.585,0,0,1-.983-1.078c-.04-.3.605-.962.941-.96.4,0,.805.539,1.507,1.071" transform="translate(-79.96 -111.596)" fill="#03130a"/>
        <path id="Trazado_1241286" data-name="Trazado 1241286" d="M143.122,149.926c-.709.5-1.128,1.016-1.535,1.007-.334-.008-.958-.7-.907-.988a1.585,1.585,0,0,1,1.015-1.05c.3-.067.745.511,1.427,1.031" transform="translate(-105.418 -111.573)" fill="#03130a"/>
        <path id="Trazado_1241287" data-name="Trazado 1241287" d="M22.383,138.5c.52.714,1.047,1.124,1.043,1.528,0,.337-.679.974-.969.928a1.6,1.6,0,0,1-1.068-1c-.074-.3.489-.755.995-1.456" transform="translate(-16.023 -103.788)" fill="#03130a"/>
        <path id="Trazado_1241288" data-name="Trazado 1241288" d="M90.53,142.945c-.448-.734-.925-1.167-.872-1.522.055-.374.617-.672.958-1,.346.371.894.706.969,1.125.055.305-.516.722-1.054,1.4" transform="translate(-67.183 -105.226)" fill="#001108"/>
        <path id="Trazado_1241289" data-name="Trazado 1241289" d="M158.586,138.436c.5.716,1,1.121.967,1.474-.037.381-.576.714-.9,1.068-.366-.349-.937-.65-1.031-1.061-.071-.311.466-.761.96-1.481" transform="translate(-118.114 -103.739)" fill="#001108"/>
        <path id="Trazado_1241290" data-name="Trazado 1241290" d="M193.882,141.506c-.7.555-1.1,1.114-1.437,1.075-.423-.048-.791-.58-1.183-.9.319-.356.61-.963.964-1,.409-.046.873.409,1.656.832" transform="translate(-143.325 -105.414)" fill="#03130a"/>
        <path id="Trazado_1241291" data-name="Trazado 1241291" d="M56.466,142.891c-.5-.654-1.062-1.089-1-1.394.086-.416.651-.733,1.011-1.092.353.365.912.69.991,1.107.059.308-.508.734-1,1.379" transform="translate(-41.562 -105.214)" fill="#03130a"/>
      </g>
    </g>
  </g>
</svg>
