<svg xmlns="http://www.w3.org/2000/svg" xmlns:xlink="http://www.w3.org/1999/xlink" width="118" height="118" viewBox="0 0 118 118">
  <defs>
    <filter id="Elipse_12115" x="0" y="0" width="118" height="118" filterUnits="userSpaceOnUse">
      <feOffset dy="3" input="SourceAlpha"/>
      <feGaussianBlur stdDeviation="3" result="blur"/>
      <feFlood flood-opacity="0.161"/>
      <feComposite operator="in" in2="blur"/>
      <feComposite in="SourceGraphic"/>
    </filter>
    <clipPath id="clip-path">
      <rect id="Rectángulo_410946" data-name="Rectángulo 410946" width="67.321" height="61.244" fill="none"/>
    </clipPath>
  </defs>
  <g id="Grupo_1187434" data-name="Grupo 1187434" transform="translate(-321.781 -4441)">
    <g id="Grupo_1184522" data-name="Grupo 1184522" transform="translate(-424 595)">
      <g id="Grupo_1181949" data-name="Grupo 1181949" transform="translate(-54 1303)">
        <g transform="matrix(1, 0, 0, 1, 799.78, 2543)" filter="url(#Elipse_12115)">
          <g id="Elipse_12115-2" data-name="Elipse 12115" transform="translate(9 6)" fill="#bfb693" stroke="#857f66" stroke-width="1.5">
            <circle cx="50" cy="50" r="50" stroke="none"/>
            <circle cx="50" cy="50" r="49.25" fill="none"/>
          </g>
        </g>
      </g>
    </g>
    <g id="Grupo_1189617" data-name="Grupo 1189617" transform="translate(347.121 4466.378)">
      <g id="Grupo_1189616" data-name="Grupo 1189616" clip-path="url(#clip-path)">
        <path id="Trazado_1242590" data-name="Trazado 1242590" d="M0,47.814A2.67,2.67,0,0,1,2.952,46.1c.475.042.956.006,1.434.007,1.041,0,1.191.1,1.525,1.028a1.172,1.172,0,0,1-1.4.969c-.566-.044-1.137-.01-1.706-.008-.812,0-.832.023-.832.862q0,10.341,0,20.682V70.3c1.462,0,2.839,0,4.215,0a4.43,4.43,0,0,1,4.233,2.553c1.878,3.6,3.8,7.176,5.671,10.777a1.013,1.013,0,0,0,1.055.651c1.75-.034,3.5-.016,5.252-.011.872,0,1.088.166,1.378,1-.324.879-.521,1.016-1.5,1.017-1.686,0-3.373-.039-5.057.013a2.884,2.884,0,0,1-2.916-1.772c-1.838-3.593-3.756-7.145-5.627-10.721a2.282,2.282,0,0,0-1.939-1.463c-1.568-.052-3.138-.014-4.714-.014a.921.921,0,0,0-.051.2q.006,8.472.017,16.944c-.007.985-.017,1.97-.021,2.954,0,.931,0,.933.957.933H37.48c.207,0,.415-.018.726-.033L35.8,89.472q-.563-.959-1.125-1.917a2.394,2.394,0,0,0-2.271-1.27c-1.575.026-3.151.011-4.726,0-.856,0-1.1-.192-1.37-1.016.288-.835.506-1,1.374-1,1.551,0,3.1,0,4.654,0A4.458,4.458,0,0,1,36.4,86.558c.6.986,1.217,1.958,1.827,2.936.671,1.126,1.353,2.244,2.005,3.381a.834.834,0,0,0,.832.471q10.218-.019,20.436-.011c.179,0,.357-.032.622-.057-.733-1.081-1.459-2.041-2.065-3.073a3.005,3.005,0,0,0-3.129-1.682,2.332,2.332,0,0,1-2.257-1.194c-.45-.7-.928-1.379-1.4-2.062a2.225,2.225,0,0,0-2.057-1.056,2.815,2.815,0,0,1-2.684-1.417c-2.127-3.183-4.314-6.325-6.448-9.5a2.534,2.534,0,0,0-2.456-1.309c-.2.016-.4-.023-.591.006a3.714,3.714,0,0,1-4.343-2.433c-.331-.748-.382-1,.167-1.644.8-.245,1.193-.181,1.512.562a2.282,2.282,0,0,0,2.7,1.506A4.868,4.868,0,0,1,44,72.527c2.007,3.1,4.146,6.11,6.214,9.169a.959.959,0,0,0,.9.5,4.353,4.353,0,0,1,3.951,2.143,3.5,3.5,0,0,1,.256.38,2.932,2.932,0,0,0,3.026,1.915,3.487,3.487,0,0,1,2.858,1.748c.993,1.411,1.949,2.849,2.923,4.273a1.642,1.642,0,0,1,.176,1.786,1.723,1.723,0,0,1-1.606.942c-.175.006-.35,0-.525,0q-29.558,0-59.116.016A2.918,2.918,0,0,1,0,93.69Z" transform="translate(0 -34.153)" fill="#0e0b0a"/>
        <path id="Trazado_1242591" data-name="Trazado 1242591" d="M29.424,88.287c-.291-.837-.507-1-1.378-1-1.751,0-3.5-.023-5.252.011a1.013,1.013,0,0,1-1.055-.651c-1.875-3.6-3.793-7.178-5.672-10.777a4.429,4.429,0,0,0-4.233-2.553c-1.376,0-2.753,0-4.215,0v-.659q0-10.341,0-20.682c0-.839.02-.859.832-.862.569,0,1.141-.035,1.706.008a1.172,1.172,0,0,0,1.4-.969h2.505a1.182,1.182,0,0,0,1.4.972c.785-.046,1.576.009,2.364-.015a2.64,2.64,0,0,1,2.637,1.567c1.7,3.276,3.435,6.53,5.154,9.794.1.181.168.374.275.614-2.835,0-5.593.01-8.351-.018a.906.906,0,0,1-.631-.414c-.507-.866-.954-1.767-1.436-2.648-.364-.664-.911-.874-1.455-.585s-.653.874-.3,1.542c.416.792.889,1.558,1.258,2.371a2.865,2.865,0,0,0,2.971,1.8c2.428-.044,4.858.009,7.287.021.413.693.8,1.4,1.246,2.073a3.831,3.831,0,0,0,2.651,1.743,21.05,21.05,0,0,0,2.147.133,3.167,3.167,0,0,1,2.708,1.447q2.264,3.6,4.51,7.207a8.457,8.457,0,0,0,2.136,2.53A6.242,6.242,0,0,0,44.8,81.327a2.623,2.623,0,0,1,2.293,1.041c1.959,2.5,3.9,5.018,5.841,7.53a1.489,1.489,0,0,1,.315,1.638,1.605,1.605,0,0,1-1.624.969c-2.582-.021-5.164,0-7.746,0-.61-.978-1.23-1.95-1.827-2.936a4.458,4.458,0,0,0-4.069-2.288c-1.551,0-3.1,0-4.654,0-.868,0-1.086.169-1.374,1H29.424" transform="translate(-5.646 -37.165)" fill="#f39657"/>
        <path id="Trazado_1242592" data-name="Trazado 1242592" d="M94.282,135.376c2.582,0,5.164-.022,7.746,0a1.605,1.605,0,0,0,1.624-.969,1.489,1.489,0,0,0-.315-1.638c-1.944-2.512-3.882-5.03-5.841-7.53A2.623,2.623,0,0,0,95.2,124.2a6.242,6.242,0,0,1-4.164-1.045,8.453,8.453,0,0,1-2.136-2.53q-2.238-3.614-4.51-7.207a3.167,3.167,0,0,0-2.708-1.447,21.052,21.052,0,0,1-2.147-.133,3.831,3.831,0,0,1-2.651-1.743c-.446-.671-.833-1.381-1.246-2.073,3.163-.007,6.326-.026,9.489-.014a2.01,2.01,0,0,1,1.72,1.033c.409.643.795,1.3,1.2,1.947.461.739.75.842,1.572.588l1.292,2.224c-.549.643-.5.9-.167,1.644a3.714,3.714,0,0,0,4.343,2.432c.193-.029.395.01.59-.006a2.534,2.534,0,0,1,2.456,1.309c2.134,3.178,4.322,6.32,6.448,9.5a2.814,2.814,0,0,0,2.684,1.417,2.225,2.225,0,0,1,2.057,1.056c.474.683.953,1.363,1.4,2.062a2.333,2.333,0,0,0,2.257,1.194,3.006,3.006,0,0,1,3.129,1.682c.605,1.031,1.331,1.991,2.064,3.073-.265.025-.444.057-.622.057q-10.218,0-20.436.011a.835.835,0,0,1-.833-.471c-.652-1.136-1.334-2.255-2-3.381" transform="translate(-56.054 -80.035)" fill="#e68743"/>
        <path id="Trazado_1242593" data-name="Trazado 1242593" d="M56.091,65.746c-.822.255-1.111.151-1.572-.588-.4-.646-.789-1.3-1.2-1.947A2.011,2.011,0,0,0,51.6,62.178c-3.163-.011-6.326.007-9.489.014-2.429-.012-4.859-.066-7.287-.021a2.865,2.865,0,0,1-2.971-1.8c-.369-.813-.842-1.579-1.258-2.371-.351-.668-.229-1.259.3-1.542s1.092-.079,1.455.585c.482.881.929,1.782,1.436,2.648a.907.907,0,0,0,.631.414c2.758.028,5.516.018,8.351.018-.107-.24-.179-.433-.275-.614-1.719-3.264-3.457-6.518-5.154-9.794a2.64,2.64,0,0,0-2.637-1.567c-.788.024-1.578-.031-2.364.015a1.181,1.181,0,0,1-1.4-.972c.273-.852.5-1.025,1.345-1.028.9,0,1.795-.01,2.692,0a4.266,4.266,0,0,1,3.989,2.384c1.918,3.62,3.846,7.235,5.73,10.872a1.13,1.13,0,0,0,1.2.709c1.75-.038,3.5-.017,5.252-.013a4.4,4.4,0,0,1,3.984,2.206c.365.6.706,1.205,1.1,1.784a1.128,1.128,0,0,1-.142,1.635" transform="translate(-22.525 -34.21)" fill="#120d0a"/>
        <path id="Trazado_1242594" data-name="Trazado 1242594" d="M211.141,145.545c.046-3.08-.39-2.213,1.83-4.427,2.13-2.124,1.357-1.884,4.547-1.889,3.023,0,2.353-.18,4.325,1.793,2.351,2.353,1.907,1.4,1.913,4.651.006,2.976.387,2.153-1.777,4.313-2.268,2.264-1.437,1.92-4.655,1.928-2.855.007-2.2.244-4.211-1.736l-.093-.093c-2.272-2.327-1.829-1.355-1.879-4.541m2.641,2.443c.547.562,1.08,1.138,1.65,1.676a1.018,1.018,0,0,0,.63.242,8.832,8.832,0,0,0,3.114-.089c.842-.319,1.437-1.289,2.141-1.973.047-.046.111-.084.137-.14a2.412,2.412,0,0,0,.324-.792c.041-.894.029-1.791.005-2.686a1.035,1.035,0,0,0-.216-.637c-.552-.587-1.145-1.136-1.722-1.7a1.272,1.272,0,0,0-1.307-.645,14.947,14.947,0,0,1-2.091,0,1.544,1.544,0,0,0-1.366.56c-.621.7-1.541,1.246-1.878,2.049-.327.78-.042,1.8-.1,2.715a1.364,1.364,0,0,0,.676,1.416" transform="translate(-156.464 -103.174)" fill="#0d0b0a"/>
        <path id="Trazado_1242595" data-name="Trazado 1242595" d="M132.131,56.92c.495,1.739-.394,2.874-1.551,4.063a5.122,5.122,0,0,1-4.021,1.682,4.934,4.934,0,0,1-4.068-1.7c-1.77-1.984-1.588-1.355-1.716-4.114a4.607,4.607,0,0,1,1.648-3.953c2.143-1.95,1.363-1.672,4.1-1.67s1.951-.3,4.1,1.674c1.23,1.128,1.963,2.318,1.5,4.022M123.156,58.7c1.575,1.867,1.575,1.867,3.947,1.867a2.808,2.808,0,0,0,.589-.009,1.383,1.383,0,0,0,.627-.252c2.038-1.859,2.039-1.863,1.912-4.6a.943.943,0,0,0-.229-.566c-.559-.583-1.148-1.136-1.726-1.7-.136-.087-.27-.245-.408-.249-.873-.023-1.748-.026-2.621,0a.869.869,0,0,0-.492.254c-1.922,1.779-1.921,1.781-1.911,4.4a.88.88,0,0,0,.008.325,4.813,4.813,0,0,0,.305.525" transform="translate(-89.497 -37.949)" fill="#0e0c0b"/>
        <path id="Trazado_1242596" data-name="Trazado 1242596" d="M20.983,8.667c-1.909.525-2.916-.43-3.761-2.048-1.25-2.393-1.316-2.139.015-4.426C18.494.032,18.28-.02,21.018,0c2.494.021,2.494,0,3.737,2.159C26.1,4.49,26.045,4.2,24.768,6.65c-.849,1.629-1.892,2.532-3.785,2.017m.924-6.6a6.786,6.786,0,0,1-.842-.052c-1.073-.2-1.632.293-2.179,1.215a1.779,1.779,0,0,0,.151,2.413,1.385,1.385,0,0,0,1.745,1.086c.383-.063.789.028,1.175-.026a.933.933,0,0,0,.6-.338c.407-.641,1.023-1.308,1.049-1.986.023-.613-.62-1.251-.97-1.878-.032-.057-.05-.142-.1-.165-.206-.1-.422-.181-.634-.27" transform="translate(-12.051 -0.001)" fill="#0e0c0c"/>
        <path id="Trazado_1242597" data-name="Trazado 1242597" d="M178.812,123.126c-1.7.442-2.545-.472-3.376-1.838a3.329,3.329,0,0,1-.014-3.9,3.929,3.929,0,0,1,6.809.011c.795,1.4.993,2.55-.04,3.815a.227.227,0,0,0-.038.053c-.611,1.512-1.647,2.286-3.341,1.856m1.635-4.617c-.229-.786-.7-1.046-1.562-1.083-1-.042-1.388.426-1.814,1.176a1.092,1.092,0,0,0,.079,1.5,1.366,1.366,0,0,0,1.749,1.075c.169-.03.365.042.518-.015a2.079,2.079,0,0,0,.711-.4c.18-.174.244-.463.407-.663a1.048,1.048,0,0,0-.087-1.584" transform="translate(-129.537 -85.54)" fill="#0e0c0c"/>
        <path id="Trazado_1242598" data-name="Trazado 1242598" d="M82.84,35.9c0-.394-.02-.79,0-1.182a1.705,1.705,0,0,1,1.706-1.724c.809-.036,1.621-.035,2.43,0a1.677,1.677,0,0,1,1.7,1.654,22.525,22.525,0,0,1,0,2.495,1.671,1.671,0,0,1-1.733,1.686c-.787.033-1.577.033-2.364,0a1.7,1.7,0,0,1-1.745-1.747c-.021-.393,0-.788,0-1.182m2.069.352v.5h1.746a13.788,13.788,0,0,0-.019-1.4c-.012-.113-.261-.2-.4-.3H84.909Z" transform="translate(-61.385 -24.429)" fill="#120f0f"/>
        <path id="Trazado_1242599" data-name="Trazado 1242599" d="M190.8,80.421c-.372,0-.745.011-1.116,0a1.658,1.658,0,0,1-1.76-1.713c-.037-.786-.036-1.577,0-2.363a1.7,1.7,0,0,1,1.814-1.742c.744-.012,1.489-.014,2.233,0a1.707,1.707,0,0,1,1.8,1.762c.027.743.02,1.489,0,2.233a1.7,1.7,0,0,1-1.852,1.826c-.372.009-.744,0-1.116,0m-.818-2.547v.5h1.757c0-.5-.008-.953,0-1.409.008-.339-.149-.426-.45-.337h-1.31Z" transform="translate(-139.241 -55.276)" fill="#100e0d"/>
        <path id="Trazado_1242600" data-name="Trazado 1242600" d="M190.13,161.984a1.184,1.184,0,0,1-1.109-1.075,1.03,1.03,0,0,1,1.043-1.023,1.153,1.153,0,0,1,1.064,1.11,1,1,0,0,1-1,.988" transform="translate(-140.077 -118.486)" fill="#131214"/>
        <path id="Trazado_1242601" data-name="Trazado 1242601" d="M71.493,18.449a1.1,1.1,0,0,1-1.064-1.092,1.014,1.014,0,0,1,.981-1.01,1.223,1.223,0,0,1,1.119,1.148,1.012,1.012,0,0,1-1.037.955" transform="translate(-52.193 -12.114)" fill="#131314"/>
        <path id="Trazado_1242602" data-name="Trazado 1242602" d="M155.027,112.664a1.018,1.018,0,0,1-.963,1.027,1.229,1.229,0,0,1-1.137-1.132,1,1,0,0,1,1.022-.965,1.084,1.084,0,0,1,1.078,1.07" transform="translate(-113.329 -82.698)" fill="#111012"/>
        <path id="Trazado_1242603" data-name="Trazado 1242603" d="M101.117,85.327a.978.978,0,0,1-.952,1.024,1.172,1.172,0,0,1-1.144-1.1,1.022,1.022,0,0,1,1-1,1.16,1.16,0,0,1,1.1,1.073" transform="translate(-73.381 -62.438)" fill="#0f0e10"/>
        <path id="Trazado_1242604" data-name="Trazado 1242604" d="M29.436,160.361h2.525c.272.824.513,1.012,1.37,1.016,1.575.007,3.151.021,4.726,0a2.394,2.394,0,0,1,2.271,1.27c.373.64.75,1.278,1.125,1.917l-33.8.008q-.009-8.472-.017-16.944a.933.933,0,0,1,.051-.2c1.576,0,3.146-.038,4.714.014a2.282,2.282,0,0,1,1.939,1.463c1.871,3.576,3.789,7.128,5.627,10.721a2.884,2.884,0,0,0,2.916,1.772c1.684-.052,3.371-.011,5.057-.013.976,0,1.173-.139,1.5-1.017" transform="translate(-5.658 -109.239)" fill="#f9ac72"/>
        <path id="Trazado_1242605" data-name="Trazado 1242605" d="M7.639,213.652l33.8-.009,2.41,3.862c-.311.014-.519.033-.726.033q-17.275,0-34.551,0c-.957,0-.96,0-.957-.933,0-.985.013-1.97.021-2.954" transform="translate(-5.645 -158.324)" fill="#f09456"/>
        <path id="Trazado_1242606" data-name="Trazado 1242606" d="M219.247,153.757a1.364,1.364,0,0,1-.676-1.416c.055-.912-.23-1.935.1-2.715.337-.8,1.257-1.35,1.878-2.049a1.544,1.544,0,0,1,1.366-.56,14.945,14.945,0,0,0,2.091,0,1.272,1.272,0,0,1,1.307.645c-.008.24-.025.481-.021.721a5.168,5.168,0,0,1-1.743,4.012,5.405,5.405,0,0,1-4.3,1.364" transform="translate(-161.929 -108.943)" fill="#faac72"/>
        <path id="Trazado_1242607" data-name="Trazado 1242607" d="M221.361,155.62a5.405,5.405,0,0,0,4.3-1.364,5.168,5.168,0,0,0,1.743-4.012c0-.24.013-.481.021-.721.578.563,1.17,1.112,1.722,1.7a1.034,1.034,0,0,1,.216.637c.024.895.035,1.792-.005,2.686a2.412,2.412,0,0,1-.324.792c-.025.056-.09.094-.137.14-.7.683-1.3,1.654-2.141,1.973a8.831,8.831,0,0,1-3.114.089,1.018,1.018,0,0,1-.631-.242c-.57-.538-1.1-1.114-1.65-1.676" transform="translate(-164.043 -110.806)" fill="#f19556"/>
        <path id="Trazado_1242608" data-name="Trazado 1242608" d="M135.112,59.865c.578.564,1.167,1.117,1.726,1.7a.945.945,0,0,1,.229.566c.127,2.733.126,2.737-1.912,4.6a1.382,1.382,0,0,1-.627.252,2.809,2.809,0,0,1-.589.009c-2.372,0-2.372,0-3.947-1.867a6.347,6.347,0,0,0,.834-.133,8.477,8.477,0,0,0,2.135-.707,4.6,4.6,0,0,0,2.151-4.414" transform="translate(-96.333 -44.364)" fill="#f29656"/>
        <path id="Trazado_1242609" data-name="Trazado 1242609" d="M134.182,59.1a4.6,4.6,0,0,1-2.151,4.414,8.476,8.476,0,0,1-2.135.707,6.344,6.344,0,0,1-.834.133,4.815,4.815,0,0,1-.305-.525.884.884,0,0,1-.008-.324c-.009-2.619-.011-2.621,1.912-4.4a.869.869,0,0,1,.492-.254c.873-.025,1.748-.023,2.621,0,.138,0,.272.162.408.249" transform="translate(-95.403 -43.6)" fill="#faac72"/>
        <path id="Trazado_1242610" data-name="Trazado 1242610" d="M29.849,7.987c.212.088.427.17.634.27.048.023.067.108.1.165.35.627.993,1.265.97,1.878-.026.677-.641,1.345-1.049,1.986a.933.933,0,0,1-.6.338c-.385.054-.792-.037-1.175.026a1.385,1.385,0,0,1-1.745-1.086,4.5,4.5,0,0,0,.7-.1c1.414-.429,2.182-1.671,2.167-3.476" transform="translate(-19.993 -5.919)" fill="#ee9355"/>
        <path id="Trazado_1242611" data-name="Trazado 1242611" d="M28.282,7.714c.015,1.805-.752,3.047-2.167,3.476a4.5,4.5,0,0,1-.7.1,1.779,1.779,0,0,1-.151-2.413c.546-.922,1.106-1.411,2.179-1.215a6.786,6.786,0,0,0,.842.052" transform="translate(-18.426 -5.646)" fill="#f9ab72"/>
        <path id="Trazado_1242612" data-name="Trazado 1242612" d="M182.919,125.809a1.092,1.092,0,0,1-.079-1.5c.426-.75.811-1.218,1.814-1.176.865.037,1.333.3,1.562,1.083-.071.047-.168.078-.209.144a2.987,2.987,0,0,1-3.088,1.445" transform="translate(-135.307 -91.25)" fill="#f29556"/>
        <path id="Trazado_1242613" data-name="Trazado 1242613" d="M183.879,128.915a2.987,2.987,0,0,0,3.088-1.445c.041-.066.138-.1.209-.144a1.049,1.049,0,0,1,.087,1.584c-.162.2-.226.489-.407.663a2.081,2.081,0,0,1-.711.4c-.153.057-.35-.016-.518.015a1.366,1.366,0,0,1-1.749-1.075" transform="translate(-136.266 -94.356)" fill="#e38642"/>
        <path id="Trazado_1242614" data-name="Trazado 1242614" d="M90.852,42.21v-1.2h1.326c-.033,1.013-.239,1.2-1.326,1.2" transform="translate(-67.327 -30.39)" fill="#e88e52"/>
        <path id="Trazado_1242615" data-name="Trazado 1242615" d="M90.852,42.21c1.086,0,1.293-.189,1.326-1.2.14.1.389.189.4.3a13.785,13.785,0,0,1,.019,1.4H90.852Z" transform="translate(-67.327 -30.39)" fill="#e68743"/>
        <path id="Trazado_1242616" data-name="Trazado 1242616" d="M197.261,82.363c.3-.09.458,0,.449.337-.011.456,0,.912,0,1.409h-1.756v-.5c1.085-.017,1.287-.209,1.31-1.247" transform="translate(-145.213 -61.012)" fill="#eb9256"/>
        <path id="Trazado_1242617" data-name="Trazado 1242617" d="M197.261,82.457c-.023,1.038-.224,1.23-1.31,1.247V82.457Z" transform="translate(-145.213 -61.106)" fill="#f9ab71"/>
      </g>
    </g>
  </g>
</svg>
