<svg xmlns="http://www.w3.org/2000/svg" width="78.333" height="78.363" viewBox="0 0 78.333 78.363">
  <g id="Grupo_1188561" data-name="Grupo 1188561" transform="translate(-0.255 -0.199)">
    <g id="Grupo_1188562" data-name="Grupo 1188562" transform="translate(0.255 0.199)">
      <path id="Trazado_1241581" data-name="Trazado 1241581" d="M78.589,14.759v3.06a1.883,1.883,0,0,0-.15.31,29.272,29.272,0,0,1-1.273,4.428,15.95,15.95,0,0,1-7.226,7.21c-2.167,1.179-4.47,2.107-6.753,3.166.032.079.127.311.221.543a32.231,32.231,0,0,1,1.978,17.5,31.822,31.822,0,0,1-8.25,17.014A32.306,32.306,0,0,1,38.473,78.114c-.905.153-1.812.3-2.718.448H30.1c-.477-.1-.951-.23-1.434-.3A31.8,31.8,0,0,1,12.078,71,32.408,32.408,0,0,1,.689,51.123,33.08,33.08,0,0,1,.623,40.853c.147-1.039.672-1.467,1.485-1.3.72.152.993.738.836,1.693a28.765,28.765,0,0,0,.128,10.035,29.406,29.406,0,0,0,7.892,15.45c7.562,7.754,16.791,10.755,27.444,8.993a28.978,28.978,0,0,0,17.446-9.847,29.829,29.829,0,0,0,7.39-23.736,29.356,29.356,0,0,0-6-14.775,29.912,29.912,0,0,0-6.464-6.3L47.57,23.585c.129.091.233.162.335.236,8.808,6.432,12.839,15.088,11.319,25.9-1.31,9.315-6.569,16.026-15.048,20.13A26.2,26.2,0,0,1,30.9,72.265c-1.4-.087-1.628-.259-1.834-1.342.372-.969.676-1.118,1.73-1.032.884.072,1.774.058,2.662.081a33.442,33.442,0,0,0,3.717-.321,24.237,24.237,0,0,0,19.508-29.1,17.433,17.433,0,0,0-4.849,3.485,4.49,4.49,0,0,0-1.223,3.043,16.778,16.778,0,0,0,.245,3.34,8.355,8.355,0,0,1-1.365,6.876,14.355,14.355,0,0,1-3.96,3.753c-.439.2-.867.426-1.318.594-2.807,1.051-5.037-.072-5.668-2.99a26.37,26.37,0,0,1-.47-4.469c-.079-1.884.031-3.775-.045-5.659a28.7,28.7,0,0,0-.453-3.545.76.76,0,0,0-1-.667,25.215,25.215,0,0,1-3.315.508,22.993,22.993,0,0,1-5.08-.037c-3.913-.7-5.485-5.415-4.734-8.464a10.379,10.379,0,0,1,3.43-5.292c.191-.17.375-.347.636-.59a20.582,20.582,0,0,1-9.586-3.577A25.091,25.091,0,0,0,11.167,35.3a1.693,1.693,0,0,0,.12,1.962c1.058,1.61,1.9,3.364,2.916,5a3.308,3.308,0,0,0,1.384,1.083c.844.4,1.784.6,2.629.994a3.123,3.123,0,0,1,1.8,3.982,36.68,36.68,0,0,1-1.362,3.464c-.507,1.216-1.046,2.42-1.569,3.63a1.53,1.53,0,0,0,.181,1.507,12.712,12.712,0,0,1,1.77,8.051.778.778,0,0,0,.452.9c1.36.738,2.7,1.507,4.081,2.21.975.5,1.079.6.981,1.7-.651.8-.937.893-1.9.442C12.551,65.5,7.038,57.6,6.538,46.415a24.953,24.953,0,0,1,5.68-17.053c1.12-1.407,2.426-2.667,3.649-4-5.427-5.3-7.575-8.088-10.359-13.446-.469-.9-.418-1.3.32-1.94A42.52,42.52,0,0,1,20.107,1.544,21.519,21.519,0,0,1,32.039.691a22.475,22.475,0,0,1,9.092,4.763,1.285,1.285,0,0,1,.425,1.791c-.861.666-1.107.663-1.984-.055a19.539,19.539,0,0,0-7.632-4.1c-1.223-.3-2.487-.447-3.732-.663l-.08.232L29.312,4.21q4.2,5.757,8.4,11.508a1.006,1.006,0,0,0,.524.4c.941.194,1.893.341,2.841.505l7.146,1.444.146-.229c-1.309-1.871-2.6-3.754-3.936-5.607-.7-.97-.736-1.14-.033-2.058a1.285,1.285,0,0,1,1.773.511q2.392,3.664,4.811,7.31a4.475,4.475,0,0,0,.776.9C53.392,20.3,55.04,21.7,56.682,23.1c.141.121.281.244.473.412a2.425,2.425,0,0,0,.032-.4c-.065-.555-.143-1.107-.21-1.662-.556-4.621.506-8.735,3.856-12.1C64.26,5.909,68.515,3.963,73.12,2.663a1.273,1.273,0,0,1,1.643.69,31.281,31.281,0,0,1,3.2,8.18c.247,1.066.42,2.15.626,3.225m-8.1,3.2c1.761-.714,3.53-1.41,5.273-2.165a.939.939,0,0,0,.37-.762,24.714,24.714,0,0,0-2.4-8.594l-3.279,7.984-1.907,4.4,1.94-.859m-2.136-11a19.453,19.453,0,0,0-4.986,3.186c-.325.281-.282.511-.136.853.685,1.61,1.343,3.231,2.011,4.847.327.793.656,1.586,1.045,2.523,1.14-2.79,2.213-5.416,3.287-8.042l2-4.628-.135-.135L68.352,6.951M65.264,26.835l-1.388,3.2a26.509,26.509,0,0,0,7.107-3.711A12.574,12.574,0,0,0,75.61,20.31c.217-.643.323-1.323.524-2.171L69.7,20.86c-.7.27-1.409.53-2.1.818a.72.72,0,0,0-.355.348c-.67,1.6-1.322,3.2-1.98,4.808M27.756,28.092a43,43,0,0,0,5.057-.289,31.158,31.158,0,0,0,11.664-4.985c1.138-.738,2.229-1.549,3.342-2.327l-.065-.192-5.268-.952c-1.46-.3-2.915-.644-4.385-.89a1.713,1.713,0,0,0-1.16.289c-2.89,2.077-5.754,4.191-8.622,6.3-1.127.827-2.248,1.664-3.372,2.5.015.071.029.142.044.214l2.766.34M50.463,42.042c1.422-1.015,2.81-2.081,4.276-3.028,1.311-.847,1.358-.792.747-2.273a24.134,24.134,0,0,0-9.573-11.422.957.957,0,0,0-.778-.131c-.956.512-1.876,1.1-2.808,1.653-.3.136-.6.262-.894.409a25.216,25.216,0,0,1-7.641,2.7,9.747,9.747,0,0,0-4.342,1.987,9.8,9.8,0,0,0-3.39,3.853c-1.593,3.49.625,7.049,4.432,6.942a45.863,45.863,0,0,0,5.594-.66c1.775-.27,3.069.317,3.594,2.017a15.556,15.556,0,0,1,.635,3.81c.1,2.187-.026,4.386.07,6.573a23.124,23.124,0,0,0,.573,4.133c.232,1.013.941,1.306,1.94,1.027a8.919,8.919,0,0,0,4.849-3.848,6.41,6.41,0,0,0,.806-5.177c-.584-3.111-.451-6.094,1.911-8.562M16.787,63.756a10.585,10.585,0,0,0-1.59-5.831,3.073,3.073,0,0,1-.411-2.692c.4-1.145.84-2.275,1.3-3.4.548-1.335,1.157-2.645,1.7-3.983a1.026,1.026,0,0,0-.648-1.474,21.131,21.131,0,0,0-2-.713,4.822,4.822,0,0,1-3.088-2.419q-.8-1.471-1.613-2.937c-.2-.359-.4-.716-.642-1.153a24.311,24.311,0,0,0,7,24.6m17.62-46.03c-3.007-.6-5.865-1.157-8.719-1.732a1.571,1.571,0,0,0-1.393.313c-1.572,1.205-3.19,2.351-4.787,3.523-1.135.833-2.266,1.673-3.454,2.551a24.939,24.939,0,0,0,5.639,4.034.822.822,0,0,0,1.011-.09c1.506-1.125,3.029-2.227,4.544-3.34,2.35-1.726,4.7-3.453,7.16-5.261M18.782,4.3c2.328,3.183,4.468,6.118,6.629,9.036a1.226,1.226,0,0,0,.688.384c1.435.311,2.876.6,4.318.878,1.345.262,2.692.51,4.172.789-.28-.391-.468-.659-.661-.923Q29.759,8.778,25.578,3.1c-.134-.182-.454-.393-.63-.351-2.008.476-4.005,1-6.167,1.551M61.69,29.284c1.116-2.665,2.172-5.163,3.194-7.675a1.2,1.2,0,0,0-.085-.788c-.495-1.25-1.019-2.488-1.534-3.73-.639-1.538-1.279-3.075-2.016-4.846-.508,1-.98,1.774-1.312,2.605a12.987,12.987,0,0,0-.629,6.682,26.558,26.558,0,0,0,2.382,7.75M14.253,20.834,21.84,15.26,8.748,12.719l-.2.276,5.71,7.84m-5.3-10.427L22.295,13,16.749,5.429a42.919,42.919,0,0,0-7.791,4.978" transform="translate(-0.255 -0.199)" fill="#080b0a"/>
      <path id="Trazado_1241584" data-name="Trazado 1241584" d="M38.164,93.687l-4.514-1.133c.1-1.1-.006-1.2-.981-1.7-1.378-.7-2.721-1.472-4.081-2.21a.778.778,0,0,1-.452-.9,12.7,12.7,0,0,0-1.77-8.051,1.529,1.529,0,0,1-.18-1.507c.523-1.21,1.062-2.413,1.568-3.63a36.673,36.673,0,0,0,1.362-3.463,3.123,3.123,0,0,0-1.8-3.982c-.844-.4-1.784-.595-2.629-.995A3.313,3.313,0,0,1,23.3,65.029c-1.021-1.637-1.858-3.39-2.916-5a1.69,1.69,0,0,1-.119-1.961,25.078,25.078,0,0,1,6.76-8.442A20.588,20.588,0,0,0,36.61,53.2c-.261.242-.445.419-.636.589a10.383,10.383,0,0,0-3.43,5.293c-.751,3.048.822,7.767,4.734,8.463a22.961,22.961,0,0,0,5.08.038,25.2,25.2,0,0,0,3.315-.509.76.76,0,0,1,1,.667,28.673,28.673,0,0,1,.453,3.545c.077,1.884-.033,3.775.045,5.659a26.377,26.377,0,0,0,.47,4.469c.632,2.918,2.861,4.041,5.668,2.99.45-.168.879-.395,1.318-.594a1.276,1.276,0,0,1-.126.422,22.46,22.46,0,0,1-6.569,5.887c-1.728.984-3.581,1.751-5.378,2.615-.887-.024-1.778-.009-2.662-.081-1.054-.086-1.358.063-1.729,1.031" transform="translate(-9.353 -22.963)" fill="#81bee3"/>
      <path id="Trazado_1241585" data-name="Trazado 1241585" d="M72.049,64.791c-2.362,2.468-2.494,5.451-1.911,8.562a6.412,6.412,0,0,1-.806,5.177,8.923,8.923,0,0,1-4.849,3.848c-1,.279-1.708-.015-1.94-1.027a23.111,23.111,0,0,1-.573-4.132c-.1-2.188.035-4.386-.07-6.573a15.53,15.53,0,0,0-.635-3.81c-.525-1.7-1.819-2.288-3.594-2.017a46.05,46.05,0,0,1-5.594.66c-3.807.106-6.025-3.453-4.432-6.942a9.8,9.8,0,0,1,3.39-3.853A9.742,9.742,0,0,1,55.376,52.7a25.227,25.227,0,0,0,7.64-2.7c.293-.148.6-.273.895-.409A25.2,25.2,0,0,1,70.322,58.5a20.426,20.426,0,0,1,1.727,6.291" transform="translate(-21.84 -22.947)" fill="#b6c955"/>
      <path id="Trazado_1241586" data-name="Trazado 1241586" d="M61.808,104.426c1.8-.864,3.649-1.631,5.378-2.615a22.451,22.451,0,0,0,6.568-5.887,1.26,1.26,0,0,0,.126-.422,14.361,14.361,0,0,0,3.96-3.753,8.357,8.357,0,0,0,1.365-6.876,16.784,16.784,0,0,1-.245-3.34,4.489,4.489,0,0,1,1.222-3.042A17.457,17.457,0,0,1,85.033,75a24.238,24.238,0,0,1-19.508,29.1,33.434,33.434,0,0,1-3.716.322" transform="translate(-28.605 -34.653)" fill="#53a1da"/>
      <path id="Trazado_1241587" data-name="Trazado 1241587" d="M24.108,97.02a24.312,24.312,0,0,1-7-24.6c.244.438.445.8.642,1.153q.808,1.468,1.613,2.937a4.82,4.82,0,0,0,3.088,2.419,21.236,21.236,0,0,1,2,.712,1.026,1.026,0,0,1,.648,1.474c-.541,1.338-1.15,2.648-1.7,3.983-.461,1.121-.9,2.252-1.3,3.4a3.073,3.073,0,0,0,.412,2.692,10.582,10.582,0,0,1,1.59,5.831" transform="translate(-7.576 -33.462)" fill="#b5c854"/>
      <path id="Trazado_1241588" data-name="Trazado 1241588" d="M47.9,31.173c-2.46,1.808-4.81,3.536-7.16,5.262-1.515,1.112-3.038,2.214-4.544,3.34a.825.825,0,0,1-1.012.09,24.966,24.966,0,0,1-5.639-4.035c1.188-.878,2.319-1.718,3.454-2.551,1.6-1.173,3.215-2.318,4.787-3.524a1.572,1.572,0,0,1,1.394-.313c2.855.576,5.712,1.137,8.719,1.732" transform="translate(-13.743 -13.646)" fill="#5ca648"/>
      <path id="Trazado_1241589" data-name="Trazado 1241589" d="M65.354,9.145,68.2,12.068c-.7.918-.665,1.087.033,2.057,1.335,1.853,2.626,3.737,3.936,5.607l-.146.229-7.146-1.444c0-.145.065-.327,0-.429-.544-.853-1.081-1.714-1.676-2.532a33.912,33.912,0,0,0-9.445-9.223,3.053,3.053,0,0,0-.647-.224L51.925,4.555l.08-.232c1.245.216,2.508.359,3.732.663a19.539,19.539,0,0,1,7.632,4.1c.877.718,1.123.721,1.984.055" transform="translate(-24.053 -2.098)" fill="#3e9925"/>
      <path id="Trazado_1241590" data-name="Trazado 1241590" d="M86.384,63.344a20.426,20.426,0,0,0-1.727-6.291,25.2,25.2,0,0,0-6.411-8.909c.932-.558,1.851-1.141,2.807-1.653a.955.955,0,0,1,.779.131,24.134,24.134,0,0,1,9.573,11.422c.611,1.481.564,1.426-.747,2.273-1.466.947-2.854,2.014-4.275,3.028" transform="translate(-36.176 -21.5)" fill="#93b61f"/>
      <path id="Trazado_1241591" data-name="Trazado 1241591" d="M34.6,6.473c2.161-.552,4.158-1.075,6.167-1.551.176-.042.5.169.63.351q4.19,5.67,8.349,11.364c.193.264.381.532.661.923-1.48-.279-2.827-.526-4.172-.789-1.441-.282-2.883-.566-4.318-.878a1.226,1.226,0,0,1-.688-.384c-2.161-2.919-4.3-5.854-6.629-9.036" transform="translate(-16.073 -2.372)" fill="#5ca648"/>
      <path id="Trazado_1241592" data-name="Trazado 1241592" d="M48.837,43.667l-2.766-.34-.044-.214c1.124-.832,2.245-1.668,3.372-2.5,2.869-2.106,5.732-4.22,8.622-6.3a1.713,1.713,0,0,1,1.16-.289c1.47.247,2.925.585,4.385.89-.8.729-1.575,1.5-2.421,2.18a41.1,41.1,0,0,1-9.486,5.734,23.693,23.693,0,0,1-2.822.831" transform="translate(-21.336 -15.774)" fill="#5ca648"/>
      <path id="Trazado_1241593" data-name="Trazado 1241593" d="M111.97,39.57a26.542,26.542,0,0,1-2.382-7.75,12.987,12.987,0,0,1,.629-6.682c.332-.831.8-1.607,1.312-2.605.737,1.771,1.377,3.308,2.015,4.846.516,1.242,1.04,2.48,1.535,3.73a1.2,1.2,0,0,1,.085.788c-1.023,2.512-2.078,5.01-3.194,7.675" transform="translate(-50.534 -10.485)" fill="#5ba648"/>
      <path id="Trazado_1241594" data-name="Trazado 1241594" d="M124.022,36.176l6.432-2.721c-.2.849-.307,1.529-.524,2.172a12.57,12.57,0,0,1-4.628,6.011,26.509,26.509,0,0,1-7.107,3.711l1.388-3.2c.064.016.155.067.188.043a13.7,13.7,0,0,0,4.186-5.269,2.272,2.272,0,0,0,.065-.748" transform="translate(-54.575 -15.516)" fill="#3e9925"/>
      <path id="Trazado_1241595" data-name="Trazado 1241595" d="M21.329,31.523l-5.71-7.84.2-.276L28.915,25.95l-7.586,5.573" transform="translate(-7.331 -10.888)" fill="#5ba547"/>
      <path id="Trazado_1241596" data-name="Trazado 1241596" d="M51.236,44.44a23.692,23.692,0,0,0,2.822-.831,41.1,41.1,0,0,0,9.486-5.734c.846-.678,1.617-1.451,2.421-2.18l5.269.952c.021.064.043.128.064.191-1.112.778-2.2,1.589-3.341,2.328a31.164,31.164,0,0,1-11.665,4.985,43.118,43.118,0,0,1-5.057.289" transform="translate(-23.735 -16.547)" fill="#3e9925"/>
      <path id="Trazado_1241597" data-name="Trazado 1241597" d="M16.387,14.872a42.919,42.919,0,0,1,7.791-4.978l5.546,7.571L16.387,14.872" transform="translate(-7.685 -4.664)" fill="#5ba547"/>
      <path id="Trazado_1241598" data-name="Trazado 1241598" d="M123.247,16.085c-1.073,2.625-2.146,5.251-3.287,8.042-.388-.937-.717-1.729-1.045-2.523-.668-1.617-1.326-3.238-2.011-4.847-.146-.342-.189-.573.136-.853a19.451,19.451,0,0,1,4.986-3.186l1.22,3.368" transform="translate(-53.93 -5.964)" fill="#5ba648"/>
      <path id="Trazado_1241599" data-name="Trazado 1241599" d="M130.393,19.743l3.279-7.984a24.725,24.725,0,0,1,2.4,8.594.938.938,0,0,1-.369.762c-1.743.755-3.512,1.452-5.273,2.165q-.016-1.769-.033-3.538" transform="translate(-60.193 -5.523)" fill="#3e9925"/>
      <path id="Trazado_1241600" data-name="Trazado 1241600" d="M54.121,7.634a3.083,3.083,0,0,1,.647.224,33.914,33.914,0,0,1,9.445,9.224c.595.818,1.132,1.678,1.676,2.532.065.1,0,.284,0,.429-.948-.164-1.9-.311-2.84-.505a1.008,1.008,0,0,1-.524-.4q-4.211-5.747-8.4-11.508" transform="translate(-25.064 -3.623)" fill="#5ba647"/>
      <path id="Trazado_1241601" data-name="Trazado 1241601" d="M125.207,38.5a2.272,2.272,0,0,1-.065.748,13.7,13.7,0,0,1-4.186,5.269c-.032.025-.124-.026-.188-.043.658-1.6,1.31-3.209,1.98-4.808a.72.72,0,0,1,.355-.348c.695-.289,1.4-.548,2.1-.818" transform="translate(-55.76 -17.839)" fill="#5aa546"/>
      <path id="Trazado_1241602" data-name="Trazado 1241602" d="M127.714,14.9l-1.22-3.368,3.082-1.394.136.134-2,4.628" transform="translate(-58.397 -4.774)" fill="#3d9826"/>
      <path id="Trazado_1241603" data-name="Trazado 1241603" d="M128.764,26.559q.016,1.769.033,3.538l-1.94.86,1.907-4.4" transform="translate(-58.564 -12.34)" fill="#59a445"/>
    </g>
  </g>
</svg>
