<svg xmlns="http://www.w3.org/2000/svg" xmlns:xlink="http://www.w3.org/1999/xlink" width="118" height="118" viewBox="0 0 118 118">
  <defs>
    <filter id="Elipse_12115" x="0" y="0" width="118" height="118" filterUnits="userSpaceOnUse">
      <feOffset dy="3" input="SourceAlpha"/>
      <feGaussianBlur stdDeviation="3" result="blur"/>
      <feFlood flood-opacity="0.161"/>
      <feComposite operator="in" in2="blur"/>
      <feComposite in="SourceGraphic"/>
    </filter>
    <clipPath id="clip-path">
      <rect id="Rectángulo_410945" data-name="Rectángulo 410945" width="65.088" height="63.898" fill="none"/>
    </clipPath>
  </defs>
  <g id="Grupo_1187433" data-name="Grupo 1187433" transform="translate(-321.781 -4441)">
    <g id="Grupo_1184522" data-name="Grupo 1184522" transform="translate(-424 595)">
      <g id="Grupo_1181949" data-name="Grupo 1181949" transform="translate(-54 1303)">
        <g transform="matrix(1, 0, 0, 1, 799.78, 2543)" filter="url(#Elipse_12115)">
          <g id="Elipse_12115-2" data-name="Elipse 12115" transform="translate(9 6)" fill="#bfb693" stroke="#857f66" stroke-width="1.5">
            <circle cx="50" cy="50" r="50" stroke="none"/>
            <circle cx="50" cy="50" r="49.25" fill="none"/>
          </g>
        </g>
      </g>
    </g>
    <g id="Grupo_1189615" data-name="Grupo 1189615" transform="translate(348.237 4465.051)">
      <g id="Grupo_1189614" data-name="Grupo 1189614" clip-path="url(#clip-path)">
        <path id="Trazado_1242526" data-name="Trazado 1242526" d="M35.439,19.768a5.217,5.217,0,0,1-.505,8.758,2.355,2.355,0,0,0-1.066,1.635,10.856,10.856,0,0,1-1.9,3.562c-.528.649-.754,1.033-.457,1.832.517,1.389.9,2.829,1.382,4.412l2.23-1.5c-2.164-2.537-2-4.04.5-6.073a1.941,1.941,0,0,0,.613-1.281c.134-2.992,2.082-4.549,4.972-3.88a4.19,4.19,0,0,0,2.724-.126c2.715-1.08,5.915.6,5.6,3.8a1.437,1.437,0,0,0,.431,1.052c2.5,2.216,2.291,4.992-.543,6.874-.055.037-.062.145-.113.275.388,0,.756-.009,1.123,0a3.776,3.776,0,0,1,3.947,3.7,3.3,3.3,0,0,0,.8,1.8,4.092,4.092,0,0,1-.462,6.277,5.229,5.229,0,0,0-.9,1.4l-1.973,3.178A20.43,20.43,0,0,1,55.3,56.9c1.871,1.165,1.486,3.939-.606,5.178A4.841,4.841,0,0,0,60.7,62.7c1.046-.65,2.127-1.6,3.419-.954,1.335.665.9,2.113.916,3.252.04,2.976-.028,5.954-.066,8.93-.024,1.884-.518,2.368-2.4,2.368q-29.984,0-59.969,0c-2.189,0-2.575-.4-2.578-2.624,0-3.361-.044-6.722.016-10.082.034-1.9,1.136-2.707,2.719-1.694,2.935,1.879,5.529,1.842,8.494.024,1.134-.7,2.906-.349,4.487-.487L17,58.1c-.488-.307-1.1-.668-1.69-1.071-.309-.213-.846-.558-.807-.743.335-1.583-1.427-2.285-1.521-3.43-.171-2.087-1.507-3.3-2.574-4.805a2.872,2.872,0,0,1,.9-4.143,2.626,2.626,0,0,0,1.351-2.417,3.447,3.447,0,0,1,4.333-3.355,6.038,6.038,0,0,0,3.44-.1c2.924-1.008,5.276.785,5.441,3.826a1.963,1.963,0,0,0,.487,1.223c1.884,1.791,2.1,3.387.6,5.876l1.82.9a46.207,46.207,0,0,0-3.494-15.527c-4.3,2.668-7.9,1.74-8.65-2.144.193.053.438.05.568.171a12.485,12.485,0,0,1,.879.982c2.445,1.983,4.576,1.979,6.333-.013l.859-.252c3.652,2.265,7.235.463,7.574-3.734a2.291,2.291,0,0,1,1.142-1.5,4.056,4.056,0,0,0,1.98-5.477.745.745,0,0,1,.038-.282c.03-.028.09-.069.084-.084a1.236,1.236,0,0,0-.108-.188l-1.2-1.405-.878-.592-.015.017a11.373,11.373,0,0,1,.059-1.677,10.266,10.266,0,0,1,.513-1.534l.624,2.9.35.246M54.8,63.82l-.3-.3.156.416a6.871,6.871,0,0,0,1.4,1.773c1.428.906,2.93.547,4.362-.162,1.134-.561,2.266-1.125,3.442-1.71-.026-1.277-.482-1.6-1.732-.742a7.27,7.27,0,0,1-7.323.72m8.849,4.669a6.778,6.778,0,0,0-.025-.846c-.113-.754-.253-1.5-.382-2.255l-2.213,1.087c-1.969.839-3.945,1.414-5.936.054-1.267,3.949-3.021,5.425-6.467,5.443-2.346.012-4.7.03-7.036-.107-1.6-.094-3.187-.452-4.78-.692a1.621,1.621,0,0,0-.268-.086l.01.009a4.338,4.338,0,0,1-.411-4.777,1.667,1.667,0,0,0-.3-.1.457.457,0,0,0-.282.02c-2.351,1.571-4.567,1.4-6.915-.18a4.658,4.658,0,0,0-5.454.013c-2.212,1.461-4.516,1.85-6.839.269a5.214,5.214,0,0,0-6.309-.061,5.49,5.49,0,0,1-6.562-.027,17.588,17.588,0,0,0-2.368-1.127v9.444a4.831,4.831,0,0,0,1.531.57q29.83.044,59.66.024a2.477,2.477,0,0,0,.856-.032c.277-.108.705-.374.7-.566-.03-2.027-.133-4.053-.216-6.08M37.383,69.966c.357.2.708.561,1.07.572a109.365,109.365,0,0,0,11.615.175c3.2-.244,4.825-4.16,3.172-6.782-1.719-2.667-4.277-2.815-6.236-.314-.429.548-.624,1.275-1.006,1.868-.137.213-.509.274-.774.4a2.087,2.087,0,0,1-.167-.748,12.683,12.683,0,0,1,.4-1.428l-.4-.226-3.059,4.43a3.473,3.473,0,0,1-.265-.731,1.871,1.871,0,0,1,.107-.554,7.3,7.3,0,0,1,5.017-4.9c.644-.211,1.276-.46,1.914-.692-3.687-.442-9.619,2.532-11.462,5.529-.691,1.123-.958,2.287.08,3.393m12.755-36.1c-.259-.33-.452-.794-.791-.963-.891-.445-.993-1.136-.985-2.018.022-2.33-1.743-3.655-3.9-2.784a5.074,5.074,0,0,1-3.547.16c-1.846-.527-3.526.555-3.451,2.328a3.161,3.161,0,0,1-1.7,3.133c-1.081.685-1.512,1.934-.662,2.82,1.435,1.5,2.609,2.988,2.626,5.147a2.047,2.047,0,0,0,2.532,1.1c.473-.134.765-.906,1.139-1.389l2.065-1.968a27.029,27.029,0,0,1,3.248.274c.866.173,1.337.217,1.4-.883.022-.373.567-.8.966-1.052a2.736,2.736,0,0,0,1.062-3.9M26.548,45.144c-.282-.433-.468-1.073-.866-1.259-1.024-.48-.957-1.275-.958-2.158a2.807,2.807,0,0,0-4.066-2.694,4.434,4.434,0,0,1-3.405.175c-1.845-.568-3.57.536-3.48,2.275A3.281,3.281,0,0,1,12.12,44.64c-1.411,1.014-1.706,2.12-.611,3.139a7.129,7.129,0,0,1,2.539,4.9,2.583,2.583,0,0,0,3.857.584,2.124,2.124,0,0,1,1.487-.435c2.985.965,4.364.189,5.013-2.882a1.879,1.879,0,0,1,.75-1.062c1.567-1.028,1.874-1.771,1.393-3.737M42.6,54.1c1.086,1.242,2.284,1.549,3.467.6a2.219,2.219,0,0,1,2.472-.319,3.042,3.042,0,0,0,4.192-2.7,2.406,2.406,0,0,1,.948-1.51A2.857,2.857,0,0,0,55,46.314c-.266-.377-.45-.9-.813-1.1a1.729,1.729,0,0,1-.935-1.9c.172-2.657-1.732-3.63-3.979-2.951a7.334,7.334,0,0,1-3.89.127,2.522,2.522,0,0,0-3.22,2.645c.214,1.434-.488,1.987-1.4,2.649C39.08,47,38.908,48.26,40.449,49.692c1,.93,2.041,1.64,1.648,3.254-.079.325.323.768.5,1.157M26.837,35.134c.118.424.185.751.3,1.062a46.36,46.36,0,0,1,1.953,24.6,2.194,2.194,0,0,0,.093,1.372c.627,1.083,3.319,1.566,4.938,1.086,1.673-.5,1.3-1.786,1.212-2.924a106.407,106.407,0,0,0-4.083-22.1c-.948-3.171-.929-3.176-4.411-3.094m9.744,26.493c1.4,0,2.724.011,4.045-.006a4.437,4.437,0,0,0,1.328-.141c2.269-.757,4.524-1.557,6.878-2.375-1.1-1.651,1.153-2.14,1.986-3.349a9.99,9.99,0,0,1-2.037-.191,2.658,2.658,0,0,0-2.51.264,2.955,2.955,0,0,1-3.735-.268,13.635,13.635,0,0,1-1.721-2.3c-5.425,3.135-4.937,2.562-4.233,8.37M1.2,63.937a20.785,20.785,0,0,1,3.015,1.357,4.684,4.684,0,0,0,5.53.018,6.117,6.117,0,0,1,7.267.013,4.4,4.4,0,0,0,5.141.144,6.662,6.662,0,0,1,8.031.055,4.362,4.362,0,0,0,4.892-.064c.785-.452,1.629-.8,2.425-1.236s1.586-.924,2.67-1.561a5.212,5.212,0,0,0-4.415.878,5.39,5.39,0,0,1-6.237.122,5.62,5.62,0,0,0-6.8.023,5.354,5.354,0,0,1-6.234-.131,5.314,5.314,0,0,0-6.3-.028,5.56,5.56,0,0,1-3.226.886A18.113,18.113,0,0,1,2.7,62.965c-1.286-.5-1.6-.312-1.5.971m23.8-2.42a8.726,8.726,0,0,0-.382-1.244c-.874-1.766-2.338-3.03-4.254-2.872-.988.081-2.11,1.229-2.733,2.181-.5.768-.8,2.3-.362,2.885a3.426,3.426,0,0,0,2.894.883,29.149,29.149,0,0,0,4.837-1.833M41.19,43.95a4.062,4.062,0,0,1-4.4-1.579l-2.8,1.772,1.493,7.437,3.415-2.08c-1.421-2.7.337-4.12,2.3-5.55M28.761,54.127l-4.006-1.49-2.962,2.29,6.85,1.588c.037-.749.079-1.588.118-2.388m24.157,5.791-.66-.1c.088-1,.176-2.01.277-3.167l-1.2.138.472,2.3-.465.139-1.308-1.644a4.211,4.211,0,0,0,2.808,4.09c.6.124,2.371-1.2,2.567-1.946a5.06,5.06,0,0,1-.883.505,2.195,2.195,0,0,1-.743-.014,4.163,4.163,0,0,1,.232-.815c.077-.151.348-.2.436-.35a2.193,2.193,0,0,0,.446-1.069c-.011-.174-.675-.509-.9-.419a1.676,1.676,0,0,0-.7.908,10.06,10.06,0,0,0-.38,1.441m-11.884-8.2c-1.668-1.522-1.1-1.542-3.994.163-1.588.934-1.681,1.5-.987,3.063l4.981-3.226m-18.826,4.46-.021.2,5.987,3.262c.336-1.762.364-1.847-1.693-2.529a38.945,38.945,0,0,0-4.273-.929m-4.633-1.465L16.252,56.4l1.848.986,2.928-2.715-2.317-.459-.27,1.244-.39.15-.475-.9m11-1.824c.292-1.886.3-1.909-1.926-2.827-.336-.138-.81.06-1.221.1.087.516,0,1.3.3,1.495a17.784,17.784,0,0,0,2.851,1.229M36.151,39.29c-2.58.868-3.247,1.88-2.326,3.523,2.465-1.1,2.577-1.268,2.326-3.523M27.474,61.539l.565-.653-2.286-2.129-.447.45.737,2.205,1.431.127" transform="translate(0 -12.395)" fill="#161615"/>
        <path id="Trazado_1242527" data-name="Trazado 1242527" d="M52.77,40.247c-1.72-1.312-2.718-2.936-2.235-5.2l.209-.627,1.749-1.968.3.889-1.2,1.423a2.465,2.465,0,0,0,.65,3.739l1.438,1.371-.907.369" transform="translate(-37.591 -24.201)" fill="#161615"/>
        <path id="Trazado_1242528" data-name="Trazado 1242528" d="M99.433.146,101.5.81A18.183,18.183,0,0,0,99.3.637,9.633,9.633,0,0,0,97.584,1l-.566.075c-.649.122-1.3.224-1.946.37-.944.214-1.879.451-2.359-.757l.847.163.338.181L97,.186l.569-.169L99.041,0l.391.147" transform="translate(-69.132 0.001)" fill="#161615"/>
        <path id="Trazado_1242529" data-name="Trazado 1242529" d="M66.017,6.058l1.175-1.239.627.4.131.141a5.263,5.263,0,0,0-1.9,3.9l-.881,0V8.685l.591-.454-.484-.41.2-.595c.721-.138,1.026-.47.546-1.168" transform="translate(-48.591 -3.593)" fill="#161615"/>
        <path id="Trazado_1242530" data-name="Trazado 1242530" d="M111.864,2.863a9.65,9.65,0,0,1,1.717-.363,18.234,18.234,0,0,1,2.2.172l.993.811-.267,1.138-.031.027a5.525,5.525,0,0,0-4.614-1.785" transform="translate(-83.413 -1.862)" fill="#161615"/>
        <path id="Trazado_1242531" data-name="Trazado 1242531" d="M66.717,68.788a12.531,12.531,0,0,0-.879-.982c-.13-.121-.376-.118-.568-.171q-.023-1.063-.045-2.126l.127.942.319-.027-.134-2.229.035-.04a5.152,5.152,0,0,1,.662,1.245c.224,1.023.332,2.072.487,3.11a2.113,2.113,0,0,0,0,.278" transform="translate(-48.635 -47.838)" fill="#161615"/>
        <path id="Trazado_1242532" data-name="Trazado 1242532" d="M87.552,2.189c.48,1.209,1.415.972,2.359.758.643-.146,1.3-.248,1.945-.37a4.6,4.6,0,0,1-4.813.528A6.711,6.711,0,0,0,85.792,2.8l1.156-.785.6.176" transform="translate(-63.972 -1.501)" fill="#161615"/>
        <path id="Trazado_1242533" data-name="Trazado 1242533" d="M131.4,12.317a10.269,10.269,0,0,0-.513,1.534,11.3,11.3,0,0,0-.059,1.676,3.967,3.967,0,0,1-.46-1.029c-.161-1.2-.25-2.414-.367-3.623l.03-.027,1.145.563.224.905" transform="translate(-96.94 -8.09)" fill="#161615"/>
        <path id="Trazado_1242534" data-name="Trazado 1242534" d="M80.179,1.627l-1.156.785L77.6,2.5l-.881-.62,1.152-.288a.326.326,0,0,0,.26-.1l2.052.132" transform="translate(-57.203 -1.115)" fill="#161615"/>
        <path id="Trazado_1242535" data-name="Trazado 1242535" d="M58.886,30.71l-.3-.889,1.314-.9L61,29.087l-1.164.784-.223-.177.181.219-.907.8" transform="translate(-43.688 -21.565)" fill="#161615"/>
        <path id="Trazado_1242536" data-name="Trazado 1242536" d="M63.834,64.312q.067,1.114.134,2.229l-.319.027-.127-.942-.033-.082.064-.062a.389.389,0,0,0,.022-.186l-.633-.607.893-.376" transform="translate(-46.933 -47.955)" fill="#161615"/>
        <path id="Trazado_1242537" data-name="Trazado 1242537" d="M64.85,24.136l-1.095-.167.359-1.689.881,0q.041.421.081.843l-.252.942Z" transform="translate(-47.54 -16.613)" fill="#161615"/>
        <path id="Trazado_1242538" data-name="Trazado 1242538" d="M131.269,8.077l-1.144-.563.267-1.138.572.872.253.577a.223.223,0,0,1,.053.252" transform="translate(-97.029 -4.754)" fill="#161615"/>
        <path id="Trazado_1242539" data-name="Trazado 1242539" d="M75.883,3l.881.62-1.033.387L75.6,3.867V3.06L75.883,3" transform="translate(-56.371 -2.238)" fill="#161615"/>
        <path id="Trazado_1242540" data-name="Trazado 1242540" d="M61.4,62.32l-.893.376-.83-.687.907-.368.852.64Z" transform="translate(-44.499 -45.963)" fill="#161615"/>
        <path id="Trazado_1242541" data-name="Trazado 1242541" d="M66.916,9.69c.48.7.175,1.031-.546,1.168l.546-1.168" transform="translate(-49.489 -7.225)" fill="#161615"/>
        <path id="Trazado_1242542" data-name="Trazado 1242542" d="M65.273,16.621l.484.41-.591.454q.053-.432.107-.865" transform="translate(-48.592 -12.394)" fill="#161615"/>
        <path id="Trazado_1242543" data-name="Trazado 1242543" d="M73.762,3.232v.807l-.626-.4.626-.4" transform="translate(-54.535 -2.41)" fill="#161615"/>
        <path id="Trazado_1242544" data-name="Trazado 1242544" d="M51.1,40.194l-.209.627.209-.627" transform="translate(-37.947 -29.971)" fill="#1b1c1b"/>
        <path id="Trazado_1242545" data-name="Trazado 1242545" d="M110.156.072l-.569.169.569-.169" transform="translate(-81.715 -0.054)" fill="#1b1c1b"/>
        <path id="Trazado_1242546" data-name="Trazado 1242546" d="M133.676,10.381l-.253-.577.253.577" transform="translate(-99.488 -7.31)" fill="#1b1c1b"/>
        <path id="Trazado_1242547" data-name="Trazado 1242547" d="M65.24,68.177a.393.393,0,0,1-.022.186l-.043-.1Z" transform="translate(-48.598 -50.837)" fill="#161615"/>
        <path id="Trazado_1242548" data-name="Trazado 1242548" d="M81.506,1.5a.326.326,0,0,1-.26.1l.26-.1" transform="translate(-60.582 -1.115)" fill="#1b1c1b"/>
        <path id="Trazado_1242549" data-name="Trazado 1242549" d="M96.381,3.528l-.338-.181.338.181" transform="translate(-71.615 -2.496)" fill="#1b1c1b"/>
        <path id="Trazado_1242550" data-name="Trazado 1242550" d="M138.308,28.268l-.35-.246.35.246" transform="translate(-102.87 -20.895)" fill="#1b1c1b"/>
        <path id="Trazado_1242551" data-name="Trazado 1242551" d="M117.985.146,117.594,0l.391.147" transform="translate(-87.685 0.001)" fill="#1b1c1b"/>
        <path id="Trazado_1242552" data-name="Trazado 1242552" d="M57.307,19.226l-.852-.64-1.438-1.372c-.471-1.2-1.273-2.347-.65-3.739l1.2-1.423.907-.8.042-.041,1.163-.784-.026-.066q.126-.471.253-.941-.04-.421-.081-.843a5.263,5.263,0,0,1,1.9-3.9l1.034-.387,1.428-.086a6.728,6.728,0,0,1,1.251.307,4.6,4.6,0,0,0,4.814-.528l.566-.075A5.525,5.525,0,0,1,73.435,5.7c.116,1.208.205,2.421.367,3.623a3.965,3.965,0,0,0,.46,1.029l.014-.017.878.592,1.2,1.405a.482.482,0,0,0,.025.272.745.745,0,0,0-.038.283c-2.109.434-3.1,2.078-4.059,3.754-.636.291-1.292.866-1.9.822-2.328-.165-3.265,1.143-3.99,3.071A10.731,10.731,0,0,1,64.5,23.006l-1.158.019-.859-.011-4.028.567c-.155-1.038-.263-2.087-.487-3.11a5.156,5.156,0,0,0-.662-1.245" transform="translate(-40.37 -2.908)" fill="#456f33"/>
        <path id="Trazado_1242553" data-name="Trazado 1242553" d="M4.375,216.779v-9.444a17.575,17.575,0,0,1,2.368,1.127,5.49,5.49,0,0,0,6.562.027,5.214,5.214,0,0,1,6.309.061c2.323,1.58,4.627,1.192,6.839-.269a4.658,4.658,0,0,1,5.454-.013c2.349,1.575,4.565,1.751,6.915.18a.46.46,0,0,1,.282-.02,1.692,1.692,0,0,1,.3.1,4.338,4.338,0,0,0,.411,4.777c-2.027-.2-4.084-.254-6.074-.645-3.609-.71-6.858.44-10.127,1.623-.127.046-.174.309-.259.472-5.334,0-10.668.012-16,0a2.144,2.144,0,0,0-2.45,2.026H4.375" transform="translate(-3.262 -154.601)" fill="#cf6937"/>
        <path id="Trazado_1242554" data-name="Trazado 1242554" d="M158.081,123.095c-.18-.389-.583-.831-.5-1.157.393-1.613-.646-2.323-1.648-3.254-1.541-1.432-1.369-2.691.309-3.906.914-.662,1.616-1.215,1.4-2.649a2.522,2.522,0,0,1,3.22-2.645,7.332,7.332,0,0,0,3.89-.127c2.246-.679,4.151.295,3.978,2.951a1.729,1.729,0,0,0,.935,1.9c.363.195.548.723.813,1.1-.779.684-1.537,1.394-2.343,2.043-.611.492-1.275,1.272-1.931,1.287-1.736.041-2.3,1.082-2.7,2.443a2.378,2.378,0,0,1-2.377,1.707c-1.017.091-2.032.2-3.048.308" transform="translate(-115.48 -81.388)" fill="#456e32"/>
        <path id="Trazado_1242555" data-name="Trazado 1242555" d="M45.839,117.523a7.128,7.128,0,0,0-2.539-4.9c-1.094-1.019-.8-2.124.611-3.139a3.281,3.281,0,0,0,1.654-3.158c-.09-1.739,1.635-2.842,3.48-2.275a4.434,4.434,0,0,0,3.405-.175,2.807,2.807,0,0,1,4.066,2.694c0,.883-.067,1.677.958,2.158.4.186.583.826.865,1.259-.818.7-1.619,1.426-2.46,2.1-.5.4-1.078,1.039-1.609,1.027-1.825-.04-2.553,1-2.956,2.513a2.031,2.031,0,0,1-2.216,1.608c-1.088.017-2.173.184-3.26.285" transform="translate(-31.792 -77.242)" fill="#456e32"/>
        <path id="Trazado_1242556" data-name="Trazado 1242556" d="M145.042,72.3l-2.065,1.968-3.671.292c-.018-2.159-1.191-3.651-2.626-5.147-.85-.886-.419-2.135.662-2.819a3.162,3.162,0,0,0,1.7-3.134c-.074-1.773,1.606-2.855,3.451-2.328a5.072,5.072,0,0,0,3.547-.161c2.158-.87,3.923.454,3.9,2.784-.008.882.094,1.574.985,2.018.339.169.532.633.791.963-.905.946-1.77,1.936-2.734,2.816a2.673,2.673,0,0,1-1.5.661,2.311,2.311,0,0,0-2.442,2.084" transform="translate(-101.582 -45.263)" fill="#456f32"/>
        <path id="Trazado_1242557" data-name="Trazado 1242557" d="M105.515,89.339c3.482-.082,3.463-.077,4.411,3.094a106.394,106.394,0,0,1,4.083,22.1c.091,1.139.461,2.429-1.212,2.924-1.618.479-4.311,0-4.938-1.086a2.193,2.193,0,0,1-.093-1.372,46.36,46.36,0,0,0-1.953-24.6c-.112-.311-.18-.639-.3-1.062" transform="translate(-78.678 -66.601)" fill="#bd4e23"/>
        <path id="Trazado_1242558" data-name="Trazado 1242558" d="M144.956,200.07c-1.037-1.107-.771-2.271-.08-3.393,1.843-3,7.775-5.97,11.462-5.529-.638.232-1.269.482-1.914.692a7.3,7.3,0,0,0-5.017,4.9,1.871,1.871,0,0,0-.107.554,3.476,3.476,0,0,0,.265.731l3.059-4.43.4.226a12.632,12.632,0,0,0-.4,1.428,2.086,2.086,0,0,0,.167.747c.265-.13.637-.192.774-.4.382-.593.577-1.32,1.006-1.868,1.958-2.5,4.517-2.353,6.236.314l-.565,3.432c-.624,0-1.249.028-1.87,0-1.365-.07-2.718-.069-3.68,1.106a2.9,2.9,0,0,1-2.411.953,25.157,25.157,0,0,0-3.283.538l-4.048.01" transform="translate(-107.574 -142.499)" fill="#ffc741"/>
        <path id="Trazado_1242559" data-name="Trazado 1242559" d="M78.99,218.7c.085-.162.133-.426.259-.472,3.269-1.183,6.518-2.333,10.127-1.623,1.99.392,4.047.441,6.074.645l-.01-.009.268.087c1.593.24,3.179.6,4.781.692,2.34.138,4.691.119,7.036.107,3.446-.018,5.2-1.495,6.466-5.443,1.991,1.36,3.968.785,5.937-.054l-.568,2.332c-1.628,2.03-3.462,3.74-6.283,3.742q-17.043.011-34.086,0" transform="translate(-58.9 -158.551)" fill="#cf6937"/>
        <path id="Trazado_1242560" data-name="Trazado 1242560" d="M4.683,198.436c-.1-1.283.211-1.476,1.5-.971a18.111,18.111,0,0,0,4.259,1.446,5.56,5.56,0,0,0,3.226-.886,5.314,5.314,0,0,1,6.3.028,5.353,5.353,0,0,0,6.234.131,5.62,5.62,0,0,1,6.8-.023,5.391,5.391,0,0,0,6.237-.122,5.212,5.212,0,0,1,4.415-.878c-1.084.637-1.864,1.122-2.67,1.561s-1.64.784-2.425,1.236a4.361,4.361,0,0,1-4.892.064,6.662,6.662,0,0,0-8.031-.055,4.4,4.4,0,0,1-5.141-.144,6.117,6.117,0,0,0-7.267-.013,4.684,4.684,0,0,1-5.53-.018,20.8,20.8,0,0,0-3.015-1.357" transform="translate(-3.479 -146.895)" fill="#3d6629"/>
        <path id="Trazado_1242561" data-name="Trazado 1242561" d="M106.006,42.968c.961-1.676,1.95-3.32,4.059-3.754a4.056,4.056,0,0,1-1.98,5.477,2.292,2.292,0,0,0-1.142,1.5c-.339,4.2-3.922,6-7.574,3.734a10.215,10.215,0,0,1,1.029-.82c2.465-1.506,4.794-3.127,5.609-6.138" transform="translate(-74.095 -29.24)" fill="#2d5a21"/>
        <path id="Trazado_1242562" data-name="Trazado 1242562" d="M4.375,226.632H64.749c.288,0,.577-.022.863,0,.755.066,1.015-.285,1-1.016-.032-1.582-.01-3.165-.01-4.747l.306-.323c.083,2.027.186,4.053.216,6.08,0,.192-.426.458-.7.566a2.479,2.479,0,0,1-.857.032q-29.83,0-59.66-.024a4.833,4.833,0,0,1-1.531-.57" transform="translate(-3.262 -164.455)" fill="#e09977"/>
        <path id="Trazado_1242563" data-name="Trazado 1242563" d="M75.031,181.027a29.147,29.147,0,0,1-4.837,1.833,3.425,3.425,0,0,1-2.894-.883c-.434-.584-.14-2.118.362-2.885.623-.953,1.746-2.1,2.733-2.181,1.916-.157,3.38,1.107,4.254,2.872a8.714,8.714,0,0,1,.382,1.244" transform="translate(-50.026 -131.905)" fill="#ffc540"/>
        <path id="Trazado_1242564" data-name="Trazado 1242564" d="M167.494,141.148c1.016-.1,2.031-.217,3.048-.308a2.378,2.378,0,0,0,2.377-1.707c.4-1.361.961-2.4,2.7-2.443.656-.016,1.32-.795,1.931-1.287.806-.65,1.564-1.359,2.343-2.043a2.857,2.857,0,0,1-1.317,3.866,2.408,2.408,0,0,0-.949,1.511,3.042,3.042,0,0,1-4.192,2.7,2.219,2.219,0,0,0-2.472.319c-1.183.946-2.381.639-3.467-.6" transform="translate(-124.894 -99.441)" fill="#2d5921"/>
        <path id="Trazado_1242565" data-name="Trazado 1242565" d="M55.229,136.292c1.087-.1,2.172-.268,3.26-.285A2.031,2.031,0,0,0,60.7,134.4c.4-1.511,1.131-2.553,2.956-2.513.531.012,1.105-.624,1.609-1.027.841-.673,1.642-1.4,2.46-2.1.481,1.966.174,2.709-1.393,3.737a1.878,1.878,0,0,0-.75,1.062c-.649,3.071-2.028,3.847-5.013,2.882a2.122,2.122,0,0,0-1.487.435,2.583,2.583,0,0,1-3.857-.584" transform="translate(-41.182 -96.01)" fill="#2d5921"/>
        <path id="Trazado_1242566" data-name="Trazado 1242566" d="M102.662,53.972c-.815,3.011-3.144,4.632-5.609,6.138a10.215,10.215,0,0,0-1.029.821l-.859.252-.282-.84a10.739,10.739,0,0,0,1.884-2.476c.725-1.929,1.662-3.237,3.99-3.071.612.043,1.269-.531,1.9-.822" transform="translate(-70.751 -40.245)" fill="#2c5721"/>
        <path id="Trazado_1242567" data-name="Trazado 1242567" d="M146.979,208.663l4.048-.01c2.4,0,4.792.038,7.187,0a4.065,4.065,0,0,0,4.057-2.59l.565-3.432c1.653,2.622.031,6.538-3.172,6.782a109.3,109.3,0,0,1-11.615-.175c-.362-.011-.714-.373-1.07-.572" transform="translate(-109.596 -151.092)" fill="#e4ab2d"/>
        <path id="Trazado_1242568" data-name="Trazado 1242568" d="M170.875,89.992a2.311,2.311,0,0,1,2.442-2.084,2.673,2.673,0,0,0,1.5-.661c.964-.881,1.829-1.87,2.734-2.816a2.736,2.736,0,0,1-1.061,3.9c-.4.256-.944.679-.966,1.052-.065,1.1-.536,1.055-1.4.883a26.928,26.928,0,0,0-3.249-.274" transform="translate(-127.415 -62.957)" fill="#2d5921"/>
        <path id="Trazado_1242569" data-name="Trazado 1242569" d="M215.02,198.672a7.262,7.262,0,0,0,7.321-.718c1.249-.859,1.705-.535,1.732.742-1.176.584-2.308,1.149-3.442,1.71-1.432.709-2.934,1.068-4.362.162a6.871,6.871,0,0,1-1.4-1.773c.049-.042.1-.083.15-.123" transform="translate(-160.22 -147.249)" fill="#3d6629"/>
        <path id="Trazado_1242570" data-name="Trazado 1242570" d="M199.568,177.27a10.042,10.042,0,0,1,.38-1.441,1.677,1.677,0,0,1,.7-.908c.229-.091.893.244.9.419a2.192,2.192,0,0,1-.446,1.069c-.088.151-.359.2-.436.35a4.135,4.135,0,0,0-.232.815,2.194,2.194,0,0,0,.743.014,5.055,5.055,0,0,0,.883-.505c-.2.747-1.966,2.07-2.568,1.946a4.212,4.212,0,0,1-2.808-4.09l1.308,1.644.465-.139-.472-2.3,1.2-.138c-.1,1.157-.189,2.162-.277,3.167l.66.1" transform="translate(-146.651 -129.746)" fill="#f8bd3d"/>
        <path id="Trazado_1242571" data-name="Trazado 1242571" d="M145.525,151.282l-4.981,3.226c-.694-1.562-.6-2.129.987-3.063,2.9-1.7,2.325-1.684,3.994-.163" transform="translate(-104.491 -111.963)" fill="#a63d1a"/>
        <path id="Trazado_1242572" data-name="Trazado 1242572" d="M77.137,79.017l.282.84c-1.756,1.992-3.888,2-6.333.013a2.07,2.07,0,0,1,.005-.278l4.029-.567.491.784.368-.772,1.158-.019" transform="translate(-53.004 -58.92)" fill="#2d5a21"/>
        <path id="Trazado_1242573" data-name="Trazado 1242573" d="M240.9,211.459l-.306.322-2.881,0,.568-2.332,2.213-1.087c.129.751.269,1.5.382,2.255a6.828,6.828,0,0,1,.025.846" transform="translate(-177.25 -155.364)" fill="#bd5726"/>
        <path id="Trazado_1242574" data-name="Trazado 1242574" d="M87.252,172.125a38.922,38.922,0,0,1,4.273.929c2.057.682,2.029.767,1.693,2.529l-5.987-3.262.021-.2" transform="translate(-65.045 -128.347)" fill="#f5bb3e"/>
        <path id="Trazado_1242575" data-name="Trazado 1242575" d="M65.219,164.922l.475.9.39-.15.27-1.244,2.317.459L65.744,167.6l-1.848-.986,1.323-1.694" transform="translate(-47.645 -122.608)" fill="#f5bb3e"/>
        <path id="Trazado_1242576" data-name="Trazado 1242576" d="M103.137,150.766a17.816,17.816,0,0,1-2.851-1.23c-.3-.19-.208-.979-.3-1.495.411-.043.885-.241,1.221-.1,2.228.918,2.218.941,1.926,2.827" transform="translate(-74.559 -110.276)" fill="#a83e1b"/>
        <path id="Trazado_1242577" data-name="Trazado 1242577" d="M134.165,105.745c.25,2.255.138,2.425-2.326,3.523-.921-1.644-.253-2.655,2.326-3.523" transform="translate(-98.014 -78.85)" fill="#a63d1a"/>
        <path id="Trazado_1242578" data-name="Trazado 1242578" d="M148.321,114.328l3.671-.292c-.374.483-.667,1.255-1.14,1.389a2.047,2.047,0,0,1-2.532-1.1" transform="translate(-110.597 -85.032)" fill="#2d5921"/>
        <path id="Trazado_1242579" data-name="Trazado 1242579" d="M101.663,185.062l-1.431-.127L99.5,182.73l.447-.45,2.286,2.129-.565.653" transform="translate(-74.189 -135.919)" fill="#edb53c"/>
        <path id="Trazado_1242580" data-name="Trazado 1242580" d="M134.191,29.772l-.878-.592.878.592" transform="translate(-99.406 -21.758)" fill="#1b1c1b"/>
        <path id="Trazado_1242581" data-name="Trazado 1242581" d="M214.413,201.446l-.155-.416q.151.148.3.295c-.05.039-.1.08-.149.122" transform="translate(-159.764 -149.9)" fill="#3d6629"/>
        <path id="Trazado_1242582" data-name="Trazado 1242582" d="M141.476,37.3a.482.482,0,0,1-.025-.273,1.242,1.242,0,0,1,.109.188c.006.015-.054.055-.084.084" transform="translate(-105.467 -27.613)" fill="#1b1c1b"/>
        <path id="Trazado_1242583" data-name="Trazado 1242583" d="M143.932,230.852l-.268-.087a1.622,1.622,0,0,1,.268.087" transform="translate(-107.125 -172.072)" fill="#f58a33"/>
        <path id="Trazado_1242584" data-name="Trazado 1242584" d="M53.274,41.546c-.623,1.392.179,2.537.65,3.739a2.465,2.465,0,0,1-.65-3.739" transform="translate(-39.276 -30.979)" fill="#161615"/>
        <path id="Trazado_1242585" data-name="Trazado 1242585" d="M62.786,32.177l-.181-.219.223.177-.041.042" transform="translate(-46.682 -23.83)" fill="#191713"/>
        <path id="Trazado_1242586" data-name="Trazado 1242586" d="M68.206,25.612q-.127.47-.253.941.127-.47.253-.941" transform="translate(-50.67 -19.098)" fill="#1b1c1b"/>
        <path id="Trazado_1242587" data-name="Trazado 1242587" d="M87.811,79.058l-.368.772-.491-.784.859.011" transform="translate(-64.837 -58.942)" fill="#2c5721"/>
        <path id="Trazado_1242588" data-name="Trazado 1242588" d="M65.263,221.8l2.881,0c0,1.583-.022,3.165.01,4.747.014.731-.245,1.082-1,1.016-.285-.025-.575,0-.863,0H6.443a2.144,2.144,0,0,1,2.451-2.026c5.334.013,10.668,0,16,0q17.043,0,34.086,0c2.821,0,4.654-1.712,6.282-3.742" transform="translate(-4.804 -165.389)" fill="#bd5726"/>
        <path id="Trazado_1242589" data-name="Trazado 1242589" d="M174.138,216.037a4.065,4.065,0,0,1-4.057,2.59c-2.4.041-4.791.006-7.187,0a25.166,25.166,0,0,1,3.283-.538,2.9,2.9,0,0,0,2.412-.953c.962-1.175,2.316-1.176,3.68-1.106.622.032,1.247,0,1.87,0" transform="translate(-121.463 -161.069)" fill="#ffc232"/>
      </g>
    </g>
  </g>
</svg>
