<svg xmlns="http://www.w3.org/2000/svg" xmlns:xlink="http://www.w3.org/1999/xlink" width="85" height="85" viewBox="0 0 85 85">
  <defs>
    <clipPath id="clip-path">
      <rect id="Rectángulo_411054" data-name="Rectángulo 411054" width="58.263" height="41.224" fill="none"/>
    </clipPath>
  </defs>
  <g id="Grupo_1190077" data-name="Grupo 1190077" transform="translate(-419 -1121)">
    <path id="Trazado_824488" data-name="Trazado 824488" d="M42.5,0A42.5,42.5,0,1,1,0,42.5,42.5,42.5,0,0,1,42.5,0Z" transform="translate(419 1121)" fill="#e5e2d3"/>
    <g id="Grupo_1190078" data-name="Grupo 1190078" transform="translate(432.368 1142.888)">
      <g id="Grupo_1190073" data-name="Grupo 1190073" clip-path="url(#clip-path)">
        <path id="Trazado_1243059" data-name="Trazado 1243059" d="M6.142,40.317c-.286.794-.417.886-1.267.887-.773,0-1.549-.044-2.318.01A2.329,2.329,0,0,1,0,39.727V10.476A2.311,2.311,0,0,1,2.511,8.982c1.3.066,2.61.015,3.946.015V7.013a4.586,4.586,0,0,1-3.7-.952,4.487,4.487,0,0,1-1.475-4.7C1.554.445,2.118.078,3.389.016A4.5,4.5,0,0,1,7.345,1.872,4.533,4.533,0,0,1,11.194.014,3.763,3.763,0,0,1,11.81.1C13.1.361,13.425.721,13.54,2.02A4.443,4.443,0,0,1,8.778,7.058c-.17-.005-.34-.02-.541-.032v1.94h12.8V7.109a13.291,13.291,0,0,1-2.024-.2A4.45,4.45,0,0,1,15.9,1.369c.283-.942.8-1.288,2.081-1.353a4.51,4.51,0,0,1,3.968,1.857A4.633,4.633,0,0,1,24.888.064a4.11,4.11,0,0,1,2.437.31,1.222,1.222,0,0,1,.543.608,4.451,4.451,0,0,1-4.021,6.08c-.317,0-.634,0-.98,0v1.9H35.658V7.1a14.592,14.592,0,0,1-1.909-.171,4.478,4.478,0,0,1-3.218-5.718C30.875.141,31.785.094,32.631.029a4.408,4.408,0,0,1,3.926,1.838,4.67,4.67,0,0,1,2.919-1.8,4.056,4.056,0,0,1,2.439.3c.776.362.8,1.166.85,1.858a4.429,4.429,0,0,1-4.584,4.838c-.238,0-.475,0-.73,0V9h3.388c1,0,1.033.02,1.379.878-.172.663-.61.845-1.272.844Q21.773,10.7,2.6,10.709c-.152,0-.335-.054-.448.013-.174.1-.409.277-.426.441a15.544,15.544,0,0,0-.021,1.591v2.964H52.289c.17,0,.34-.013.51-.02h3.755c0-1.554.013-3.062-.021-4.569,0-.143-.291-.395-.452-.4-1.094-.029-2.19-.005-3.285,0-2.383-.007-4.766-.032-7.149-.01-.66.006-1.1-.181-1.268-.845.264-.781.4-.877,1.226-.878h4.65V7.014a4.474,4.474,0,0,1-4.443-1.754,4.349,4.349,0,0,1-.722-3.875c.237-.941.845-1.315,2.135-1.372A4.533,4.533,0,0,1,51.157,1.87a4.656,4.656,0,0,1,2.916-1.8,4.191,4.191,0,0,1,2.442.293c.7.308.736,1.013.828,1.634a4.5,4.5,0,0,1-5.285,5.028V8.968c.136.009.3.028.461.028,1.233,0,2.465,0,3.7,0a1.958,1.958,0,0,1,2.046,2.027q0,14.084,0,28.167A1.98,1.98,0,0,1,56.3,41.2c-.114,0-.228,0-.341,0H9.591c-.872,0-1.027-.108-1.281-.887a1.014,1.014,0,0,1,1.214-.835c.433.037.874-.023,1.307.016a.647.647,0,0,0,.777-.508,3.759,3.759,0,0,1,3.25-2.562c2.107-.236,3.612.825,4.424,3.039H38.646a4.381,4.381,0,0,1,1.545-2.286,4,4,0,0,1,6.175,1.858c.1.256.145.466.516.461,1.971-.029,3.942-.025,5.914-.032,1.04.008,2.081,0,3.121.03.5.016.653-.179.648-.667-.021-2.082-.008-4.164-.01-6.247,0-.144-.026-.287-.04-.438H52.8c-.094-.008-.188-.024-.282-.024q-6.965,0-13.93,0c-.129,0-.258.02-.377.03-.678,2.2-2.092,3.37-4.038,3.362-1.9-.007-3.314-1.2-3.975-3.359H13.014a4.144,4.144,0,0,1-3.819,3.362,4.065,4.065,0,0,1-4.091-3.1c-.023-.112-.178-.278-.274-.28-1.034-.02-2.068-.013-3.122-.013,0,2.337.006,4.593-.005,6.848,0,.409.185.527.555.523.891-.01,1.783.028,2.672-.014a1.034,1.034,0,0,1,1.213.839M52.8,23.805c-.608-.755-.673-.77-1.155-.266A7.054,7.054,0,0,1,41.1,23.529c-.371-.392-.6-.358-.96.018a7.064,7.064,0,0,1-10.513.019c-.456-.479-.534-.485-.984,0A7.056,7.056,0,0,1,25.683,25.5c-.784.265-1.114.112-1.45-.664.1-.544.473-.769.947-1.013a9.572,9.572,0,0,0,2.195-1.46c1.217-1.147,2.331-1.2,3.489.007a5.378,5.378,0,0,0,8.014.014,2.118,2.118,0,0,1,3.473-.02,5.354,5.354,0,0,0,8.046-.023,2.327,2.327,0,0,1,2.4-.764c.395.314.814.6,1.18.946a5.325,5.325,0,0,0,2.536,1.44v-6.5h-3.72c-.17-.008-.34-.024-.51-.024H1.707V23.98a5.394,5.394,0,0,0,2.761-1.658,2.082,2.082,0,0,1,3.348-.02,5.384,5.384,0,0,0,8.17-.013,2.136,2.136,0,0,1,3.329-.008,10.7,10.7,0,0,0,2.006,1.448,1.165,1.165,0,0,1,.726,1.04c-.389.744-.738.928-1.443.522a17.348,17.348,0,0,1-2.4-1.678c-.606-.5-.567-.554-1.117.011a6.962,6.962,0,0,1-6.618,2.107A6.774,6.774,0,0,1,6.6,23.519c-.263-.292-.505-.459-.835-.084a7.23,7.23,0,0,1-4.026,2.332V30.4H52.29c.17,0,.34-.013.51-.021h3.727V25.758A7.529,7.529,0,0,1,52.8,23.805M21.052,4.5a2.782,2.782,0,0,0-2.7-2.783c-.695-.012-.935.226-.922.914A2.8,2.8,0,0,0,20.2,5.355c.746,0,.85-.106.852-.853m34.6-1.838c.007-.836-.1-.953-.876-.942a2.783,2.783,0,0,0-2.7,3.069c.046.433.259.528.612.56a2.758,2.758,0,0,0,2.961-2.687M2.845,2.605A2.786,2.786,0,0,0,5.858,5.353a.567.567,0,0,0,.588-.534,2.818,2.818,0,0,0-2.718-3.1c-.751-.008-.883.125-.883.886m23.509-.733a2.7,2.7,0,0,0-3.486,2.715c.012.654.1.753.765.765a2.747,2.747,0,0,0,2.722-3.48m20.3.707a2.783,2.783,0,0,0,2.987,2.776.588.588,0,0,0,.619-.566,2.825,2.825,0,0,0-2.755-3.071c-.725,0-.848.128-.851.861m-34.812.053c0-.8-.1-.911-.85-.911a2.8,2.8,0,0,0-2.74,2.93c.03.572.3.693.774.7a2.749,2.749,0,0,0,2.816-2.723m29.234-.009c0-.66-.137-.84-.705-.9A2.825,2.825,0,0,0,37.45,4.741a.615.615,0,0,0,.643.615,2.811,2.811,0,0,0,2.983-2.732M35.644,4.5a2.749,2.749,0,0,0-2.865-2.767c-.267.022-.618-.041-.694.4a2.773,2.773,0,0,0,2.674,3.221c.788.006.882-.085.886-.856M32.1,32.149A2.112,2.112,0,0,0,34.19,33.8a2.163,2.163,0,0,0,2.136-1.649Zm-20.971.009H6.86a2.269,2.269,0,0,0,2.286,1.634,2.1,2.1,0,0,0,1.98-1.634m33.466,7.3a2.032,2.032,0,0,0-2.082-1.34,2,2,0,0,0-1.923,1.34Zm-27.186.007a2.207,2.207,0,0,0-2.336-1.338,1.981,1.981,0,0,0-1.721,1.338Z" transform="translate(0 0)" fill="#090808"/>
        <path id="Trazado_1243060" data-name="Trazado 1243060" d="M15.637,219.518a1.034,1.034,0,0,0-1.213-.839c-.889.042-1.781,0-2.672.014-.37,0-.557-.114-.555-.523.011-2.255.005-4.51.005-6.848,1.055,0,2.089-.008,3.122.013.1,0,.251.168.274.28a4.065,4.065,0,0,0,4.091,3.1,4.144,4.144,0,0,0,3.82-3.362H39.689c.661,2.164,2.072,3.351,3.974,3.359,1.945.008,3.36-1.163,4.038-3.362.119-.01.248-.03.377-.03q6.965,0,13.93,0c.094,0,.188.016.282.024l-.012,2.279c-.1-.091-.189-.183-.285-.273a2.475,2.475,0,0,0-3.609,3.374,2.5,2.5,0,0,0,3.8.038q.054.951.108,1.9c-1.971.007-3.943,0-5.914.032-.37.005-.419-.205-.516-.461a4,4,0,0,0-6.175-1.858,4.379,4.379,0,0,0-1.546,2.286H28.777c-.812-2.214-2.317-3.274-4.424-3.039a3.759,3.759,0,0,0-3.25,2.562.647.647,0,0,1-.777.508c-.433-.039-.874.022-1.307-.016a1.014,1.014,0,0,0-1.214.835H15.637m17.645-6.848a2.476,2.476,0,1,0,2.5,2.483,2.5,2.5,0,0,0-2.5-2.483" transform="translate(-9.495 -179.201)" fill="#f29556"/>
        <path id="Trazado_1243061" data-name="Trazado 1243061" d="M53.848,64.969c.169.664.608.851,1.268.845,2.383-.022,4.766,0,7.149.01l0,4.967c-.17.007-.34.02-.511.02H11.175V67.847a15.545,15.545,0,0,1,.02-1.591c.017-.164.252-.337.426-.44.112-.067.3-.013.448-.013q19.171,0,38.343.011c.662,0,1.1-.182,1.272-.844h2.163" transform="translate(-9.467 -55.094)" fill="#f49657"/>
        <path id="Trazado_1243062" data-name="Trazado 1243062" d="M31.573,122.058a1.165,1.165,0,0,0-.726-1.041,10.7,10.7,0,0,1-2.007-1.448,2.136,2.136,0,0,0-3.328.007,5.384,5.384,0,0,1-8.17.013,2.082,2.082,0,0,0-3.348.02,5.4,5.4,0,0,1-2.761,1.658v-6.543H61.808c.17,0,.34.016.51.024q0,2.058,0,4.116a2.326,2.326,0,0,0-2.4.764,5.354,5.354,0,0,1-8.046.023,2.119,2.119,0,0,0-3.473.02,5.378,5.378,0,0,1-8.014-.014c-1.158-1.2-2.271-1.155-3.489-.008a9.569,9.569,0,0,1-2.195,1.46c-.474.244-.848.469-.947,1.013l-2.185-.066m1.25-3.375a6.806,6.806,0,0,0,.87-.045.82.82,0,0,0,.748-.858.761.761,0,0,0-.7-.827,8.316,8.316,0,0,0-1.691.011.745.745,0,0,0-.668.8.792.792,0,0,0,.675.855,5.473,5.473,0,0,0,.767.068m11.583.014a7.385,7.385,0,0,0,.9-.1.7.7,0,0,0,.608-.824c-.067-.3-.345-.724-.589-.769a5.107,5.107,0,0,0-1.843,0c-.243.046-.518.474-.584.772a.7.7,0,0,0,.61.822,7.553,7.553,0,0,0,.9.1m-23.013-.006c0-.014,0-.029,0-.043a4.9,4.9,0,0,0,.792-.008.818.818,0,0,0,.763-.844.781.781,0,0,0-.74-.855,7.643,7.643,0,0,0-1.636.017.762.762,0,0,0-.685.841.789.789,0,0,0,.662.809,6.3,6.3,0,0,0,.842.082m34.507,0a6.463,6.463,0,0,0,.874-.088.785.785,0,0,0,.652-.817.735.735,0,0,0-.643-.813,8.463,8.463,0,0,0-1.8.006.727.727,0,0,0-.621.827.782.782,0,0,0,.665.8,7.521,7.521,0,0,0,.871.08" transform="translate(-9.526 -97.288)" fill="#bc5746"/>
        <path id="Trazado_1243063" data-name="Trazado 1243063" d="M31.776,154.177l2.185.066c.337.777.666.929,1.45.665a7.055,7.055,0,0,0,2.956-1.935c.45-.486.528-.48.984,0a7.064,7.064,0,0,0,10.513-.019c.356-.376.589-.41.96-.018a7.054,7.054,0,0,0,10.548.011c.482-.5.547-.489,1.156.266q0,1.645,0,3.29c-.473.01-.946.009-1.418.034a.874.874,0,1,0,0,1.737c.472.022.945.026,1.418.037q0,.738,0,1.476c-.17.007-.34.021-.51.021H11.473v-4.634a7.23,7.23,0,0,0,4.026-2.332c.33-.376.572-.208.835.084a6.774,6.774,0,0,0,3.867,2.213,6.961,6.961,0,0,0,6.617-2.107c.55-.565.512-.513,1.118-.011a17.336,17.336,0,0,0,2.4,1.678c.705.406,1.055.222,1.443-.522m-4.449,4.078s0-.006,0-.009a7.916,7.916,0,0,0,1.014-.009.78.78,0,0,0,.718-.811.745.745,0,0,0-.679-.836,12.624,12.624,0,0,0-2.025,0,.743.743,0,0,0-.689.827.794.794,0,0,0,.757.834,7.085,7.085,0,0,0,.9.007m11.517-.007c0,.015,0,.029,0,.044a9.335,9.335,0,0,0,1.013-.059.78.78,0,0,0,.7-.826.726.726,0,0,0-.643-.8,12.862,12.862,0,0,0-2.079-.009.739.739,0,0,0-.671.84.782.782,0,0,0,.723.806,7.342,7.342,0,0,0,.958.008m11.512-1.731a8.805,8.805,0,0,0-.992.059.785.785,0,0,0-.7.824.773.773,0,0,0,.746.841,13.607,13.607,0,0,0,1.917,0,.76.76,0,0,0,.728-.8.792.792,0,0,0-.716-.869,8.292,8.292,0,0,0-.979-.055m-34.531,1.737v-.006a8.087,8.087,0,0,0,1.014-.008.784.784,0,0,0,.723-.808.746.746,0,0,0-.675-.839,12.647,12.647,0,0,0-2.025-.007.743.743,0,0,0-.691.823.789.789,0,0,0,.751.837,7,7,0,0,0,.9.007m28.407-1.707a.851.851,0,0,0-.857.865.841.841,0,0,0,.81.851.859.859,0,1,0,.048-1.717m-22.145.906a.885.885,0,0,0-.83-.9.86.86,0,0,0-.878.787.847.847,0,0,0,.788.925.874.874,0,0,0,.92-.808m11.5-.02a.886.886,0,0,0-.852-.884.855.855,0,0,0-.858.806.845.845,0,0,0,.809.908.881.881,0,0,0,.9-.83m22.138-.886a.848.848,0,0,0-.85.87.834.834,0,0,0,.811.847.888.888,0,0,0,.9-.836.9.9,0,0,0-.86-.881" transform="translate(-9.729 -129.407)" fill="#f7bfb1"/>
        <path id="Trazado_1243064" data-name="Trazado 1243064" d="M346.741,213.762q.006-1.14.012-2.279h3.719c.014.151.04.295.04.438,0,2.082-.01,4.165.01,6.247,0,.488-.145.683-.648.667-1.039-.033-2.08-.023-3.121-.03l-.109-1.9a2.6,2.6,0,0,0,.1-3.14" transform="translate(-293.958 -179.339)" fill="#e28543"/>
        <path id="Trazado_1243065" data-name="Trazado 1243065" d="M347.337,119.007q0-2.058,0-4.116h3.72v6.5a5.324,5.324,0,0,1-2.536-1.44c-.366-.345-.785-.632-1.18-.946" transform="translate(-294.541 -97.428)" fill="#a5473a"/>
        <path id="Trazado_1243066" data-name="Trazado 1243066" d="M347.368,75.474q0-2.483,0-4.967c1.1-.007,2.191-.031,3.285,0,.161,0,.448.257.452.4.033,1.507.021,3.016.021,4.569Z" transform="translate(-294.569 -59.778)" fill="#e68743"/>
        <path id="Trazado_1243067" data-name="Trazado 1243067" d="M347.38,159.91q0-1.645,0-3.29a7.528,7.528,0,0,0,3.728,1.953v4.622h-3.727l0-1.476c.514-.073.964-.233,1.018-.848.046-.52-.27-.808-1.02-.96" transform="translate(-294.578 -132.815)" fill="#f29c8d"/>
        <path id="Trazado_1243068" data-name="Trazado 1243068" d="M118.27,14.086c0,.747-.106.851-.852.853a2.8,2.8,0,0,1-2.775-2.722c-.013-.688.227-.926.922-.914a2.782,2.782,0,0,1,2.705,2.783" transform="translate(-97.218 -9.584)" fill="#9eb91c"/>
        <path id="Trazado_1243069" data-name="Trazado 1243069" d="M346.131,12.269a2.758,2.758,0,0,1-2.961,2.687c-.352-.033-.566-.127-.611-.56a2.783,2.783,0,0,1,2.7-3.069c.774-.012.883.106.876.942" transform="translate(-290.478 -9.605)" fill="#92b51f"/>
        <path id="Trazado_1243070" data-name="Trazado 1243070" d="M18.715,12.194c0-.762.132-.894.883-.886a2.818,2.818,0,0,1,2.718,3.1.567.567,0,0,1-.588.534,2.786,2.786,0,0,1-3.013-2.748" transform="translate(-15.87 -9.588)" fill="#9eb91c"/>
        <path id="Trazado_1243071" data-name="Trazado 1243071" d="M153.933,11.689a2.747,2.747,0,0,1-2.722,3.48c-.66-.012-.753-.111-.764-.765a2.7,2.7,0,0,1,3.486-2.715" transform="translate(-127.58 -9.817)" fill="#92b41f"/>
        <path id="Trazado_1243072" data-name="Trazado 1243072" d="M306.955,12.167c0-.733.126-.858.851-.861a2.825,2.825,0,0,1,2.755,3.071.588.588,0,0,1-.619.566,2.783,2.783,0,0,1-2.986-2.776" transform="translate(-260.3 -9.587)" fill="#9eb91c"/>
        <path id="Trazado_1243073" data-name="Trazado 1243073" d="M57.869,12.24a2.749,2.749,0,0,1-2.816,2.723c-.473-.012-.744-.132-.774-.7a2.8,2.8,0,0,1,2.74-2.93c.75,0,.853.111.85.911" transform="translate(-46.026 -9.607)" fill="#93b51f"/>
        <path id="Trazado_1243074" data-name="Trazado 1243074" d="M249.916,12.211a2.811,2.811,0,0,1-2.984,2.732.614.614,0,0,1-.643-.615,2.825,2.825,0,0,1,2.922-3.013c.568.055.71.235.705.9" transform="translate(-208.839 -9.587)" fill="#92b41e"/>
        <path id="Trazado_1243075" data-name="Trazado 1243075" d="M214.437,14.11c0,.772-.1.863-.885.856a2.773,2.773,0,0,1-2.674-3.221c.076-.444.427-.38.694-.4a2.749,2.749,0,0,1,2.865,2.767" transform="translate(-178.793 -9.612)" fill="#9fba1c"/>
        <path id="Trazado_1243076" data-name="Trazado 1243076" d="M211.175,211.518H215.4a2.163,2.163,0,0,1-2.136,1.649,2.112,2.112,0,0,1-2.093-1.649" transform="translate(-179.078 -179.369)" fill="#c9713f"/>
        <path id="Trazado_1243077" data-name="Trazado 1243077" d="M49.4,211.58a2.1,2.1,0,0,1-1.98,1.634,2.269,2.269,0,0,1-2.286-1.634Z" transform="translate(-38.274 -179.421)" fill="#c9713f"/>
        <path id="Trazado_1243078" data-name="Trazado 1243078" d="M271.032,252.122h-4.005a2,2,0,0,1,1.923-1.34,2.032,2.032,0,0,1,2.082,1.34" transform="translate(-226.441 -212.665)" fill="#cb7240"/>
        <path id="Trazado_1243079" data-name="Trazado 1243079" d="M91.88,252.121H87.823a1.981,1.981,0,0,1,1.721-1.338,2.207,2.207,0,0,1,2.336,1.338" transform="translate(-74.474 -212.656)" fill="#cb7240"/>
        <path id="Trazado_1243080" data-name="Trazado 1243080" d="M142.741,220.2a2.476,2.476,0,1,1,.036,4.953,2.477,2.477,0,1,1-.036-4.953m.036,3.2a.741.741,0,0,0,.738-.759.78.78,0,0,0-.8-.719.74.74,0,0,0,.058,1.478" transform="translate(-118.954 -186.731)" fill="#0e0a06"/>
        <path id="Trazado_1243081" data-name="Trazado 1243081" d="M322.39,221.136a2.6,2.6,0,0,1-.1,3.14,2.482,2.482,0,1,1-3.582-3.427,2.461,2.461,0,0,1,3.391.015c.1.09.19.182.285.273m-1.237,1.516a.8.8,0,0,0-.77-.753.737.737,0,0,0-.715.784.669.669,0,0,0,.72.7.732.732,0,0,0,.765-.731" transform="translate(-269.607 -186.713)" fill="#0d0906"/>
        <path id="Trazado_1243082" data-name="Trazado 1243082" d="M145.231,130.9a5.467,5.467,0,0,1-.767-.068.792.792,0,0,1-.675-.855.745.745,0,0,1,.668-.8,8.305,8.305,0,0,1,1.691-.01.76.76,0,0,1,.7.827.82.82,0,0,1-.748.858,6.777,6.777,0,0,1-.87.045" transform="translate(-121.933 -109.504)" fill="#160b08"/>
        <path id="Trazado_1243083" data-name="Trazado 1243083" d="M220.958,130.952a7.529,7.529,0,0,1-.9-.1.7.7,0,0,1-.61-.822c.067-.3.342-.726.584-.772a5.1,5.1,0,0,1,1.843,0c.244.046.521.472.589.769a.7.7,0,0,1-.608.824,7.414,7.414,0,0,1-.9.1" transform="translate(-186.078 -109.542)" fill="#160b08"/>
        <path id="Trazado_1243084" data-name="Trazado 1243084" d="M69.684,130.854a6.305,6.305,0,0,1-.842-.082.789.789,0,0,1-.662-.81.762.762,0,0,1,.685-.841A7.655,7.655,0,0,1,70.5,129.1a.781.781,0,0,1,.74.855.818.818,0,0,1-.763.844,4.881,4.881,0,0,1-.792.008c0,.014,0,.029,0,.043" transform="translate(-57.816 -109.451)" fill="#160b08"/>
        <path id="Trazado_1243085" data-name="Trazado 1243085" d="M296.535,130.991a7.531,7.531,0,0,1-.871-.08.782.782,0,0,1-.665-.8.727.727,0,0,1,.621-.827,8.46,8.46,0,0,1,1.8-.006.735.735,0,0,1,.643.813.784.784,0,0,1-.652.817,6.464,6.464,0,0,1-.874.088" transform="translate(-250.161 -109.587)" fill="#160b08"/>
        <path id="Trazado_1243086" data-name="Trazado 1243086" d="M106.524,180.28a7.087,7.087,0,0,1-.9-.007.794.794,0,0,1-.757-.834.744.744,0,0,1,.689-.827,12.642,12.642,0,0,1,2.025,0,.746.746,0,0,1,.679.836.78.78,0,0,1-.718.81,7.889,7.889,0,0,1-1.014.008v.009" transform="translate(-88.926 -151.431)" fill="#171210"/>
        <path id="Trazado_1243087" data-name="Trazado 1243087" d="M182.178,180.312a7.342,7.342,0,0,1-.958-.008.782.782,0,0,1-.723-.806.739.739,0,0,1,.671-.84,12.863,12.863,0,0,1,2.079.009.726.726,0,0,1,.643.8.78.78,0,0,1-.7.826,9.3,9.3,0,0,1-1.013.059c0-.015,0-.03,0-.044" transform="translate(-153.063 -151.471)" fill="#171211"/>
        <path id="Trazado_1243088" data-name="Trazado 1243088" d="M257.832,178.364a8.258,8.258,0,0,1,.979.055.792.792,0,0,1,.717.869.76.76,0,0,1-.728.8,13.625,13.625,0,0,1-1.917,0,.773.773,0,0,1-.746-.841.785.785,0,0,1,.7-.824,8.805,8.805,0,0,1,.992-.059" transform="translate(-217.205 -151.254)" fill="#171210"/>
        <path id="Trazado_1243089" data-name="Trazado 1243089" d="M334.092,178.268c.75.152,1.066.44,1.02.96-.054.615-.5.775-1.018.848-.473-.012-.946-.015-1.418-.037a.874.874,0,1,1,0-1.737c.472-.024.946-.024,1.419-.034" transform="translate(-281.29 -151.172)" fill="#171110"/>
        <path id="Trazado_1243090" data-name="Trazado 1243090" d="M30.886,180.276a7.021,7.021,0,0,1-.9-.007.789.789,0,0,1-.751-.837.743.743,0,0,1,.691-.823,12.642,12.642,0,0,1,2.025.007.746.746,0,0,1,.675.839.784.784,0,0,1-.723.808,8.083,8.083,0,0,1-1.014.008v.006" transform="translate(-24.79 -151.43)" fill="#171210"/>
        <path id="Trazado_1243091" data-name="Trazado 1243091" d="M222.226,178.557a.859.859,0,1,1-.048,1.717.84.84,0,0,1-.81-.851.851.851,0,0,1,.857-.865" transform="translate(-187.722 -151.418)" fill="#130f0e"/>
        <path id="Trazado_1243092" data-name="Trazado 1243092" d="M71.762,179.467a.874.874,0,0,1-.92.808.847.847,0,0,1-.788-.925.86.86,0,0,1,.878-.787.885.885,0,0,1,.83.9" transform="translate(-59.403 -151.422)" fill="#120e0d"/>
        <path id="Trazado_1243093" data-name="Trazado 1243093" d="M147.419,179.45a.881.881,0,0,1-.9.83.845.845,0,0,1-.808-.908.854.854,0,0,1,.858-.806.886.886,0,0,1,.852.884" transform="translate(-123.56 -151.425)" fill="#120e0d"/>
        <path id="Trazado_1243094" data-name="Trazado 1243094" d="M297.878,178.556a.9.9,0,0,1,.86.881.888.888,0,0,1-.9.836.834.834,0,0,1-.811-.847.848.848,0,0,1,.85-.87" transform="translate(-251.881 -151.417)" fill="#130f0e"/>
        <path id="Trazado_1243095" data-name="Trazado 1243095" d="M152.581,233a.74.74,0,0,1-.058-1.478.78.78,0,0,1,.8.719.741.741,0,0,1-.738.759" transform="translate(-128.759 -196.326)" fill="#ca7240"/>
        <path id="Trazado_1243096" data-name="Trazado 1243096" d="M330.844,232.25a.732.732,0,0,1-.765.731.669.669,0,0,1-.72-.7.737.737,0,0,1,.715-.784.8.8,0,0,1,.77.753" transform="translate(-279.298 -196.311)" fill="#ca7240"/>
      </g>
    </g>
  </g>
</svg>
