<svg xmlns="http://www.w3.org/2000/svg" xmlns:xlink="http://www.w3.org/1999/xlink" width="118" height="118" viewBox="0 0 118 118">
  <defs>
    <filter id="Elipse_12115" x="0" y="0" width="118" height="118" filterUnits="userSpaceOnUse">
      <feOffset dy="3" input="SourceAlpha"/>
      <feGaussianBlur stdDeviation="3" result="blur"/>
      <feFlood flood-opacity="0.161"/>
      <feComposite operator="in" in2="blur"/>
      <feComposite in="SourceGraphic"/>
    </filter>
    <clipPath id="clip-path">
      <rect id="Rect치ngulo_410590" data-name="Rect치ngulo 410590" width="65.195" height="64.803" fill="none"/>
    </clipPath>
  </defs>
  <g id="Grupo_1188203" data-name="Grupo 1188203" transform="translate(-799.781 -2543)">
    <g transform="matrix(1, 0, 0, 1, 799.78, 2543)" filter="url(#Elipse_12115)">
      <g id="Elipse_12115-2" data-name="Elipse 12115" transform="translate(9 6)" fill="#fbe0aa" stroke="#ab7c1f" stroke-width="2">
        <circle cx="50" cy="50" r="50" stroke="none"/>
        <circle cx="50" cy="50" r="49" fill="none"/>
      </g>
    </g>
    <g id="Grupo_1188210" data-name="Grupo 1188210" transform="translate(826.184 2566.598)">
      <g id="Grupo_1188209" data-name="Grupo 1188209" clip-path="url(#clip-path)">
        <path id="Trazado_1241167" data-name="Trazado 1241167" d="M60.55,48.132l-3.036,0c.1-1.3.216-2.6.3-3.9.064-1-.374-1.5-1.431-1.5-.494,0-1.2-.092-1.439-.415-.747-1.026-1.683-1.994-1.5-3.494a2,2,0,0,0-.7-1.463c-1.909-1.614-3.958-2.851-6.6-1.656-.24.108-.536.085-.787.175a1.032,1.032,0,0,1-1.5-.663,4.373,4.373,0,0,0-3.334-2.812,7.08,7.08,0,0,1-1.756-.693,4.81,4.81,0,0,0-5.177.183c-1.593.922-3.214,1.611-3.5,3.719a1.052,1.052,0,0,1-.838.6c-1.963-.4-3.054.831-4.258,2.028-1.26,1.252-2.639,2.368-1.163,4.41-.481.048-.741.088-1,.1-1.686.057-1.937.325-1.817,2.033.079,1.121.187,2.239.283,3.358L9.3,48.123c.691-2.174,1.47-4.325,2.045-6.529a5.367,5.367,0,0,1,3.143-3.849c3.865-1.774,5.87-5.468,8.467-8.54a2.721,2.721,0,0,0,.427-1.126q1.813-7.8,3.593-15.611a1.919,1.919,0,0,1,1.6-1.667c3.24-.752,6.45-1.633,9.692-2.376a5.227,5.227,0,0,1,2.353.052c2.876.719,5.719,1.565,8.59,2.3A1.955,1.955,0,0,1,50.8,12.319c1.432,5.059,2.92,10.1,4.411,15.144a5.942,5.942,0,0,0,.851,2.112c2.854,3.439,5.34,7.319,9.953,8.775A3.815,3.815,0,0,1,67.1,38.9a1.628,1.628,0,0,1,.674.774c.621,2.8,1.19,5.619,1.773,8.431l-7.155.017a6.247,6.247,0,0,1,2.256-4.142c.626-.507,1.1-1.153.5-1.979-1.024-1.4-2.08-2.785-3.2-4.281l-1.73,1.394c.717.967,1.27,1.852,1.964,2.608.653.712.378,1.093-.091,1.8a25.9,25.9,0,0,0-1.938,3.92c-.063.142.262.457.408.692M30.77,14.348a31.944,31.944,0,0,0-.731,3.518,2.544,2.544,0,0,1-1.563,2.313c-2.158.934-2.573,2.9-3.089,4.934l1.986.657a3.963,3.963,0,0,0,.382-.836,4.56,4.56,0,0,1,2.6-3.347,2.876,2.876,0,0,0,1.394-1.362c.509-1.747.8-3.557,1.193-5.42l-2.172-.457m14.2-2.972c-.477,2.335-.327,4.319,2.029,5.463a3.471,3.471,0,0,1,2.2,3.97c-.01.06.1.139.151.206h1.82c.476-2.3.306-4.264-2.049-5.413a3.5,3.5,0,0,1-2.192-3.983c.01-.06-.1-.139-.176-.244ZM16.7,38.491a5.812,5.812,0,0,0-.039,1.039c.262,1.676-.12,2.832-2.063,3.126a1.842,1.842,0,0,0-1.139,1.256A17.737,17.737,0,0,0,13.408,47h2.241c-.636-2.02.47-2.693,2.091-3.116A1.715,1.715,0,0,0,18.77,42.7c.134-1.369.049-2.759.049-4.2Z" transform="translate(-6.772 -6.056)" fill="#9a5b47"/>
        <path id="Trazado_1241168" data-name="Trazado 1241168" d="M15.109,109c-.1-1.119-.2-2.238-.283-3.358-.12-1.708.131-1.976,1.817-2.033.261-.009.521-.049,1-.1-1.476-2.042-.1-3.158,1.163-4.41,1.2-1.2,2.295-2.431,4.258-2.028a1.052,1.052,0,0,0,.838-.6c.288-2.109,1.909-2.8,3.5-3.72a4.81,4.81,0,0,1,5.177-.183,7.081,7.081,0,0,0,1.756.693,4.373,4.373,0,0,1,3.334,2.812,1.032,1.032,0,0,0,1.5.663c.252-.09.548-.067.787-.175,2.64-1.195,4.689.043,6.6,1.656a2,2,0,0,1,.7,1.463c-.185,1.5.75,2.468,1.5,3.494.236.324.945.413,1.439.415,1.057.006,1.5.5,1.431,1.5-.084,1.3-.2,2.6-.3,3.9l-.006,0-.187.267-1.226,11.663H63.506v2.161H60.848l-1.987,6.522h6.8v2.107H.81v-2.03H4.857l1.982-6.537H2.974v-2.163H16.525c-.249-2.363-.465-4.585-.724-6.8-.2-1.731-.459-3.455-.692-5.183m34.213-3.151H17.2L17.294,108H41.828v2.133H17.581L19,122.984c.875.286,1.289.109,1.65-.792a5.242,5.242,0,0,1,7.1-2.938,5.692,5.692,0,0,1,3.259,3.858c1.109,0,2.146-.037,3.18.012a1.42,1.42,0,0,0,1.692-1.039,4.957,4.957,0,0,1,5.08-3.28,5.074,5.074,0,0,1,4.856,3.447c.343.885.741.976,1.6.731l1.9-17.135m-19.644-2.308H46.1a10.848,10.848,0,0,1-.923-2.37,3.043,3.043,0,0,0-3.588-2.68,64.838,64.838,0,0,0-6.424,1.466,4.41,4.41,0,0,1-4.525-.879l.936-1.895c1.4,1.113,2.769.867,4.436.069-.578-.59-.967-1.23-1.534-1.514a33.728,33.728,0,0,0-3.741-1.491c-1.063-.381-3.967,1.065-4.378,2.133a3.328,3.328,0,0,0,2.131,4.5c.586.2,1.169.406,1.805.627l-.618,2.033m-3.986,17.412a3.406,3.406,0,0,0-3.3,3.123,3.337,3.337,0,0,0,3.179,3.357,3.24,3.24,0,0,0,.118-6.48m15.1,6.48a3.241,3.241,0,1,0-3.218-3.187,3.394,3.394,0,0,0,3.218,3.187m-11.615-23.82a6.913,6.913,0,0,1-4.931-3.888c-.111-.234-.562-.394-.873-.43a4.841,4.841,0,0,0-3.889,2.32c-.263.618.392,1.981,1.01,1.987,2.894.025,5.789.011,8.684.011m-17.37,26.249c1.024-.275,2.321-.272,2.519-.738a58.938,58.938,0,0,0,1.933-6.138c-1.009.447-2.169-.567-2.62.789-.63,1.9-1.158,3.825-1.832,6.087m-4.538-.415.252.424c.738-.29,1.917-.393,2.135-.905a57.758,57.758,0,0,0,1.875-5.9c-.973.332-2.131-.622-2.585.731-.625,1.862-1.124,3.766-1.677,5.653m44.594.139,1.94-6.421H51.415l-1.933,6.421Zm2.29.117c1.1-.309,2.174.519,2.59-.811.586-1.871,1.123-3.757,1.7-5.693H56.095l-1.943,6.5m-21.039-.151,1.255-4.2H31.992l-1.261,4.2Zm14.07,0,1.216-4.164-.368-.356c-.694.294-1.716.4-2.013.92a18.266,18.266,0,0,0-1.2,3.6Zm-30.537-.172.222.406c.744-.219,1.885-.22,2.151-.7a17.739,17.739,0,0,0,1.147-3.727H17.848l-1.2,4.023m19.424-2.1-.589,2.251h3.58l-2.991-2.251m-14.4.815-.332,1.458h2.858L21.667,128.1" transform="translate(-0.59 -66.91)" fill="#080a09"/>
        <path id="Trazado_1241169" data-name="Trazado 1241169" d="M62.771,42.05c-.584-2.812-1.153-5.627-1.773-8.431a1.629,1.629,0,0,0-.674-.774,3.821,3.821,0,0,0-1.081-.551c-4.613-1.455-7.1-5.336-9.953-8.775a5.941,5.941,0,0,1-.851-2.112c-1.49-5.042-2.979-10.085-4.411-15.144a1.955,1.955,0,0,0-1.591-1.535c-2.871-.739-5.715-1.585-8.59-2.3a5.236,5.236,0,0,0-2.353-.052C28.252,3.115,25.042,4,21.8,4.747a1.919,1.919,0,0,0-1.6,1.667q-1.769,7.812-3.593,15.611a2.727,2.727,0,0,1-.427,1.126c-2.6,3.072-4.6,6.765-8.467,8.539a5.368,5.368,0,0,0-3.143,3.849C4,37.743,3.22,39.894,2.529,42.068H0c2.033-4.492.323-8.69.289-12.884A7.163,7.163,0,0,1,.18,27.444a5.3,5.3,0,0,1,.979-1.706,1.8,1.8,0,0,1,.83-.426c3.541-1.26,6.264-3.424,7.543-7.062.932-2.653,2.943-3.8,5.517-4.171.982-.144,1.3-.621,1.494-1.532.519-2.5,1.209-4.967,1.714-7.471a2.5,2.5,0,0,1,2.2-2.272C24.155,2,27.8.971,31.487.125A5.782,5.782,0,0,1,34.1.178c3.3.834,6.558,1.814,9.852,2.661,1.087.28,1.8.787,1.934,1.921a1.793,1.793,0,0,0,1.65,1.781c2.695.322,3.974,1.988,4.6,4.488A29.046,29.046,0,0,0,53.85,15.7a5.646,5.646,0,0,0,1.436,1.724,16.211,16.211,0,0,0,2.638,2.091,4.177,4.177,0,0,1,2.053,3.8c.116,2.156.326,4.309.582,6.453a1.521,1.521,0,0,0,.8,1.029,2.99,2.99,0,0,1,1.894,2.53c.55,2.812,1.234,5.6,1.939,8.727ZM47.169,9.132c.926,3.107,1.789,6.031,2.671,8.949.554,1.831.772,3.787,2.148,5.3,1.3,1.431,2.468,2.979,3.8,4.381a11.382,11.382,0,0,0,2.091,1.417l.3-.257a20.327,20.327,0,0,1-.3-3.324,5.629,5.629,0,0,0-3.011-5.643,7.408,7.408,0,0,1-3.532-4.413c-.478-1.726-1.293-3.356-1.829-5.07-.355-1.135-1.061-1.414-2.333-1.344M15.457,16.39c-1.48.317-2.93.458-3.486,2.128a7.342,7.342,0,0,1-.586,1.06c-2.567,4.8-2.567,4.8-7.43,7.244a2.143,2.143,0,0,0-.708.377c-.283.342-.676.763-.668,1.144.032,1.526.2,3.049.3,4.306a17.245,17.245,0,0,1,2.313-1.967,26.538,26.538,0,0,0,6.423-5.215,14.945,14.945,0,0,0,3.847-9.077" transform="translate(0 0)" fill="#0f0c0c"/>
        <path id="Trazado_1241170" data-name="Trazado 1241170" d="M196.665,126.87c-.145-.235-.471-.55-.408-.692a25.859,25.859,0,0,1,1.938-3.92c.469-.7.744-1.084.091-1.8-.693-.756-1.247-1.64-1.964-2.608l1.729-1.394c1.122,1.5,2.178,2.877,3.2,4.281.6.826.131,1.471-.5,1.979a6.247,6.247,0,0,0-2.256,4.142l-1.838.009" transform="translate(-142.888 -84.793)" fill="#100a08"/>
        <path id="Trazado_1241171" data-name="Trazado 1241171" d="M185.906,155.037l.186-.267-.186.267" transform="translate(-135.357 -112.687)" fill="#9a5b47"/>
        <path id="Trazado_1241172" data-name="Trazado 1241172" d="M73.843,30.5l2.172.457c-.392,1.864-.684,3.674-1.193,5.42a2.874,2.874,0,0,1-1.394,1.362,4.561,4.561,0,0,0-2.6,3.348,3.96,3.96,0,0,1-.382.836l-1.986-.657c.517-2.036.931-4,3.089-4.934a2.544,2.544,0,0,0,1.563-2.313,31.945,31.945,0,0,1,.731-3.518" transform="translate(-49.845 -22.205)" fill="#110b08"/>
        <path id="Trazado_1241173" data-name="Trazado 1241173" d="M139.913,19.567H141.7c.079.105.186.184.176.244a3.5,3.5,0,0,0,2.192,3.983c2.355,1.15,2.525,3.114,2.049,5.413H144.3c-.054-.069-.16-.147-.15-.207a3.471,3.471,0,0,0-2.2-3.97c-2.357-1.145-2.507-3.128-2.029-5.463" transform="translate(-101.71 -14.247)" fill="#0b0807"/>
        <path id="Trazado_1241174" data-name="Trazado 1241174" d="M27.587,119.29H29.7c0,1.445.085,2.835-.049,4.2a1.715,1.715,0,0,1-1.031,1.188c-1.621.424-2.727,1.1-2.091,3.116H24.293a17.737,17.737,0,0,1,.053-3.087,1.842,1.842,0,0,1,1.139-1.256c1.943-.294,2.325-1.45,2.063-3.126a5.812,5.812,0,0,1,.039-1.039" transform="translate(-17.656 -86.854)" fill="#0a0707"/>
        <path id="Trazado_1241175" data-name="Trazado 1241175" d="M93.208,143.206l-1.9,17.135c-.862.245-1.26.154-1.6-.731a5.074,5.074,0,0,0-4.856-3.447,4.957,4.957,0,0,0-5.08,3.279,1.42,1.42,0,0,1-1.692,1.039c-1.033-.049-2.071-.012-3.18-.012a5.692,5.692,0,0,0-3.259-3.858,5.242,5.242,0,0,0-7.1,2.938c-.361.9-.775,1.078-1.65.792l-1.415-12.849H85.714v-2.133H61.18l-.095-2.153ZM90,145.367h-2v2.044h2Z" transform="translate(-44.476 -104.267)" fill="#4ca45c"/>
        <path id="Trazado_1241176" data-name="Trazado 1241176" d="M97.4,109.665l.618-2.033c-.637-.221-1.219-.43-1.805-.627a3.328,3.328,0,0,1-2.131-4.5c.411-1.068,3.315-2.514,4.377-2.133a33.712,33.712,0,0,1,3.742,1.491c.567.284.956.924,1.534,1.515-1.667.8-3.034,1.044-4.436-.069l-.936,1.895a4.409,4.409,0,0,0,4.525.879,64.838,64.838,0,0,1,6.424-1.466,3.044,3.044,0,0,1,3.588,2.68,10.848,10.848,0,0,0,.923,2.37Z" transform="translate(-68.316 -73.034)" fill="#cccbcb"/>
        <path id="Trazado_1241177" data-name="Trazado 1241177" d="M83.483,198.754a3.24,3.24,0,0,1-.118,6.48,3.336,3.336,0,0,1-3.179-3.357,3.406,3.406,0,0,1,3.3-3.123m-.057,4.852c.52-.789,1.019-1.217,1.011-1.635-.007-.355-.654-1.017-.923-.972a1.551,1.551,0,0,0-1.084.975c-.06.37.479.836,1,1.633" transform="translate(-58.38 -144.711)" fill="#856d32"/>
        <path id="Trazado_1241178" data-name="Trazado 1241178" d="M139.225,205.231a3.241,3.241,0,1,1,3.258-3.3,3.375,3.375,0,0,1-3.258,3.3m1.627-3.259c-.8-.509-1.24-1-1.655-.982-.355.016-1,.672-.954.942a1.549,1.549,0,0,0,.994,1.065c.371.053.828-.494,1.615-1.025" transform="translate(-99.025 -144.708)" fill="#856d32"/>
        <path id="Trazado_1241179" data-name="Trazado 1241179" d="M79.013,123.392c-2.894,0-5.789.014-8.684-.011-.618-.005-1.273-1.369-1.009-1.987a4.84,4.84,0,0,1,3.889-2.32c.311.036.762.2.873.43a6.913,6.913,0,0,0,4.931,3.888" transform="translate(-50.428 -86.689)" fill="#cacaca"/>
        <path id="Trazado_1241180" data-name="Trazado 1241180" d="M41.247,213.109c.675-2.262,1.2-4.191,1.833-6.087.451-1.356,1.611-.341,2.62-.789a58.935,58.935,0,0,1-1.933,6.138c-.2.466-1.5.463-2.519.738" transform="translate(-30.032 -150.157)" fill="#d6d5d4"/>
        <path id="Trazado_1241181" data-name="Trazado 1241181" d="M24.559,212.842c.553-1.886,1.052-3.791,1.677-5.653.454-1.352,1.612-.4,2.585-.731a57.831,57.831,0,0,1-1.875,5.9c-.219.512-1.4.615-2.135.905l-.252-.424" transform="translate(-17.881 -150.306)" fill="#707171"/>
        <path id="Trazado_1241182" data-name="Trazado 1241182" d="M182.191,213.312h-2.38l1.933-6.421h2.386l-1.94,6.421" transform="translate(-130.919 -150.636)" fill="#d6d6d5"/>
        <path id="Trazado_1241183" data-name="Trazado 1241183" d="M196.984,213.518l1.944-6.5h2.344c-.574,1.935-1.111,3.822-1.7,5.693-.417,1.33-1.489.5-2.59.811" transform="translate(-143.422 -150.726)" fill="#707171"/>
        <path id="Trazado_1241184" data-name="Trazado 1241184" d="M113.23,219.138h-2.382l1.261-4.2h2.375l-1.255,4.2" transform="translate(-80.708 -156.497)" fill="#d6d6d5"/>
        <path id="Trazado_1241185" data-name="Trazado 1241185" d="M165.015,218.279h-2.368a18.266,18.266,0,0,1,1.2-3.6c.3-.52,1.32-.627,2.013-.92l.368.356-1.216,4.164" transform="translate(-118.422 -155.636)" fill="#707171"/>
        <path id="Trazado_1241186" data-name="Trazado 1241186" d="M59.048,218.978l1.2-4.023h2.319a17.755,17.755,0,0,1-1.147,3.727c-.266.483-1.407.483-2.151.7l-.223-.406" transform="translate(-42.992 -156.507)" fill="#707071"/>
        <path id="Trazado_1241187" data-name="Trazado 1241187" d="M128.908,222.043l2.991,2.251h-3.58l.589-2.251" transform="translate(-93.428 -161.668)" fill="#6f7070"/>
        <path id="Trazado_1241188" data-name="Trazado 1241188" d="M76.628,225.041l2.527,1.458H76.3l.332-1.458" transform="translate(-55.551 -163.851)" fill="#d1d1d0"/>
        <path id="Trazado_1241189" data-name="Trazado 1241189" d="M173.475,33.559c1.272-.07,1.978.209,2.333,1.344.536,1.714,1.352,3.344,1.83,5.07a7.407,7.407,0,0,0,3.532,4.413,5.629,5.629,0,0,1,3.011,5.643,20.265,20.265,0,0,0,.3,3.324l-.3.257a11.368,11.368,0,0,1-2.091-1.417c-1.327-1.4-2.5-2.949-3.8-4.38-1.376-1.518-1.594-3.473-2.148-5.3-.882-2.918-1.745-5.842-2.671-8.949" transform="translate(-126.306 -24.427)" fill="#753f30"/>
        <path id="Trazado_1241190" data-name="Trazado 1241190" d="M22.358,60.28a14.945,14.945,0,0,1-3.847,9.077,26.538,26.538,0,0,1-6.423,5.215,17.245,17.245,0,0,0-2.313,1.967c-.1-1.257-.264-2.78-.3-4.306-.008-.381.385-.8.668-1.144a2.143,2.143,0,0,1,.708-.377c4.864-2.441,4.863-2.441,7.43-7.244a7.342,7.342,0,0,0,.586-1.06c.557-1.67,2.006-1.811,3.486-2.128" transform="translate(-6.901 -43.889)" fill="#753f30"/>
        <rect id="Rect치ngulo_410589" data-name="Rect치ngulo 410589" width="1.997" height="2.044" transform="translate(43.532 41.1)" fill="#040506"/>
        <path id="Trazado_1241191" data-name="Trazado 1241191" d="M89.43,209.611c-.517-.8-1.056-1.263-1-1.633A1.551,1.551,0,0,1,89.518,207c.269-.045.916.618.923.972.008.418-.492.847-1.011,1.635" transform="translate(-64.385 -150.716)" fill="#0d0c06"/>
        <path id="Trazado_1241192" data-name="Trazado 1241192" d="M146.834,207.968c-.787.531-1.243,1.078-1.615,1.025a1.549,1.549,0,0,1-.994-1.065c-.049-.27.6-.927.954-.942.415-.018.852.474,1.655.982" transform="translate(-105.008 -150.704)" fill="#0d0c06"/>
      </g>
    </g>
  </g>
</svg>
