<svg xmlns="http://www.w3.org/2000/svg" xmlns:xlink="http://www.w3.org/1999/xlink" width="118" height="118" viewBox="0 0 118 118">
  <defs>
    <filter id="Elipse_12115" x="0" y="0" width="118" height="118" filterUnits="userSpaceOnUse">
      <feOffset dy="3" input="SourceAlpha"/>
      <feGaussianBlur stdDeviation="3" result="blur"/>
      <feFlood flood-opacity="0.161"/>
      <feComposite operator="in" in2="blur"/>
      <feComposite in="SourceGraphic"/>
    </filter>
    <clipPath id="clip-path">
      <rect id="Rectángulo_410582" data-name="Rectángulo 410582" width="61.057" height="61.032" fill="none"/>
    </clipPath>
  </defs>
  <g id="Grupo_1187429" data-name="Grupo 1187429" transform="translate(-799.781 -2543)">
    <g transform="matrix(1, 0, 0, 1, 799.78, 2543)" filter="url(#Elipse_12115)">
      <g id="Elipse_12115-2" data-name="Elipse 12115" transform="translate(9 6)" fill="#fbe0aa" stroke="#ab7c1f" stroke-width="2">
        <circle cx="50" cy="50" r="50" stroke="none"/>
        <circle cx="50" cy="50" r="49" fill="none"/>
      </g>
    </g>
    <g id="Grupo_1188200" data-name="Grupo 1188200" transform="translate(828.252 2568.483)">
      <g id="Grupo_1188199" data-name="Grupo 1188199" clip-path="url(#clip-path)">
        <path id="Trazado_1241079" data-name="Trazado 1241079" d="M121.493,52.777V81.863c-.383-.63-.622-1.574-1.178-1.83-1.64-.755-1.369-2.094-1.376-3.4,0-.714-.04-1.431.006-2.141.275-4.252-1-6.146-5.814-5.8a1.53,1.53,0,0,1-1.691-1.058,10.911,10.911,0,0,0-10.066-6.523c-5.036-.1-10.076-.041-15.114-.069a1.543,1.543,0,0,0-1.722,1.283l-.651-.023a11.347,11.347,0,0,0,.414-6.313c.32-.045.549-.082.778-.107a3.568,3.568,0,0,0,3.207-2.88,18.019,18.019,0,0,0,.041-3.556,1.4,1.4,0,0,0-.69-.966c-1.685-.839-5.009-.062-6.089,1.445a11.786,11.786,0,0,0-.948,2.055l-1.148-.434,1.409-4.51,10.07.013a1.472,1.472,0,0,0,1.7,1.269q11-.018,21.991,0a1.658,1.658,0,0,0,1.859-1.272l3.177-.042,1.836-.2v4.768c-1.307-1.238-2.873-.691-4.343-.543-.271.028-.676.8-.643,1.194s.5,1.048.834,1.086c1.407.16,2.895.55,4.152-.545m-14-1.908c-1.588,0-3.177.011-4.765,0-.869-.008-1.516.26-1.532,1.237-.016,1.031.668,1.354,1.57,1.356,3.177.006,6.353.01,9.53,0,.837,0,1.54-.326,1.548-1.27.008-.99-.653-1.334-1.586-1.321-1.588.022-3.177.006-4.765.006M107.5,58.5c1.589,0,3.177-.016,4.765.006.874.012,1.532-.288,1.573-1.216.045-1.007-.66-1.372-1.559-1.376q-4.765-.019-9.53,0c-.906,0-1.581.337-1.558,1.367.022.98.679,1.234,1.543,1.225,1.588-.016,3.177,0,4.765,0m-11.519,0c.436,0,.874.017,1.309,0,.79-.037,1.384-.49,1.251-1.241a1.852,1.852,0,0,0-1.106-1.26A6.648,6.648,0,0,0,94.609,56a1.681,1.681,0,0,0-.972,1.32c.02.41.692.872,1.172,1.145.3.17.775.032,1.172.032" transform="translate(-60.435 -35.612)" fill="#4ba35b"/>
        <path id="Trazado_1241080" data-name="Trazado 1241080" d="M125.434,141.84l-4.732,0-.72-.851c.01-2.9.038-5.793,0-8.689,0-.3-.392-.586-.6-.879l-2.965-1.2a26.026,26.026,0,0,1-1.6-3.081,1.216,1.216,0,0,1,.966-1.716c1-.186,1.475.446,1.566,1.343a2.219,2.219,0,0,0,1.641,1.959,8.175,8.175,0,0,0,1.959.431c1.108.1,1.467.715,1.45,1.745-.029,1.743-.008,3.487-.008,5.231v3.1h1.512c1.417-5.016,2.88-9.951,2.259-15.19.011-2.258.1-4.52.014-6.774a8.685,8.685,0,0,0-7.733-8.284c-2.873-.249-5.773-.226-8.662-.257-2.533-.027-5.068.041-7.6.067a1.369,1.369,0,0,1-1.48-1.238,1.543,1.543,0,0,1,1.722-1.283c5.038.027,10.078-.034,15.114.068a10.911,10.911,0,0,1,10.066,6.523,1.53,1.53,0,0,0,1.691,1.058c4.815-.35,6.089,1.544,5.814,5.8-.046.711-.01,1.427-.006,2.141.007,1.306-.264,2.645,1.376,3.4.556.256.794,1.2,1.178,1.83v1.669c-.874,1.572-1.694,3.178-2.639,4.706-.643,1.039-1.657,1.086-2.292.084a28.461,28.461,0,0,1-2.419-4.46c-.738-1.818-.049-3.378,1.6-4.489a1.391,1.391,0,0,0,.64-.854c.056-1.943.049-3.889.016-5.833a1.325,1.325,0,0,0-1.276-1.452c-.818-.059-1.643-.013-2.5-.013,0,4,.009,7.872-.007,11.749a12.274,12.274,0,0,1-.167,2.593q-1.054,4.739-2.263,9.442a6.918,6.918,0,0,1-.918,1.607m8.207-11.5.354.041a12.722,12.722,0,0,0,.93-2.234,1.514,1.514,0,0,0-.528-1.257,1.329,1.329,0,0,0-1.261.062,1.421,1.421,0,0,0-.379,1.216,14.325,14.325,0,0,0,.884,2.172" transform="translate(-76.599 -80.838)" fill="#050c08"/>
        <path id="Trazado_1241081" data-name="Trazado 1241081" d="M204.038,174.122a6.931,6.931,0,0,0,.918-1.607q1.2-4.7,2.263-9.442a12.272,12.272,0,0,0,.167-2.593c.016-3.877.007-7.754.007-11.749.854,0,1.68-.046,2.5.013a1.325,1.325,0,0,1,1.276,1.452c.034,1.944.04,3.889-.016,5.832a1.39,1.39,0,0,1-.64.853c-1.649,1.112-2.339,2.672-1.6,4.49a28.492,28.492,0,0,0,2.419,4.459c.635,1,1.649.955,2.292-.084.946-1.528,1.766-3.133,2.639-4.706v13.112l-12.223-.03" transform="translate(-155.204 -113.12)" fill="#4ba35b"/>
        <path id="Trazado_1241082" data-name="Trazado 1241082" d="M127.413,11.442c.162-1.216,1.054-1.334,2.017-1.335,2.657,0,5.314,0,8.1,0a19.285,19.285,0,0,1,.293-2.094A10.02,10.02,0,0,1,144.908.418a7.519,7.519,0,0,0,.9-.418h3.816c.112.08.214.209.337.234A8.955,8.955,0,0,1,155.864,4a32.86,32.86,0,0,1,2.112,4.342v2.861l-1.836.2a5.289,5.289,0,0,1-.745-1.659,7.617,7.617,0,0,0-11.346-6.179c-2.357,1.285-4.2,4.55-3.629,6.6h1.269c3.1,0,6.2.016,9.3-.009.982-.008,1.712.258,1.976,1.294a1.658,1.658,0,0,1-1.859,1.272q-11-.031-21.991,0a1.472,1.472,0,0,1-1.7-1.269" transform="translate(-96.918)" fill="#0e0d0c"/>
        <path id="Trazado_1241083" data-name="Trazado 1241083" d="M239.256,65.416c-1.257,1.095-2.745.705-4.152.545-.334-.038-.8-.688-.834-1.086s.372-1.167.643-1.194c1.469-.149,3.036-.7,4.343.543Z" transform="translate(-178.199 -48.251)" fill="#000f07"/>
        <path id="Trazado_1241084" data-name="Trazado 1241084" d="M56.579,111.561a1.368,1.368,0,0,0,1.479,1.238h8.751V114.1a1.334,1.334,0,0,0-1.261,1.551c.009,1.426-.016,2.852.008,4.278s.417,1.709,1.87,1.859a26.411,26.411,0,0,1,3.7.68,1.4,1.4,0,0,1,.78.88c1.055,3.82,2.92,5.413,6.843,5.943a1.687,1.687,0,0,0,2.165-1.263l1.126.017c.621,5.239-.842,10.174-2.259,15.19H78.272v-3.1c0-1.744-.021-3.488.008-5.231.017-1.03-.342-1.641-1.45-1.745a8.17,8.17,0,0,1-1.959-.431,2.219,2.219,0,0,1-1.641-1.959c-.091-.9-.561-1.529-1.566-1.342a1.216,1.216,0,0,0-.965,1.716,26.027,26.027,0,0,0,1.6,3.081l-2.856.18-1.476-1.228-7.311-.031-.254-.137.043-1.1c.859-.151,1.491-.673,1.254-1.521a4.152,4.152,0,0,0-1.329-2.364,11.85,11.85,0,0,0-3.733-1.2c-1.134-.233-2.249-.214-2.663-1.678-.116-.412-.941-.834-1.472-.878-1.456-.12-2.929-.024-4.395-.047a1.461,1.461,0,0,0-1.654,1.329l-2.278.037a8.652,8.652,0,0,1-.221-1.1,1.443,1.443,0,0,0-1.254-1.538q.031-.379.061-.758a9.522,9.522,0,0,0,6.573.332,6.369,6.369,0,0,0,4.644-7.007,2.045,2.045,0,0,1,.219-1.185c.533-.959,1.151-1.869,1.735-2.8l.651.022" transform="translate(-32.477 -84.843)" fill="#ecedec"/>
        <path id="Trazado_1241085" data-name="Trazado 1241085" d="M23.558,59.107c-.584.93-1.2,1.841-1.735,2.8a2.044,2.044,0,0,0-.219,1.186A6.369,6.369,0,0,1,16.96,70.1a9.522,9.522,0,0,1-6.573-.332c-2.773-1.53-4.409-3.646-3.717-7.026a1.527,1.527,0,0,0-.418-1.006,9.1,9.1,0,0,1-2.125-4.808C4,55.574,4.1,54.2,4.1,52.764A4.072,4.072,0,0,1,.141,49.8V45.868c2.4-2.194,6.622-.608,7.764,2.95l1.164-.481L7.7,43.856c.113-.689.422-1.182,1.2-1.241.907-.07,1.235.537,1.482,1.244a3.722,3.722,0,0,0,3.693,3.811c1.8.045,4-1.621,3.73-3.834.459-.408.913-1.129,1.377-1.135.445-.006.9.73,1.349,1.139l-1.409,4.51,1.148.434a11.786,11.786,0,0,1,.948-2.055c1.081-1.507,4.4-2.284,6.09-1.445a1.405,1.405,0,0,1,.69.966,18,18,0,0,1-.041,3.556,3.568,3.568,0,0,1-3.207,2.88c-.23.026-.458.063-.778.107a11.35,11.35,0,0,1-.414,6.314M20.179,60.13a17.276,17.276,0,0,0,1.306-3.12c.56-2.691-.284-5.982-3.851-6.4a33.279,33.279,0,0,0-6.952-.01,4.066,4.066,0,0,0-3.792,3.051C6.2,55.99,6.743,58.668,8.37,60c3.8-2.876,6.686-2.871,11.809.127m-6.035,8.065a20.761,20.761,0,0,0,3.188-1.112A3.167,3.167,0,0,0,17.7,61.53a6.325,6.325,0,0,0-7.494.241,3.1,3.1,0,0,0-.128,4.7,6.738,6.738,0,0,0,4.067,1.725M23.1,50.159c2.178.137,2.674-.4,2.326-2.411-2.069-.224-2.568.276-2.326,2.411m-18-.038c.2-2.187-.235-2.613-2.319-2.352-.248,2.121.174,2.567,2.319,2.352" transform="translate(-0.107 -32.411)" fill="#080d0a"/>
        <path id="Trazado_1241086" data-name="Trazado 1241086" d="M193.966,19.654c-.263-1.036-.994-1.3-1.976-1.294-3.1.025-6.2.009-9.3.009h-1.269c-.574-2.046,1.272-5.311,3.629-6.6A7.617,7.617,0,0,1,196.4,17.953a5.29,5.29,0,0,0,.745,1.659l-3.177.042m-5.18-3.816c.434,0,.942.143,1.285-.034.488-.253,1.164-.72,1.19-1.133a1.664,1.664,0,0,0-.964-1.32,7.809,7.809,0,0,0-3.043.025,1.709,1.709,0,0,0-.887,1.373c0,.366.668.829,1.133,1.054a3.257,3.257,0,0,0,1.286.036" transform="translate(-137.922 -8.21)" fill="#ffc22b"/>
        <path id="Trazado_1241087" data-name="Trazado 1241087" d="M176.587,63.726c1.588,0,3.177.016,4.765-.006.933-.013,1.594.331,1.586,1.321-.007.943-.711,1.266-1.548,1.269-3.177.013-6.353.009-9.53,0-.9,0-1.586-.324-1.57-1.355.015-.977.662-1.245,1.532-1.237,1.588.015,3.177,0,4.765,0" transform="translate(-129.533 -48.469)" fill="#000e06"/>
        <path id="Trazado_1241088" data-name="Trazado 1241088" d="M176.6,87.389c-1.588,0-3.177-.011-4.765,0-.864.008-1.521-.246-1.543-1.225-.023-1.03.652-1.365,1.558-1.367q4.765-.01,9.53,0c.9,0,1.6.369,1.559,1.376-.041.928-.7,1.228-1.573,1.216-1.588-.023-3.177-.006-4.765-.006" transform="translate(-129.533 -64.5)" fill="#000e06"/>
        <path id="Trazado_1241089" data-name="Trazado 1241089" d="M141.065,87.2c-.4,0-.872.139-1.172-.032-.48-.272-1.152-.735-1.172-1.145a1.682,1.682,0,0,1,.972-1.32,6.655,6.655,0,0,1,2.826-.008,1.852,1.852,0,0,1,1.106,1.261c.133.752-.46,1.2-1.251,1.241-.435.02-.873,0-1.309,0" transform="translate(-105.519 -64.309)" fill="#000f07"/>
        <path id="Trazado_1241090" data-name="Trazado 1241090" d="M.034,72.666A4.072,4.072,0,0,0,4,75.627c0,1.438-.1,2.809.024,4.161A9.1,9.1,0,0,0,6.144,84.6,1.526,1.526,0,0,1,6.562,85.6c-.692,3.381.944,5.5,3.717,7.026l-.061.758c-1.179.184-1.379.992-1.313,2.005a12.829,12.829,0,0,0,3.027,7.188q-.025.536-.049,1.072c-1.43.036-1.757.286-1.613,1.667q.478,4.583,1.149,9.144a6.865,6.865,0,0,0,.855,1.812H.07c-.024-.357-.063-.662-.063-.966Q0,94.165,0,73.02c0-.118.022-.236.034-.354" transform="translate(0 -55.274)" fill="#4ca45c"/>
        <path id="Trazado_1241091" data-name="Trazado 1241091" d="M40.2,168.436a12.829,12.829,0,0,1-3.027-7.188c-.066-1.013.134-1.822,1.313-2.005a1.443,1.443,0,0,1,1.254,1.538,8.652,8.652,0,0,0,.221,1.1,7.611,7.611,0,0,0,.168,1.158,8.687,8.687,0,0,0,7.775,6.3c.955.094,1.817.287,2.085,1.391l.993,8.819H52.59l1.036-8.382c.13-.848.335-1.643,1.378-1.775.392-.05.79-.062,1.184-.091l.253.136,7.312.031,1.476,1.228A1.569,1.569,0,0,1,63.4,172c-.86-.035-1.723-.007-2.627-.007a3.992,3.992,0,0,1,.478.99c.252,1.6,1.488,2.178,2.773,2.62a4.117,4.117,0,0,0,4.993-2.489c.38-1.147.929-1.333,2.172-.737q0,1.075.006,2.149a6.825,6.825,0,0,0-1.006,3.94c.02,1.04-.993,1.34-2.09.752l-.219-.391a.137.137,0,0,1-.05-.167l-.218-.789-1.15.331c-.03.585-.056,1.083-.081,1.582l-.2.458-.7.5-.738,0-.735-.883q-.056-.621-.113-1.241l-1.129-.9c-.407,1.837-1.028,2.191-2.3,1.5l-.219-.391a.135.135,0,0,1-.049-.166l-.14-2.444-1.026-1.928-.157-.456.027-.989.136-.193c-.062-.182-.1-.509-.189-.522-.576-.088-1.167-.076-1.744-.157-.846-.119-1.085.324-1.162,1.062-.229,2.187-.43,4.38-.778,6.55a13.085,13.085,0,0,1-.964,2.548H49.366c-.265-.42-.7-.814-.765-1.265-.312-2.018-.574-4.047-.753-6.081-.251-2.853-.213-2.856-3.077-3.38L40.2,168.436" transform="translate(-28.269 -121.13)" fill="#080d09"/>
        <path id="Trazado_1241092" data-name="Trazado 1241092" d="M108.379,222.531a13.083,13.083,0,0,0,.963-2.548c.348-2.169.549-4.362.778-6.549.077-.738.316-1.181,1.162-1.062.578.081,1.168.069,1.744.157.087.013.127.341.189.522l-.136.193q-.014.494-.028.989l.157.456,1.026,1.928.14,2.444a.135.135,0,0,0,.049.166l.219.391c1.277.688,1.9.334,2.3-1.5l1.129.9.113,1.241.735.883.738,0,.7-.5.2-.458c.026-.5.051-1,.081-1.581l1.15-.331.218.789a.137.137,0,0,0,.05.166l.219.391c1.1.588,2.11.287,2.09-.752a6.828,6.828,0,0,1,1.006-3.94,6.126,6.126,0,0,1,.269,1.146c.082,1.87.125,3.741.182,5.611l.72.851-18.163,0" transform="translate(-82.44 -161.529)" fill="#4ba35b"/>
        <path id="Trazado_1241093" data-name="Trazado 1241093" d="M44.817,214.758a6.88,6.88,0,0,1-.855-1.812q-.667-4.559-1.149-9.144c-.144-1.381.183-1.631,1.614-1.667.917.438.886,1.321.988,2.133.331,2.622.653,5.246.981,7.891h1.414c0-1.557.02-3.059-.008-4.56-.017-.9.255-1.547,1.223-1.726,1.021.151,1.368.822,1.367,1.766,0,1.785.064,3.575-.036,5.355a5.784,5.784,0,0,1-.742,1.767Z" transform="translate(-32.542 -153.756)" fill="#060f0a"/>
        <path id="Trazado_1241094" data-name="Trazado 1241094" d="M69.455,220.792a5.778,5.778,0,0,0,.742-1.767c.1-1.78.034-3.569.036-5.355,0-.944-.345-1.615-1.367-1.766q.01-.919.02-1.838c2.865.524,2.826.527,3.077,3.38.179,2.034.441,4.063.753,6.081.07.45.5.845.765,1.265H69.455" transform="translate(-52.384 -159.79)" fill="#4ba35b"/>
        <path id="Trazado_1241095" data-name="Trazado 1241095" d="M50.356,47.736c.268,2.213-1.932,3.879-3.73,3.834a3.722,3.722,0,0,1-3.693-3.811l7.423-.023" transform="translate(-32.657 -36.311)" fill="#4ba35b"/>
        <path id="Trazado_1241096" data-name="Trazado 1241096" d="M7.7,47.817,9.07,52.3,7.9,52.779c-1.142-3.557-5.361-5.144-7.764-2.95V47.817Z" transform="translate(-0.107 -36.373)" fill="#4ba35b"/>
        <path id="Trazado_1241097" data-name="Trazado 1241097" d="M115.63,117.875v-1.305h-8.751c2.535-.026,5.069-.094,7.6-.067,2.889.031,5.789.008,8.662.257a8.685,8.685,0,0,1,7.734,8.284c.09,2.254,0,4.516-.014,6.774l-1.126-.017c-.283-.939-.936-1.209-1.887-1.283-2.378-.184-4.336-1.582-4.491-3.393-.188-2.189-1.541-3.1-3.359-3.634-.969-.286-1.978-.435-3-.653,0-1.137.028-2.169-.008-3.2-.031-.888-.265-1.673-1.361-1.766" transform="translate(-81.299 -88.614)" fill="#98673e"/>
        <path id="Trazado_1241098" data-name="Trazado 1241098" d="M146.245,208.2c-1.243-.6-1.792-.409-2.172.738a4.117,4.117,0,0,1-4.993,2.489c-1.285-.442-2.522-1.017-2.773-2.62a4,4,0,0,0-.478-.99c.9,0,1.767-.028,2.627.007a1.57,1.57,0,0,0,1.824-1.308l2.856-.18,2.966,1.2.143.662" transform="translate(-103.32 -156.948)" fill="#c2c3c4"/>
        <path id="Trazado_1241099" data-name="Trazado 1241099" d="M235.447,195.453a14.324,14.324,0,0,1-.884-2.172,1.421,1.421,0,0,1,.379-1.216A1.329,1.329,0,0,1,236.2,192a1.514,1.514,0,0,1,.528,1.257,12.724,12.724,0,0,1-.93,2.234l-.354-.041" transform="translate(-178.406 -145.95)" fill="#6e3c24"/>
        <path id="Trazado_1241100" data-name="Trazado 1241100" d="M178.9,212.02l-.143-.662c.209.293.6.583.6.879.036,2.9.009,5.792,0,8.689-.057-1.87-.1-3.741-.182-5.611a6.125,6.125,0,0,0-.269-1.146q0-1.075-.006-2.15" transform="translate(-135.97 -160.772)" fill="#06110a"/>
        <path id="Trazado_1241101" data-name="Trazado 1241101" d="M58.886,178.987c-.268-1.1-1.13-1.3-2.085-1.391a8.687,8.687,0,0,1-7.775-6.3,7.58,7.58,0,0,1-.168-1.158l2.278-.037a1.408,1.408,0,0,0,1.586,1.258c1.87.009,3.919-.511,5.13,1.611a.175.175,0,0,0,.1.054c1.248.313,2.485.693,3.749.913,1.017.177,1.922.275,2.252,1.525.107.407.764.668,1.169,1l-.043,1.1c-.395.029-.792.041-1.184.091-1.043.132-1.248.927-1.378,1.775-.268-.149-.529-.412-.8-.427-.941-.051-1.888-.014-2.832-.011" transform="translate(-37.164 -129.391)" fill="#98673f"/>
        <path id="Trazado_1241102" data-name="Trazado 1241102" d="M139.426,122.256c1.1.092,1.33.878,1.361,1.766.036,1.03.008,2.062.008,3.2,1.024.218,2.033.368,3,.653,1.818.536,3.171,1.445,3.359,3.634.155,1.811,2.113,3.209,4.491,3.393.951.073,1.6.343,1.887,1.283a1.687,1.687,0,0,1-2.165,1.263c-3.923-.529-5.789-2.122-6.843-5.943a1.4,1.4,0,0,0-.78-.879,26.376,26.376,0,0,0-3.7-.68c-1.453-.15-1.847-.447-1.87-1.859s0-2.852-.008-4.278a1.334,1.334,0,0,1,1.261-1.551" transform="translate(-105.095 -92.995)" fill="#0d0c0b"/>
        <path id="Trazado_1241103" data-name="Trazado 1241103" d="M72.366,172.189c-.405-.328-1.062-.59-1.169-1-.33-1.25-1.235-1.348-2.252-1.525-1.264-.219-2.5-.6-3.749-.913a.175.175,0,0,1-.1-.054c-1.211-2.123-3.261-1.6-5.13-1.611a1.408,1.408,0,0,1-1.586-1.258,1.46,1.46,0,0,1,1.653-1.329c1.466.023,2.939-.073,4.4.047.531.044,1.355.466,1.472.878.414,1.465,1.529,1.445,2.663,1.678a11.849,11.849,0,0,1,3.733,1.2,4.152,4.152,0,0,1,1.329,2.364c.237.848-.4,1.37-1.254,1.521" transform="translate(-44.404 -125.119)" fill="#0f0e0d"/>
        <path id="Trazado_1241104" data-name="Trazado 1241104" d="M125.023,201.855l-7.312-.031,7.312.031" transform="translate(-89.538 -153.52)" fill="#98673f"/>
        <path id="Trazado_1241105" data-name="Trazado 1241105" d="M40.7,84.949c-5.123-3-8.011-3-11.809-.127-1.627-1.335-2.169-4.013-1.481-6.356A4.066,4.066,0,0,1,31.2,75.415a33.312,33.312,0,0,1,6.952.01c3.567.423,4.411,3.714,3.851,6.4a17.276,17.276,0,0,1-1.306,3.12m-3.52-3.638H39.65V78.95H37.178ZM32,78.948H29.586v2.4H32Z" transform="translate(-20.626 -57.23)" fill="#e9eae9"/>
        <path id="Trazado_1241106" data-name="Trazado 1241106" d="M42.487,124.793a6.737,6.737,0,0,1-4.067-1.724,3.1,3.1,0,0,1,.128-4.7,6.324,6.324,0,0,1,7.494-.241,3.167,3.167,0,0,1-.366,5.551,20.709,20.709,0,0,1-3.188,1.112m3.726-5.214H43.787v2.493h2.426Zm-5.1.036h-2.4v2.422h2.4Z" transform="translate(-28.45 -89.01)" fill="#c2c4c5"/>
        <path id="Trazado_1241107" data-name="Trazado 1241107" d="M95.875,66.335c-.241-2.135.257-2.634,2.326-2.411.348,2.013-.148,2.547-2.326,2.411" transform="translate(-72.886 -48.588)" fill="#bbbdbe"/>
        <path id="Trazado_1241108" data-name="Trazado 1241108" d="M13.268,66.3c-2.145.215-2.568-.231-2.319-2.352,2.084-.261,2.517.165,2.319,2.352" transform="translate(-8.28 -48.592)" fill="#c0c1c3"/>
        <path id="Trazado_1241109" data-name="Trazado 1241109" d="M204.833,23.528a3.24,3.24,0,0,1-1.286-.035c-.465-.225-1.13-.688-1.133-1.054a1.71,1.71,0,0,1,.887-1.373,7.809,7.809,0,0,1,3.043-.025,1.664,1.664,0,0,1,.964,1.32c-.026.412-.7.88-1.19,1.133-.342.177-.85.034-1.285.033" transform="translate(-153.968 -15.901)" fill="#120f02"/>
        <path id="Trazado_1241110" data-name="Trazado 1241110" d="M54.271,200.624q-.01.919-.02,1.838c-.968.179-1.239.825-1.223,1.726.028,1.5.008,3,.008,4.56H51.622c-.328-2.645-.649-5.269-.981-7.891-.1-.812-.071-1.694-.988-2.133q.024-.536.049-1.073l4.569,2.971" transform="translate(-37.769 -150.347)" fill="#c4c6c7"/>
        <path id="Trazado_1241111" data-name="Trazado 1241111" d="M90.757,207.171c.944,0,1.891-.04,2.832.011.275.015.536.278.8.427l-1.036,8.381H91.75l-.993-8.819" transform="translate(-69.035 -157.575)" fill="#eaeaea"/>
        <path id="Trazado_1241112" data-name="Trazado 1241112" d="M132.984,232.615l-.14-2.444.14,2.444" transform="translate(-101.049 -175.082)" fill="#06110a"/>
        <path id="Trazado_1241113" data-name="Trazado 1241113" d="M149.01,241.415l-.113-1.241.113,1.241" transform="translate(-113.26 -182.691)" fill="#06110a"/>
        <path id="Trazado_1241114" data-name="Trazado 1241114" d="M164.62,237.87l-.218-.789.218.789" transform="translate(-125.054 -180.338)" fill="#06110a"/>
        <path id="Trazado_1241115" data-name="Trazado 1241115" d="M153.18,249.052l-.738,0,.738,0" transform="translate(-115.957 -189.442)" fill="#06110a"/>
        <path id="Trazado_1241116" data-name="Trazado 1241116" d="M128.062,220.664l-.157-.456.157.456" transform="translate(-97.292 -167.504)" fill="#06110a"/>
        <path id="Trazado_1241117" data-name="Trazado 1241117" d="M133.852,241.463l-.219-.391.219.391" transform="translate(-101.65 -183.374)" fill="#06110a"/>
        <path id="Trazado_1241118" data-name="Trazado 1241118" d="M165.739,241.463l-.219-.391.219.391" transform="translate(-125.905 -183.374)" fill="#06110a"/>
        <path id="Trazado_1241119" data-name="Trazado 1241119" d="M158.635,245.072l-.2.458.2-.458" transform="translate(-120.518 -186.417)" fill="#06110a"/>
        <path id="Trazado_1241120" data-name="Trazado 1241120" d="M128.02,215.464l.136-.193-.136.193" transform="translate(-97.38 -163.748)" fill="#06110a"/>
        <rect id="Rectángulo_410578" data-name="Rectángulo 410578" width="2.472" height="2.36" transform="translate(16.552 21.72)" fill="#0f0e0d"/>
        <rect id="Rectángulo_410579" data-name="Rectángulo 410579" width="2.417" height="2.403" transform="translate(8.96 21.717)" fill="#0f0e0d"/>
        <rect id="Rectángulo_410580" data-name="Rectángulo 410580" width="2.426" height="2.493" transform="translate(15.337 30.569)" fill="#111212"/>
        <rect id="Rectángulo_410581" data-name="Rectángulo 410581" width="2.4" height="2.422" transform="translate(10.264 30.605)" fill="#0e0d0c"/>
      </g>
    </g>
  </g>
</svg>
