<svg xmlns="http://www.w3.org/2000/svg" xmlns:xlink="http://www.w3.org/1999/xlink" width="118" height="118" viewBox="0 0 118 118">
  <defs>
    <filter id="Elipse_12115" x="0" y="0" width="118" height="118" filterUnits="userSpaceOnUse">
      <feOffset dy="3" input="SourceAlpha"/>
      <feGaussianBlur stdDeviation="3" result="blur"/>
      <feFlood flood-opacity="0.161"/>
      <feComposite operator="in" in2="blur"/>
      <feComposite in="SourceGraphic"/>
    </filter>
    <clipPath id="clip-path">
      <rect id="Rectángulo_410944" data-name="Rectángulo 410944" width="69.378" height="58.009" fill="none"/>
    </clipPath>
  </defs>
  <g id="Grupo_1187432" data-name="Grupo 1187432" transform="translate(-321.781 -4441)">
    <g id="Grupo_1184522" data-name="Grupo 1184522" transform="translate(-424 595)">
      <g id="Grupo_1181949" data-name="Grupo 1181949" transform="translate(-54 1303)">
        <g transform="matrix(1, 0, 0, 1, 799.78, 2543)" filter="url(#Elipse_12115)">
          <g id="Elipse_12115-2" data-name="Elipse 12115" transform="translate(9 6)" fill="#bfb693" stroke="#857f66" stroke-width="1.5">
            <circle cx="50" cy="50" r="50" stroke="none"/>
            <circle cx="50" cy="50" r="49.25" fill="none"/>
          </g>
        </g>
      </g>
    </g>
    <g id="Grupo_1189613" data-name="Grupo 1189613" transform="translate(346.093 4467.995)">
      <g id="Grupo_1189612" data-name="Grupo 1189612" clip-path="url(#clip-path)">
        <path id="Trazado_1242500" data-name="Trazado 1242500" d="M23.847,20.176c.829-.973,1.793-.477,2.57-.06a2.336,2.336,0,0,0,3.41-.762,20.862,20.862,0,0,1,2.2-2.155,8.567,8.567,0,0,1-1.992-6.372A7.929,7.929,0,0,1,38.5,3.756,1.773,1.773,0,0,0,40.3,3.018,7.981,7.981,0,0,1,49.555.573a8.237,8.237,0,0,1,5,8.033,1.7,1.7,0,0,0,.552,1.133,8.807,8.807,0,0,1,2.831,4.031A2.68,2.68,0,0,0,58.82,14.8q1.889,1.678,3.82,3.309a2.964,2.964,0,0,0,1.031.642A7.681,7.681,0,0,1,68.753,29.1c-.153.376-.323.928-.162,1.218a5.523,5.523,0,0,1-.033,5.738,6.85,6.85,0,0,1,.747,1.965c.048,6.135.01,12.271.047,18.407.007,1.179-.438,1.579-1.593,1.578q-33.092-.03-66.184-.038A5.368,5.368,0,0,1,0,57.45V53.658l1.029-.614c1.655.341.735,1.887,1.3,2.842H3.51q29.665,0,59.329,0c.359,0,.718-.038,1.076-.057h3.192V45.255H63.917c-.223-.02-.447-.057-.671-.057q-30.011,0-60.022,0c-.343,0-.686.069-1.12.116a23.808,23.808,0,0,1-.047,3.436c-.09.6-.654,1.128-1,1.688L0,49.866v-13c.362-.111.72-.242,1.088-.33.7-.168,1.729-.073,2.055-.509.932-1.249,2.126-2.407,2.042-4.235-.108-2.335-.037-4.678-.023-7.017.011-1.749.677-2.332,2.387-2.167a4.046,4.046,0,0,0,.749-.083c.864-.083,1.728-.163,2.89-.271.372-.8.97-2.03,1.512-3.284a3.342,3.342,0,0,0,.105-1.021c.128-1.572,1.1-2.249,2.576-1.75,1.645.555,3.271,1.169,4.918,1.716a1.362,1.362,0,0,1,1.094,1.6c-.594.734-1.3.613-2.069.319-1.364-.519-2.747-.987-4.182-1.5l-1.182,4.321c6.177,2.23,12.246,4.44,18.333,6.6a1.652,1.652,0,0,1,1.333,1.85c-.073,1.782-.02,3.569-.02,5.339h2.116c0-1.391.02-2.692-.006-3.992-.023-1.153.416-1.722,1.634-1.43l2.829,1.045c.247-1.567.466-2.953.709-4.487l-2.983-.964c-1.418-.547-2.827-1.119-4.255-1.637-2.156-.782-2.269-1.087-.953-2.9l-.8-2.105c-.87.964-1.52,1.774-2.263,2.487-.985.945-5.453-.425-5.788-1.745a2.133,2.133,0,0,1,0-.538M5.694,36.478l5.671,0h2.241C10.484,32.9,12.2,28.8,11.581,25.052l-2.1-.643-2.187.685c0,.486.015,1.022,0,1.558-.11,3.3.653,6.745-1.6,9.689l-.178.1.184.034m31.919-12.4c.254.091.506.19.762.273,1.809.584,1.908.53,2.614-1.2a5.708,5.708,0,0,1,3.674-3.318,2.537,2.537,0,0,0,1.26-.97,9.68,9.68,0,0,1,6.249-4.753c1.064-.237,2.171-.28,3.338-.422-.534-1.564-1.812-2.271-2.957-3.1-.026-.917-.028-1.834-.083-2.749a6.09,6.09,0,0,0-4.4-5.54,5.934,5.934,0,0,0-6.53,2.672,1.9,1.9,0,0,1-2.353.966,5.846,5.846,0,0,0-6.269,2.7,6.124,6.124,0,0,0,.62,7.042,3.073,3.073,0,0,1,.581,2.022,6.027,6.027,0,0,0,3.5,6.385M59.551,36.42a39.558,39.558,0,0,0,4.553-.065c2.865-.356,3.96-2.781,2.419-5.18a1.816,1.816,0,0,1-.058-2.207,5.4,5.4,0,0,0-3.368-8.1A3.55,3.55,0,0,1,60.8,19.235a7.419,7.419,0,0,0-9.126-2.721,6.456,6.456,0,0,0-4.1,3.812,2.385,2.385,0,0,1-2.051,1.6,3.142,3.142,0,0,0-2.474,4.54,2.511,2.511,0,0,1-.131,2.512,3.2,3.2,0,0,0,1.811,4.7A11.232,11.232,0,0,1,46.6,35.05,6.012,6.012,0,0,0,48.686,36.3c1.5.242,3.054.1,4.568.268.553.063,1.056.568,1.581.871-.177,1.333-1.2,1.1-2.075,1.1q-24.03.008-48.06,0H2.195v4.542H3.763q15.166,0,30.333,0,14.895-.007,29.79-.028h3.3c0-.6,0-1.041,0-1.479.012-3.3.012-3.3-3.363-2.971-1.623-.021-3.246-.065-4.868-.055-.839.005-1.392-.282-1.549-1.15.407-1,1.357-.818,2.145-.989m-28.026.088c0-1.557-.056-2.907.021-4.25.047-.832-.272-1.162-1.026-1.426C26.545,29.446,22.592,28,18.63,26.574c-1.571-.564-3.145-1.117-4.822-1.713,0,2.61-.012,5,.011,7.383a2.721,2.721,0,0,0,.258,1.163c1.03,2.045,2.237,3.423,5.013,3.189,4.062-.343,8.175-.088,12.435-.088m13.265-.037.164-.391-7.078-2.61v3Z" transform="translate(0 0)" fill="#120d09"/>
        <path id="Trazado_1242501" data-name="Trazado 1242501" d="M1.029,186.587,0,187.2v-3.791l1.053.572-.024,2.606" transform="translate(0 -133.542)" fill="#f8f1ed"/>
        <path id="Trazado_1242502" data-name="Trazado 1242502" d="M74.744,80.109c-1.218-.292-1.656.278-1.634,1.43.026,1.3.006,2.6.006,3.992H71c0-1.77-.053-3.557.02-5.339a1.652,1.652,0,0,0-1.333-1.85c-6.087-2.159-12.156-4.369-18.333-6.6l1.182-4.322c1.435.511,2.818.979,4.182,1.5.773.294,1.475.415,2.069-.319l2.453.665a2.086,2.086,0,0,0,0,.538c.334,1.319,4.8,2.69,5.787,1.745.743-.713,1.393-1.523,2.263-2.487l.8,2.1c-1.315,1.812-1.2,2.117.953,2.9,1.429.518,2.837,1.089,4.255,1.637q-.277,2.2-.554,4.406" transform="translate(-37.391 -49.091)" fill="#e09977"/>
        <path id="Trazado_1242503" data-name="Trazado 1242503" d="M3.785,174.077q.012-1.3.024-2.606c.35-.56.915-1.089,1-1.688a23.809,23.809,0,0,0,.047-3.436c.434-.047.777-.116,1.119-.116q30.011-.008,60.022,0c.223,0,.447.038.671.057q0,5.286,0,10.572c-.359.02-.718.057-1.076.057q-29.665,0-59.329,0H5.081c-.56-.956.359-2.5-1.3-2.842m29.348-2.041c.5-.7,1-1.109.975-1.473s-.6-.98-.909-.966a1.4,1.4,0,0,0-1.026.911c-.049.36.47.8.96,1.528m13.477.583c-.725-.433-1.163-.9-1.508-.843-.378.067-.669.624-1,.968.374.352.709.905,1.134.986.292.055.709-.545,1.372-1.11m-23.505-.691c-.5.633-1.044,1.014-1.037,1.385s.556.738.867,1.107c.394-.336,1-.614,1.112-1.028.083-.3-.477-.782-.942-1.464m-9.33-1.314c-.68-.52-1.1-1.074-1.414-1.023-.43.071-.782.606-1.168.942.344.342.654.905,1.04.963.36.054.8-.43,1.542-.883m45.206,1.433c.449-.747.923-1.185.872-1.55s-.654-.925-.971-.9a1.367,1.367,0,0,0-.938.971c-.022.367.507.767,1.036,1.477" transform="translate(-2.756 -121.032)" fill="#cf6937"/>
        <path id="Trazado_1242504" data-name="Trazado 1242504" d="M63.283,137.59c.157.868.71,1.156,1.549,1.15,1.623-.01,3.245.033,4.868.055q.031,2.225.062,4.45-14.895.015-29.79.028-15.167.007-30.333,0H8.072v-4.542h2.505q24.03,0,48.06,0c.873,0,1.9.229,2.075-1.1l2.571-.035" transform="translate(-5.877 -100.181)" fill="#69a54f"/>
        <path id="Trazado_1242505" data-name="Trazado 1242505" d="M171.11,81.634l-2.571.034c-.526-.3-1.029-.809-1.581-.871-1.514-.171-3.07-.027-4.568-.268a6.016,6.016,0,0,1-2.083-1.254,11.247,11.247,0,0,0-1.871-1.375,3.2,3.2,0,0,1-1.811-4.7,2.511,2.511,0,0,0,.131-2.512,3.143,3.143,0,0,1,2.474-4.54,2.386,2.386,0,0,0,2.051-1.6,6.456,6.456,0,0,1,4.1-3.812l3.591,3.05c.113.488.119,1.332.356,1.4a2.464,2.464,0,0,1,1.912,1.987c.034.157.328.333.524.366a1.777,1.777,0,0,1,1.526,1.478c.086.316.524.537.8.8q-.013,1.761-.026,3.521a5.869,5.869,0,0,0-4.132-2.724c-.807-.1-1.532.027-1.648.924-.108.841.534,1.1,1.3,1.188a2.763,2.763,0,0,1,2.624,1.982,3.213,3.213,0,0,0,2.232,2.768l-1.186,3.162c-.788.171-1.738-.009-2.145.989m-7.647-11.109a3.222,3.222,0,0,0-3.342,2.766c-.04.421.36.883.558,1.325.465-.228,1.218-.357,1.337-.7a2.027,2.027,0,0,1,1.519-1.469,1.312,1.312,0,0,0,.691-1.091c-.07-.385-.617-.683-.763-.827" transform="translate(-113.703 -44.225)" fill="#579838"/>
        <path id="Trazado_1242506" data-name="Trazado 1242506" d="M123.513,29.716a6.026,6.026,0,0,1-3.5-6.385,3.073,3.073,0,0,0-.581-2.022,6.124,6.124,0,0,1-.619-7.042,5.846,5.846,0,0,1,6.268-2.7,1.9,1.9,0,0,0,2.353-.965,5.934,5.934,0,0,1,6.53-2.672,6.089,6.089,0,0,1,4.4,5.539c.055.915.057,1.833.083,2.749l-1.947.577c-.172-1.713-2.844-5.034-4.462-5.518A2.628,2.628,0,0,0,131,11.129c-.842.111-1.33,1.212-.688,1.544a5.285,5.285,0,0,1,2.472,2.511c.057.118.346.1.471.214a11.559,11.559,0,0,1,1.131,1.11,7.722,7.722,0,0,1,.627,1,15.436,15.436,0,0,0-5.538,4.921c-.129.2-.535.225-.813.331-.307-.343-.593-.955-.924-.98a3,3,0,0,0-2.9,1.519c-.545.886-.808,1.8.094,2.653l-1.414,3.765m-2.976-11.08c.077.125.205.552.489.73a1.082,1.082,0,0,0,1,.013,4.616,4.616,0,0,0,1.6-1.692c.348-1,.744-1.631,1.844-1.836a1.278,1.278,0,0,0,.612-1.108,1.42,1.42,0,0,0-1.049-.811c-1.47-.092-4.431,2.911-4.492,4.7" transform="translate(-85.9 -5.635)" fill="#527f3c"/>
        <path id="Trazado_1242507" data-name="Trazado 1242507" d="M197.945,79.068l1.186-3.162c.094.247.122.565.3.726a12.859,12.859,0,0,0,1.258.933c.258-.507.8-1.072.709-1.507a3.35,3.35,0,0,0-1.125-1.894,3.747,3.747,0,0,1-1.51-2.4q.013-1.761.025-3.522c1.281-.446,1.612-1.48.645-2.694a15.67,15.67,0,0,0-3.181-3.157c-.61-.423-1.708-.145-2.585-.184l-3.591-3.05a7.419,7.419,0,0,1,9.126,2.721,3.549,3.549,0,0,0,2.292,1.631,5.4,5.4,0,0,1,3.368,8.1,1.816,1.816,0,0,0,.058,2.207c1.541,2.4.445,4.824-2.419,5.18a39.563,39.563,0,0,1-4.553.065" transform="translate(-138.394 -42.648)" fill="#527e3c"/>
        <path id="Trazado_1242508" data-name="Trazado 1242508" d="M143.485,45.473c.278-.106.684-.129.813-.331a15.434,15.434,0,0,1,5.538-4.92l1.5-.711,1.947-.577c1.144.833,2.423,1.54,2.957,3.1-1.167.141-2.274.185-3.338.421a9.68,9.68,0,0,0-6.249,4.753,2.537,2.537,0,0,1-1.26.97,5.708,5.708,0,0,0-3.674,3.318c-.707,1.731-.805,1.784-2.614,1.2-.257-.083-.508-.182-.762-.273l1.414-3.765c.265-.006.643.1.777-.037,1.011-1.025,1.975-2.1,2.954-3.155" transform="translate(-100.727 -28.349)" fill="#37542c"/>
        <path id="Trazado_1242509" data-name="Trazado 1242509" d="M235.082,177.018q0-5.286,0-10.572h3.191v10.572Z" transform="translate(-171.166 -121.191)" fill="#bd5726"/>
        <path id="Trazado_1242510" data-name="Trazado 1242510" d="M20.92,101.71c2.256-2.945,1.493-6.39,1.6-9.69.018-.535,0-1.072,0-1.558l2.187-.685c0,.993-.009,1.985,0,2.978.037,3.1-.561,6.342,1.854,8.956.026.028.019.086.027.131l-5.671,0a.152.152,0,0,0-.006-.137" transform="translate(-15.232 -65.368)" fill="#e29b78"/>
        <path id="Trazado_1242511" data-name="Trazado 1242511" d="M36.654,101.843c-.008-.044,0-.1-.027-.131-2.415-2.613-1.817-5.851-1.855-8.955-.012-.992,0-1.985,0-2.978l2.1.643c.624,3.752-1.1,7.85,2.026,11.421Z" transform="translate(-25.289 -65.368)" fill="#d5825e"/>
        <path id="Trazado_1242512" data-name="Trazado 1242512" d="M234.8,146.1q-.031-2.225-.062-4.449c3.375-.331,3.375-.331,3.363,2.971,0,.438,0,.877,0,1.479Z" transform="translate(-170.918 -103.033)" fill="#39562d"/>
        <path id="Trazado_1242513" data-name="Trazado 1242513" d="M137.382,102.287q.277-2.2.554-4.406l2.983.964-.708,4.487-2.829-1.045" transform="translate(-100.029 -71.268)" fill="#d7835e"/>
        <path id="Trazado_1242514" data-name="Trazado 1242514" d="M20.445,133.663a.152.152,0,0,1,.006.137l-.184-.034.178-.1" transform="translate(-14.757 -97.322)" fill="#d5825e"/>
        <path id="Trazado_1242515" data-name="Trazado 1242515" d="M109.148,181.057c-.489-.731-1.009-1.169-.96-1.528a1.4,1.4,0,0,1,1.026-.911c.309-.015.882.6.909.966s-.48.769-.975,1.473" transform="translate(-78.771 -130.054)" fill="#190f07"/>
        <path id="Trazado_1242516" data-name="Trazado 1242516" d="M154.584,187.46c-.664.565-1.081,1.166-1.372,1.11-.425-.081-.76-.634-1.134-.986.329-.344.62-.9,1-.968.344-.061.782.411,1.508.843" transform="translate(-110.73 -135.874)" fill="#1e1109"/>
        <path id="Trazado_1242517" data-name="Trazado 1242517" d="M72.068,187.193c.465.682,1.026,1.162.942,1.464-.114.414-.718.692-1.112,1.028-.311-.368-.86-.732-.867-1.107s.532-.752,1.037-1.385" transform="translate(-51.718 -136.297)" fill="#1f1209"/>
        <path id="Trazado_1242518" data-name="Trazado 1242518" d="M33.615,179.614c-.742.453-1.182.937-1.541.883-.386-.058-.7-.621-1.041-.963.386-.336.738-.872,1.168-.942.317-.052.734.5,1.414,1.022" transform="translate(-22.595 -130.032)" fill="#190f07"/>
        <path id="Trazado_1242519" data-name="Trazado 1242519" d="M204.019,181.077c-.529-.709-1.059-1.11-1.036-1.477a1.367,1.367,0,0,1,.938-.971c.316-.028.92.535.971.9s-.423.8-.872,1.55" transform="translate(-147.793 -130.061)" fill="#190f07"/>
        <path id="Trazado_1242520" data-name="Trazado 1242520" d="M206.511,99.736a3.747,3.747,0,0,0,1.51,2.4,3.349,3.349,0,0,1,1.125,1.894c.09.435-.451,1-.709,1.507a12.86,12.86,0,0,1-1.258-.933c-.174-.161-.2-.479-.3-.726a3.214,3.214,0,0,1-2.232-2.768,2.764,2.764,0,0,0-2.623-1.983c-.762-.088-1.4-.347-1.3-1.188.115-.9.84-1.019,1.648-.924a5.869,5.869,0,0,1,4.132,2.724" transform="translate(-146.147 -70.616)" fill="#071006"/>
        <path id="Trazado_1242521" data-name="Trazado 1242521" d="M203.28,71.812c.877.039,1.975-.239,2.585.184a15.654,15.654,0,0,1,3.181,3.157c.967,1.213.636,2.247-.645,2.694-.278-.264-.717-.485-.8-.8a1.777,1.777,0,0,0-1.526-1.478c-.2-.033-.49-.209-.524-.366a2.464,2.464,0,0,0-1.912-1.987c-.237-.07-.244-.915-.356-1.4" transform="translate(-148.01 -52.248)" fill="#081007"/>
        <path id="Trazado_1242522" data-name="Trazado 1242522" d="M174.058,96.733c.146.144.693.442.763.827a1.312,1.312,0,0,1-.691,1.091,2.027,2.027,0,0,0-1.519,1.469c-.119.347-.872.476-1.337.7-.2-.443-.6-.9-.558-1.325a3.222,3.222,0,0,1,3.342-2.766" transform="translate(-124.298 -70.432)" fill="#071006"/>
        <path id="Trazado_1242523" data-name="Trazado 1242523" d="M168.743,25.846l-1.5.71a7.672,7.672,0,0,0-.626-1,11.5,11.5,0,0,0-1.131-1.11c-.125-.111-.414-.1-.471-.214a5.283,5.283,0,0,0-2.472-2.512c-.642-.332-.154-1.433.688-1.544a2.622,2.622,0,0,1,1.048.15c1.619.484,4.29,3.805,4.462,5.518" transform="translate(-118.137 -14.683)" fill="#091108"/>
        <path id="Trazado_1242524" data-name="Trazado 1242524" d="M127.4,35.219c.061-1.791,3.022-4.795,4.492-4.7a1.42,1.42,0,0,1,1.049.811,1.278,1.278,0,0,1-.612,1.108c-1.1.205-1.5.839-1.844,1.836a4.616,4.616,0,0,1-1.6,1.692,1.082,1.082,0,0,1-1-.013c-.284-.179-.412-.6-.489-.73" transform="translate(-92.758 -22.218)" fill="#091008"/>
        <path id="Trazado_1242525" data-name="Trazado 1242525" d="M145.684,60.329c-.979,1.058-1.942,2.13-2.954,3.155-.134.136-.512.03-.777.037-.9-.853-.64-1.767-.095-2.653a3,3,0,0,1,2.9-1.52c.331.026.617.638.924.98" transform="translate(-102.926 -43.205)" fill="#091008"/>
      </g>
    </g>
  </g>
</svg>
