<svg xmlns="http://www.w3.org/2000/svg" xmlns:xlink="http://www.w3.org/1999/xlink" width="118" height="118" viewBox="0 0 118 118">
  <defs>
    <filter id="Elipse_12115" x="0" y="0" width="118" height="118" filterUnits="userSpaceOnUse">
      <feOffset dy="3" input="SourceAlpha"/>
      <feGaussianBlur stdDeviation="3" result="blur"/>
      <feFlood flood-opacity="0.161"/>
      <feComposite operator="in" in2="blur"/>
      <feComposite in="SourceGraphic"/>
    </filter>
    <clipPath id="clip-path">
      <rect id="Rectángulo_410587" data-name="Rectángulo 410587" width="62.021" height="62.015" fill="none"/>
    </clipPath>
  </defs>
  <g id="Grupo_1188201" data-name="Grupo 1188201" transform="translate(-799.781 -2543)">
    <g transform="matrix(1, 0, 0, 1, 799.78, 2543)" filter="url(#Elipse_12115)">
      <g id="Elipse_12115-2" data-name="Elipse 12115" transform="translate(9 6)" fill="#fbe0aa" stroke="#ab7c1f" stroke-width="2">
        <circle cx="50" cy="50" r="50" stroke="none"/>
        <circle cx="50" cy="50" r="49" fill="none"/>
      </g>
    </g>
    <g id="Grupo_1188206" data-name="Grupo 1188206" transform="translate(827.771 2567.992)">
      <g id="Grupo_1188205" data-name="Grupo 1188205" clip-path="url(#clip-path)">
        <path id="Trazado_1241121" data-name="Trazado 1241121" d="M15.357,15.019c.858-1.338,1.67-2.778,2.648-4.1a31.8,31.8,0,0,1,10.68-8.892c1.256-.68,2.567-1.265,3.88-1.83a1.6,1.6,0,0,1,2.4,1.179c.3,1.063.552,2.139.813,3.166,1.2-.575,2.394-1.236,3.654-1.737A27.031,27.031,0,0,1,48.644,1.1a45.621,45.621,0,0,1,9.771.782c1.2.221,1.563.666,1.842,2.322a44.49,44.49,0,0,1,.648,9.716c-.226,4.35-1.075,8.539-3.564,12.3,1.142.29,2.249.546,3.341.854a1.607,1.607,0,0,1,1.175,2.317c-2.523,6.16-6.182,11.462-11.7,15.337-.516.362-1.062.685-1.608,1-.525.3-1.068.576-1.677.9.2.149.378.279.551.416,1.179.937,2.378,1.849,3.526,2.822a1.605,1.605,0,0,1,.007,2.693A33.858,33.858,0,0,1,34.173,61a25.171,25.171,0,0,1-14.219-2c-1.395-.589-2.727-1.327-4.113-2.009-1.411,1.408-2.85,2.844-4.289,4.279-1,.994-1.8.992-2.812-.015Q4.725,57.246.715,53.231A1.656,1.656,0,0,1,.7,50.517c1.45-1.455,2.9-2.906,4.295-4.3-.807-1.739-1.662-3.4-2.357-5.124a25.385,25.385,0,0,1-1.9-9.881A27.579,27.579,0,0,1,4.325,18.409a37.55,37.55,0,0,1,4.987-7.183c1.066-1.2,1.969-1.227,3-.007,1.065,1.261,2.068,2.574,3.046,3.8m2.058,29.591c.491-.24.831-.41,1.173-.573C24.32,41.3,30.26,40.288,36.5,41.934a.976.976,0,0,0,1.208-.41,17.666,17.666,0,0,0,3.27-8.647,39.509,39.509,0,0,0-.253-11.092c-.047-.318-.15-.5-.514-.539-1.062-.106-2.117-.278-3.18-.371a33.593,33.593,0,0,0-9.843.419,16.307,16.307,0,0,0-6.674,2.868,1.056,1.056,0,0,0-.484,1.341,20.064,20.064,0,0,1,.844,6.657,28.4,28.4,0,0,1-3.156,11.784c-.085.164-.153.337-.3.666M44.534,26.285a35.626,35.626,0,0,1,8.7-.524,1.025,1.025,0,0,0,.689-.36,13.794,13.794,0,0,0,2.684-5.045c1.546-5.1,1.291-10.25.5-15.509-1.1-.13-2.174-.263-3.252-.383a32.571,32.571,0,0,0-10.425.428,15.916,15.916,0,0,0-6.576,2.913,1.2,1.2,0,0,0-.608,1.189,11.235,11.235,0,0,1,.1,2.093c-.12,2.127-.291,4.251-.445,6.426.073.015.238.059.406.08,1.837.23,3.676.442,5.51.689,1.315.177,1.738.606,1.916,1.909.275,2.006.528,4.014.8,6.1M10.813,14.39A33.421,33.421,0,0,0,4.894,25.21a20.492,20.492,0,0,0-.7,10.011,30.494,30.494,0,0,0,5.844,12.648c.226.3.475.593.832,1.038,1.174-1.835,2.366-3.507,3.36-5.289,2.83-5.073,4.22-10.43,3.022-16.278a31.2,31.2,0,0,0-6.435-12.95m2.419,36.822A34.869,34.869,0,0,0,22.9,56.744a20.881,20.881,0,0,0,12.272.787,30.372,30.372,0,0,0,9.584-4.243c.959-.623,1.876-1.31,2.854-2-.187-.168-.277-.261-.379-.34a32.135,32.135,0,0,0-11.134-5.8,20.548,20.548,0,0,0-9.515-.419,28.637,28.637,0,0,0-9.914,4.1c-1.157.733-2.256,1.556-3.435,2.376m27.254-7.954c.855.4,1.632.8,2.437,1.136a1.211,1.211,0,0,0,.857.026,32.132,32.132,0,0,0,3.47-1.662,26.631,26.631,0,0,0,9-9.348c.71-1.16,1.33-2.375,2.025-3.626a32.315,32.315,0,0,0-13.79-.207c-.191,4.916-1.059,9.588-4,13.681M18.758,21.471c.185-.112.308-.2.442-.265,1.56-.771,3.076-1.657,4.693-2.281A26.289,26.289,0,0,1,31.973,17.5c.264-.014.577.091.623-.364.159-1.582.459-3.158.491-4.741.037-1.871-.107-3.75-.256-5.619-.078-.98-.332-1.946-.518-2.985A32.663,32.663,0,0,0,21.62,11.522a18.953,18.953,0,0,0-4,6.776,1.244,1.244,0,0,0,.007.8c.332.781.727,1.535,1.133,2.373M7.021,48.953,4.166,51.8l6.021,6.019,2.806-2.821a25.009,25.009,0,0,1-5.972-6.04" transform="translate(0 0)" fill="#050a07"/>
        <path id="Trazado_1241122" data-name="Trazado 1241122" d="M53.412,87.4c.149-.33.217-.5.3-.666A28.39,28.39,0,0,0,56.87,74.948a20.06,20.06,0,0,0-.844-6.656,1.056,1.056,0,0,1,.484-1.341,16.308,16.308,0,0,1,6.674-2.869,33.616,33.616,0,0,1,9.843-.419c1.063.093,2.119.266,3.181.372.364.037.467.221.514.539a39.509,39.509,0,0,1,.253,11.092,17.671,17.671,0,0,1-3.27,8.647.977.977,0,0,1-1.208.41c-6.24-1.646-12.18-.633-17.912,2.1-.343.164-.682.333-1.174.573" transform="translate(-35.998 -42.79)" fill="#418738"/>
        <path id="Trazado_1241123" data-name="Trazado 1241123" d="M118.746,35.04c-.272-2.081-.525-4.09-.8-6.1-.178-1.3-.6-1.732-1.916-1.909-1.835-.247-3.674-.459-5.511-.689-.168-.021-.333-.066-.406-.08.154-2.174.325-4.3.445-6.426a11.238,11.238,0,0,0-.1-2.093,1.2,1.2,0,0,1,.608-1.189,15.911,15.911,0,0,1,6.576-2.912,32.571,32.571,0,0,1,10.425-.428c1.078.12,2.154.253,3.252.383.79,5.258,1.046,10.412-.5,15.509a13.794,13.794,0,0,1-2.684,5.045,1.025,1.025,0,0,1-.689.36,35.61,35.61,0,0,0-8.7.524" transform="translate(-74.212 -8.755)" fill="#61a638"/>
        <path id="Trazado_1241124" data-name="Trazado 1241124" d="M18.8,44.135A31.2,31.2,0,0,1,25.23,57.084c1.2,5.848-.193,11.2-3.022,16.278-.994,1.782-2.187,3.454-3.36,5.289-.358-.445-.606-.733-.832-1.038a30.492,30.492,0,0,1-5.844-12.648,20.492,20.492,0,0,1,.7-10.011A33.423,33.423,0,0,1,18.8,44.135" transform="translate(-7.982 -29.745)" fill="#4d9d42"/>
        <path id="Trazado_1241125" data-name="Trazado 1241125" d="M40.582,142.916c1.179-.82,2.278-1.643,3.435-2.376a28.632,28.632,0,0,1,9.914-4.1,20.547,20.547,0,0,1,9.515.419,32.129,32.129,0,0,1,11.134,5.8c.1.079.193.172.379.34-.977.687-1.895,1.373-2.854,2a30.38,30.38,0,0,1-9.584,4.243,20.881,20.881,0,0,1-12.272-.788,34.872,34.872,0,0,1-9.667-5.531" transform="translate(-27.351 -91.704)" fill="#35702d"/>
        <path id="Trazado_1241126" data-name="Trazado 1241126" d="M124.174,103.061c2.938-4.093,3.806-8.766,4-13.682a32.321,32.321,0,0,1,13.79.207c-.7,1.251-1.315,2.466-2.026,3.626a26.626,26.626,0,0,1-9,9.348,32.067,32.067,0,0,1-3.47,1.662,1.209,1.209,0,0,1-.857-.026c-.8-.334-1.583-.732-2.437-1.136" transform="translate(-83.689 -59.803)" fill="#4d9d42"/>
        <path id="Trazado_1241127" data-name="Trazado 1241127" d="M55.046,29.3c-.406-.837-.8-1.591-1.133-2.373a1.243,1.243,0,0,1-.007-.8,18.949,18.949,0,0,1,4-6.776A32.66,32.66,0,0,1,68.6,11.614c.187,1.038.441,2,.518,2.985.148,1.869.293,3.748.256,5.619-.031,1.583-.331,3.16-.491,4.741-.046.455-.359.35-.623.365a26.289,26.289,0,0,0-8.081,1.428c-1.617.624-3.133,1.51-4.693,2.281-.134.066-.257.154-.442.265" transform="translate(-36.288 -7.827)" fill="#35702d"/>
        <path id="Trazado_1241128" data-name="Trazado 1241128" d="M15.632,150.144a25.009,25.009,0,0,0,5.972,6.04L18.8,159.005l-6.021-6.019,2.854-2.842" transform="translate(-8.612 -101.191)" fill="#1d3c19"/>
      </g>
    </g>
  </g>
</svg>
