<svg xmlns="http://www.w3.org/2000/svg" xmlns:xlink="http://www.w3.org/1999/xlink" width="118" height="118" viewBox="0 0 118 118">
  <defs>
    <filter id="Elipse_12115" x="0" y="0" width="118" height="118" filterUnits="userSpaceOnUse">
      <feOffset dy="3" input="SourceAlpha"/>
      <feGaussianBlur stdDeviation="3" result="blur"/>
      <feFlood flood-opacity="0.161"/>
      <feComposite operator="in" in2="blur"/>
      <feComposite in="SourceGraphic"/>
    </filter>
    <clipPath id="clip-path">
      <rect id="Rectángulo_410588" data-name="Rectángulo 410588" width="60.643" height="64.138" fill="none"/>
    </clipPath>
  </defs>
  <g id="Grupo_1188202" data-name="Grupo 1188202" transform="translate(-799.781 -2543)">
    <g transform="matrix(1, 0, 0, 1, 799.78, 2543)" filter="url(#Elipse_12115)">
      <g id="Elipse_12115-2" data-name="Elipse 12115" transform="translate(9 6)" fill="#fbe0aa" stroke="#ab7c1f" stroke-width="2">
        <circle cx="50" cy="50" r="50" stroke="none"/>
        <circle cx="50" cy="50" r="49" fill="none"/>
      </g>
    </g>
    <g id="Grupo_1188208" data-name="Grupo 1188208" transform="translate(828.459 2566.931)">
      <g id="Grupo_1188207" data-name="Grupo 1188207" clip-path="url(#clip-path)">
        <path id="Trazado_1241129" data-name="Trazado 1241129" d="M91.809,0A1.949,1.949,0,0,1,92.95,2.008c-.038,3.377-.015,6.754-.015,10.284.186-.3.3-.475.41-.659Q96.277,6.56,99.208,1.485c.717-1.24,1.485-1.445,2.737-.723q6.155,3.55,12.307,7.105a1.678,1.678,0,0,1,.723,2.686Q104.1,29.369,93.243,48.19a2.332,2.332,0,0,0-.3,1.1c-.02,4.319-.012,8.638-.013,12.957,0,1.292-.572,1.863-1.861,1.864H76.614c-1.262,0-1.845-.564-1.845-1.811q0-11.861-.006-23.723c0-.575.113-1.036.753-1.184.891.053,1.135.306,1.14,1.187,0,.313,0,.625,0,.938v5.254l1.257.28A4.892,4.892,0,0,1,81,48.855c.244,1.192.256,2.43.412,3.642a20.524,20.524,0,0,0,.537,3.3,8.47,8.47,0,0,0,4.467,5.335,8.227,8.227,0,0,0,4.609,1.089V60.977c.009-1.188,0-2.376.035-3.563a.679.679,0,0,0-.538-.8,10.635,10.635,0,0,1-6.483-6.1,26.74,26.74,0,0,1-1.886-7.787,43.459,43.459,0,0,1,.467-12.558,32.64,32.64,0,0,0,.646-6c-.061-4.05-2.219-7.04-5.346-9.417l-1.26-.972v.849q0,9.492,0,18.986c0,.941-.234,1.194-1.139,1.247-.6-.138-.756-.56-.754-1.121.01-2.462,0-4.924,0-7.385,0-8.033.012-16.065-.016-24.1A2.269,2.269,0,0,1,75.78,0ZM94.2,42.613l2.027-3.376a2.578,2.578,0,0,0-2.032-.648,2.76,2.76,0,0,0-.715.164c-.209.11-.513.323-.516.5-.038,1.813-.023,3.626-.023,5.44l.116.03L94.2,42.613M78.042,47.328l-1.349-.657V62.2h7.655l-1.557-1.334a10.927,10.927,0,0,1-2.95-5.593c-.262-1.484-.271-3.012-.433-4.516a4.781,4.781,0,0,0-1.366-3.426M94.031,32.044c-.363.474-.963.912-1.04,1.429a23.242,23.242,0,0,0-.049,3.362l1.253-.177a4.987,4.987,0,0,1,2.988.878l3.942-6.821a9.848,9.848,0,0,1-3.214-4.689l-3.88,6.02M97.977,9.935,97.2,8.781c-1.434,2.476-2.788,4.813-4.14,7.152a.645.645,0,0,0-.114.285c-.008,1.053-.005,2.107-.005,3.16l.166.137,1.178-1c.216-.548.473-1.085.637-1.648a1,1,0,0,1,.991-.838.934.934,0,0,1,.892.936,2.8,2.8,0,0,1-.05.617,4.921,4.921,0,0,1-2.565,3.481,2.475,2.475,0,0,1-.579.216c-.624.068-.7.438-.691.983.028,2.41.012,4.821.012,7.231v.58l.145.032L94.2,28.335c.032-.026.074-.046.094-.079,2.4-4.061,4.543-8.23,4.966-13.037a8.007,8.007,0,0,0-1.282-5.284M77.9,12.281A47.015,47.015,0,0,1,81.548,15.5a13.179,13.179,0,0,1,3.531,11.228c-.04.293-.041.591-.063.928,4.407-2.011,6.2-6.9,5.961-10.853a12.188,12.188,0,0,1-9.2-4.723A12.126,12.126,0,0,1,79.657,1.9h-3v.751c0,2.518.071,5.039-.033,7.553a1.825,1.825,0,0,0,1.28,2.077M99.061,8.029c.075.124.144.253.226.372a10.541,10.541,0,0,1,1.906,6.229,19.067,19.067,0,0,1-1.32,6.451,6.624,6.624,0,0,0-.29,3.805,7.239,7.239,0,0,0,2.527,4.121l2.52-4.362a2.547,2.547,0,0,0-.2-.217,4.521,4.521,0,0,1-1.559-5.216,41.071,41.071,0,0,1,2.14-4.837.825.825,0,0,1,1.18-.372.89.89,0,0,1,.485,1.2c-.156.449-.418.86-.609,1.3a32.231,32.231,0,0,0-1.4,3.322,2.518,2.518,0,0,0,.985,3.056l7.713-13.351L106.87,5.85l-.125-.046.021.139a4.921,4.921,0,0,1,.243.706c.242,1.279.509,2.555.678,3.844a.891.891,0,0,1-.914,1.032c-.56.014-.906-.362-.96-.993a15.191,15.191,0,0,0-.233-1.977,8.615,8.615,0,0,0-3.745-5.6l-.921-.6C100.193,3.6,99.5,4.811,98.8,6.015c-.632,1.094-.634,1.093.257,2.014M91.012,54.765v-30.1A12.731,12.731,0,0,1,84.826,29.9a.52.52,0,0,0-.272.348c-.263,2.021-.613,4.039-.733,6.069a35.621,35.621,0,0,0,.724,9.445,14.329,14.329,0,0,0,2.767,6.479,8.252,8.252,0,0,0,3.7,2.528M91,14.863V1.878c-3.032,0-6.015-.007-9,.018a.662.662,0,0,0-.454.419,10.938,10.938,0,0,0-.144,4.342A10.028,10.028,0,0,0,91,14.863" transform="translate(-54.728 0.001)" fill="#080708"/>
        <path id="Trazado_1241130" data-name="Trazado 1241130" d="M.889,23.05A.945.945,0,0,1,0,21.981Q.008,11.8,0,1.619A1.735,1.735,0,0,1,1.142,0h15.9a1.961,1.961,0,0,1,1.14,2.009q-.028,30.041.005,60.081a1.822,1.822,0,0,1-2.032,2.048c-4.777-.057-9.554-.021-14.332-.022-1.229,0-1.82-.566-1.821-1.771q0-17.805,0-35.61c0-.793.165-1.007.884-1.2.752.123,1,.4,1,1.159.005,1.75,0,3.5,0,5.248,0,.171.023.343.035.515l.269.207L3.265,31.3a11.252,11.252,0,0,0,1-1.713,13.359,13.359,0,0,0,.564-7.737,12.491,12.491,0,0,0-1.673-4.269l-1.1-2.018-.156.072c0,2.082,0,4.164,0,6.247,0,.762-.249,1.039-1,1.163M7.237,60.978c-.026-.29-.044-.58-.08-.868a5.323,5.323,0,0,0-4.01-4.375l-1.212-.291v6.749H7.178c.021-.433.04-.824.058-1.215M3.276,36.57a13.069,13.069,0,0,1,4.947-3.4.863.863,0,0,0,.382-.621c.2-1.693.428-3.387.526-5.088a35.608,35.608,0,0,0-.493-7.779,18.482,18.482,0,0,0-2-6.33A7.944,7.944,0,0,0,3.3,10L1.934,9.3c-.083,1.724-.35,3.357,1.194,4.508.143.228.279.462.43.685,2.505,3.7,3.924,7.69,3.35,12.243-.367,2.911-1.284,5.511-3.766,7.321-.312.163-.635.309-.93.5-.135.087-.3.26-.3.4-.024,1.13-.014,2.261-.014,3.512L3.276,36.57M3.149,53.7a16.127,16.127,0,0,1,2.195.848,7.418,7.418,0,0,1,3.834,6.429v1.213H16.26V60.979c.009-2.232-.058-4.469.057-6.7a2.509,2.509,0,0,0-1.351-2.592A15.869,15.869,0,0,1,9.042,45.22a.958.958,0,0,1,.363-1.4.933.933,0,0,1,1.327.541,15,15,0,0,0,4.586,5.295c.283.213.594.388.927.6V28.968c-.35-.061-.661-.1-.964-.17A3.639,3.639,0,0,1,12.8,23.979a.975.975,0,0,1,1.19-.653.963.963,0,0,1,.631,1.2,6.063,6.063,0,0,0-.147.606,1.578,1.578,0,0,0,1.768,1.793.688.688,0,0,0,.044-.171c0-2.275,0-4.55.014-6.824,0-.373-.187-.455-.479-.507a4.353,4.353,0,0,1-2.338-1.238,6.737,6.737,0,0,1-1.81-4.285c-.157-1.489-.152-3-.4-4.474A9.175,9.175,0,0,0,3.151,1.907H1.893V6.033c0,1.283,0,1.283,1.258,1.707A11.6,11.6,0,0,1,9.7,15.861a45.9,45.9,0,0,1,1.085,5.813A38.383,38.383,0,0,1,10.462,33c-.324,1.989-.571,3.991-.821,5.991-.062.492.016,1,0,1.5a.947.947,0,0,1-.945.962.891.891,0,0,1-.926-.894,14.454,14.454,0,0,1-.017-1.992c.077-1.069.219-2.133.341-3.263a9.726,9.726,0,0,0-5.068,5.4,12.315,12.315,0,0,0-1.117,5.317c-.051,2.313-.013,4.628-.013,6.943v.6l1.257.142M8.541,1.9c2.885,2.388,4.083,4.253,4.669,7.555.235,1.325.212,2.7.325,4.044a5.65,5.65,0,0,0,1.013,3.038,2.421,2.421,0,0,0,1.692,1V1.9Z" transform="translate(0)" fill="#080707"/>
        <path id="Trazado_1241131" data-name="Trazado 1241131" d="M77.607,72.5c.905-.054,1.139-.306,1.139-1.247q0-9.493,0-18.986v-.849l1.26.972q0,15.156,0,30.312l-1.257-.28V77.168c0-.313,0-.625,0-.938-.006-.881-.249-1.134-1.14-1.187q0-1.272,0-2.543" transform="translate(-56.817 -37.644)" fill="#89564d"/>
        <path id="Trazado_1241132" data-name="Trazado 1241132" d="M3.319,65.6c.754-.125,1-.4,1-1.163,0-2.082,0-4.164,0-6.247l.156-.072,1.1,2.018q0,6.6,0,13.192a2.521,2.521,0,0,0,.114.526L4.629,75.213l-.269-.207c-.013-.172-.035-.343-.036-.515,0-1.749,0-3.5,0-5.248,0-.758-.25-1.036-1-1.159q0-1.244,0-2.488" transform="translate(-2.43 -42.547)" fill="#89564d"/>
        <path id="Trazado_1241133" data-name="Trazado 1241133" d="M86.555,85.358q0-15.156,0-30.312c3.127,2.377,5.285,5.367,5.346,9.417a32.686,32.686,0,0,1-.646,6,43.459,43.459,0,0,0-.467,12.558,26.729,26.729,0,0,0,1.886,7.787,10.634,10.634,0,0,0,6.483,6.1.678.678,0,0,1,.538.8c-.03,1.187-.025,2.375-.035,3.563-1.327,0-2.653,0-3.98.013a2.925,2.925,0,0,0-.629.147A8.47,8.47,0,0,1,90.589,96.1a20.525,20.525,0,0,1-.537-3.3c-.156-1.212-.168-2.45-.411-3.642a4.892,4.892,0,0,0-3.086-3.8M89.67,64.792a4.131,4.131,0,0,0-.964-2.607.87.87,0,0,0-1.227-.2.824.824,0,0,0-.331,1.188,2.773,2.773,0,0,1,.315,2.711.879.879,0,0,0,.575,1.16.911.911,0,0,0,1.206-.583c.193-.54.289-1.114.427-1.673" transform="translate(-63.369 -40.3)" fill="#96685f"/>
        <path id="Trazado_1241134" data-name="Trazado 1241134" d="M173.309,13.933l6.492,3.683-7.712,13.351a2.518,2.518,0,0,1-.985-3.056,32.288,32.288,0,0,1,1.4-3.322c.192-.438.453-.849.609-1.3a.89.89,0,0,0-.485-1.2.825.825,0,0,0-1.18.372A41.114,41.114,0,0,0,169.3,27.3a4.521,4.521,0,0,0,1.559,5.216,2.55,2.55,0,0,1,.2.217l-2.52,4.362a7.236,7.236,0,0,1-2.527-4.121,6.625,6.625,0,0,1,.29-3.805,19.067,19.067,0,0,0,1.32-6.451,10.539,10.539,0,0,0-1.906-6.229c-.082-.119-.151-.248-.226-.372.611-1.051,1.236-2.094,1.826-3.156.346-.623.634-1.277.948-1.916a8.616,8.616,0,0,1,3.745,5.6,15.2,15.2,0,0,1,.234,1.977c.054.631.4,1.007.96.993a.891.891,0,0,0,.914-1.032c-.17-1.289-.436-2.565-.678-3.844a4.957,4.957,0,0,0-.244-.706l.105-.093" transform="translate(-121.166 -8.083)" fill="#96685f"/>
        <path id="Trazado_1241135" data-name="Trazado 1241135" d="M115.634,122.178a8.249,8.249,0,0,1-3.7-2.527,14.329,14.329,0,0,1-2.767-6.479,35.622,35.622,0,0,1-.724-9.445c.12-2.031.47-4.048.733-6.069a.52.52,0,0,1,.271-.348,12.731,12.731,0,0,0,6.186-5.232Zm-4.846-14.423a10.924,10.924,0,0,0,1.138,5.065.959.959,0,0,0,1.314.587.939.939,0,0,0,.409-1.371,9.286,9.286,0,0,1-.349-7.5.973.973,0,0,0-.52-1.388c-.545-.19-1.009.091-1.272.781a10.09,10.09,0,0,0-.719,3.829" transform="translate(-79.35 -67.412)" fill="#96685e"/>
        <path id="Trazado_1241136" data-name="Trazado 1241136" d="M86.53,7.1h1.743a12.126,12.126,0,0,0,2.118,10.186,12.187,12.187,0,0,0,9.2,4.723c.243,3.956-1.554,8.842-5.961,10.853.022-.337.023-.636.063-.929A13.179,13.179,0,0,0,90.163,20.7a47.02,47.02,0,0,0-3.643-3.223q0-5.191.01-10.381" transform="translate(-63.343 -5.197)" fill="#96675e"/>
        <path id="Trazado_1241137" data-name="Trazado 1241137" d="M108.778,20a10.028,10.028,0,0,1-9.6-8.205,10.938,10.938,0,0,1,.143-4.342.663.663,0,0,1,.454-.419c2.983-.025,5.966-.018,9-.018Zm-7.76-8.846c.073.473.1.871.2,1.251a3.906,3.906,0,0,0,5.295,2.7,1.294,1.294,0,0,0,.648-.867,1.1,1.1,0,0,0-.494-.827,1.306,1.306,0,0,0-.885-.028,2.073,2.073,0,0,1-2.794-1.845,3.943,3.943,0,0,1,.152-1.227.984.984,0,0,0-.616-1.256.935.935,0,0,0-1.2.711c-.145.473-.215.968-.305,1.391" transform="translate(-72.504 -5.132)" fill="#96685f"/>
        <path id="Trazado_1241138" data-name="Trazado 1241138" d="M147.211,48.219a4.921,4.921,0,0,0,2.565-3.481,2.8,2.8,0,0,0,.05-.617.934.934,0,0,0-.892-.936,1,1,0,0,0-.991.838c-.163.564-.421,1.1-.637,1.649a3.658,3.658,0,0,1,.157-2.482c1.16-2.043,2.352-4.068,3.531-6.1a8.005,8.005,0,0,1,1.282,5.284c-.423,4.807-2.564,8.976-4.966,13.037a.379.379,0,0,1-.094.079q0-3.636,0-7.272" transform="translate(-107.745 -27.154)" fill="#96675e"/>
        <path id="Trazado_1241139" data-name="Trazado 1241139" d="M146.722,103.174l3.88-6.02a9.848,9.848,0,0,0,3.214,4.69l-3.942,6.821a4.989,4.989,0,0,0-2.988-.878c0-1.328,0-2.657-.013-3.985a2.833,2.833,0,0,0-.151-.627" transform="translate(-107.419 -71.129)" fill="#96685f"/>
        <path id="Trazado_1241140" data-name="Trazado 1241140" d="M86.672,176.681a4.782,4.782,0,0,1,1.366,3.426c.162,1.5.171,3.031.433,4.516a10.926,10.926,0,0,0,2.949,5.593,3.172,3.172,0,0,1-.588.115c-1.106.012-2.211.008-3.316,0-.815,0-.975-.164-.976-.994q0-6.006.005-12.013a3.387,3.387,0,0,1,.126-.647" transform="translate(-63.358 -129.352)" fill="#96675e"/>
        <path id="Trazado_1241141" data-name="Trazado 1241141" d="M83.348,174.886a3.388,3.388,0,0,0-.126.647q-.012,6.006-.005,12.013c0,.83.16.992.976.994,1.106,0,2.211.007,3.316,0a3.166,3.166,0,0,0,.588-.115l1.557,1.334H82V174.229l1.349.657" transform="translate(-60.033 -127.557)" fill="#89564c"/>
        <path id="Trazado_1241142" data-name="Trazado 1241142" d="M147.7,33.937c-1.179,2.032-2.372,4.057-3.531,6.1a3.656,3.656,0,0,0-.157,2.482l-1.178,1-.166-.137c0-1.053,0-2.107.005-3.16a.645.645,0,0,1,.114-.285c1.352-2.338,2.706-4.675,4.14-7.152l.773,1.154" transform="translate(-104.449 -24.001)" fill="#87554c"/>
        <path id="Trazado_1241143" data-name="Trazado 1241143" d="M83.02,7.1q0,5.19-.01,10.381A1.826,1.826,0,0,1,81.73,15.4c.1-2.514.033-5.035.033-7.553V7.1Z" transform="translate(-59.833 -5.197)" fill="#89564c"/>
        <path id="Trazado_1241144" data-name="Trazado 1241144" d="M143.858,78.634q0,3.636,0,7.272l-1.117,1.771-.145-.032v-.58c0-2.41.016-4.821-.012-7.231-.006-.545.067-.915.691-.983a2.471,2.471,0,0,0,.579-.216" transform="translate(-104.392 -57.57)" fill="#88564c"/>
        <path id="Trazado_1241145" data-name="Trazado 1241145" d="M166.348,9.391c-.314.64-.6,1.294-.948,1.916-.59,1.062-1.215,2.105-1.826,3.156-.891-.921-.89-.92-.257-2.014.7-1.2,1.389-2.41,2.111-3.662l.921.6" transform="translate(-119.241 -6.433)" fill="#87554c"/>
        <path id="Trazado_1241146" data-name="Trazado 1241146" d="M143.892,148.082l-1.144,2.106-.117-.029c0-1.814-.014-3.627.023-5.44,0-.173.308-.386.516-.5a2.775,2.775,0,0,1,.715-.164l.006,4.024" transform="translate(-104.422 -105.468)" fill="#88554c"/>
        <path id="Trazado_1241147" data-name="Trazado 1241147" d="M143.642,119.627a2.833,2.833,0,0,1,.151.627c.016,1.328.011,2.657.013,3.985l-1.253.177a23.2,23.2,0,0,1,.049-3.362c.077-.516.677-.955,1.04-1.429" transform="translate(-104.338 -87.582)" fill="#88554c"/>
        <path id="Trazado_1241148" data-name="Trazado 1241148" d="M147.33,148.055l-.006-4.024a2.578,2.578,0,0,1,2.032.648l-2.027,3.376" transform="translate(-107.859 -105.441)" fill="#94665d"/>
        <path id="Trazado_1241149" data-name="Trazado 1241149" d="M118.29,227.794a2.928,2.928,0,0,1,.629-.147c1.327-.015,2.653-.01,3.98-.012v1.247a8.227,8.227,0,0,1-4.609-1.089" transform="translate(-86.603 -166.657)" fill="#87564d"/>
        <path id="Trazado_1241150" data-name="Trazado 1241150" d="M194.2,21.806l-.021-.139.125.046-.1.093" transform="translate(-142.167 -15.863)" fill="#96685f"/>
        <path id="Trazado_1241151" data-name="Trazado 1241151" d="M17.437,66.194A7.418,7.418,0,0,0,13.6,59.765a16.109,16.109,0,0,0-2.194-.848q0-6.148-.008-12.3a4.218,4.218,0,0,0-.119-.71,9.727,9.727,0,0,1,5.068-5.4c-.122,1.13-.264,2.194-.341,3.263a14.5,14.5,0,0,0,.017,1.992.892.892,0,0,0,.926.894A.947.947,0,0,0,17.9,45.7c.019-.5-.059-1.007,0-1.5.25-2,.5-4,.821-5.99a38.385,38.385,0,0,0,.323-11.323,45.9,45.9,0,0,0-1.085-5.813,11.6,11.6,0,0,0-6.55-8.121q0-2.916,0-5.832a9.175,9.175,0,0,1,8.118,7.514c.247,1.472.242,2.984.4,4.474a6.737,6.737,0,0,0,1.81,4.285,4.353,4.353,0,0,0,2.338,1.238c.292.052.482.134.479.507-.018,2.275-.011,4.55-.014,6.824a.7.7,0,0,1-.043.171,1.578,1.578,0,0,1-1.768-1.793,6.063,6.063,0,0,1,.147-.606.963.963,0,0,0-.631-1.2.975.975,0,0,0-1.19.654,3.639,3.639,0,0,0,2.484,4.819c.3.07.614.109.964.17V55.475c-.333-.215-.645-.39-.927-.6a15,15,0,0,1-4.586-5.295.933.933,0,0,0-1.327-.541.958.958,0,0,0-.363,1.4A15.869,15.869,0,0,0,23.225,56.9,2.509,2.509,0,0,1,24.577,59.5c-.115,2.227-.048,4.464-.057,6.7l-7.083,0m3.607-4.472.034,0c-.033-.331-.044-.666-.1-.992a4.98,4.98,0,0,0-2.827-3.671A4.985,4.985,0,0,1,15.28,52.5a.938.938,0,1,0-1.87.083,7.356,7.356,0,0,0,.875,3.412,7.1,7.1,0,0,0,3.051,2.782,3.2,3.2,0,0,1,1.793,2.409c.055.389.024.791.04,1.186a.922.922,0,0,0,.876.948.943.943,0,0,0,1-.907c.021-.227,0-.459,0-.688M19.661,43.7a9.125,9.125,0,0,0,.864,4.438c.351.663.816.879,1.348.628.554-.261.677-.794.34-1.485a6.092,6.092,0,0,1-.58-3.575c.125-.9.335-1.791.513-2.684a.972.972,0,0,0-.636-1.245.921.921,0,0,0-1.194.713c-.291,1.269-.523,2.552-.655,3.21" transform="translate(-8.259 -5.213)" fill="#96685e"/>
        <path id="Trazado_1241152" data-name="Trazado 1241152" d="M11.847,37.317a7.942,7.942,0,0,1,3.34,3.356,18.488,18.488,0,0,1,2,6.33,35.624,35.624,0,0,1,.493,7.779c-.1,1.7-.324,3.395-.526,5.088a.864.864,0,0,1-.382.621,13.066,13.066,0,0,0-4.947,3.4,3.17,3.17,0,0,1-.123-.583c-.017-.644-.009-1.288-.01-1.933,2.482-1.809,3.4-4.41,3.766-7.321.574-4.553-.845-8.542-3.35-12.243-.151-.223-.287-.456-.429-.685.006-1.058,0-2.117.025-3.175a3.145,3.145,0,0,1,.143-.636" transform="translate(-8.55 -27.321)" fill="#95675e"/>
        <path id="Trazado_1241153" data-name="Trazado 1241153" d="M31.883,7.1h7.7v15.64a2.421,2.421,0,0,1-1.692-1A5.65,5.65,0,0,1,36.877,18.7c-.113-1.348-.09-2.718-.325-4.044-.586-3.3-1.784-5.167-4.669-7.555" transform="translate(-23.342 -5.195)" fill="#96685e"/>
        <path id="Trazado_1241154" data-name="Trazado 1241154" d="M11.874,79.366a2.5,2.5,0,0,1-.114-.526q-.006-6.6,0-13.192a12.5,12.5,0,0,1,1.673,4.269,13.361,13.361,0,0,1-.564,7.737,11.31,11.31,0,0,1-1,1.713" transform="translate(-8.609 -48.062)" fill="#95675e"/>
        <path id="Trazado_1241155" data-name="Trazado 1241155" d="M11.746,208.058a5.323,5.323,0,0,1,4.01,4.375c.035.288.054.579.08.868-1.016,0-2.032.009-3.047,0-.816,0-1.042-.228-1.043-1.019q0-2.114,0-4.229" transform="translate(-8.599 -152.324)" fill="#96675e"/>
        <path id="Trazado_1241156" data-name="Trazado 1241156" d="M8.158,151.93a4.277,4.277,0,0,1,.119.71q.012,6.148.008,12.3l-1.257-.142v-.6c0-2.314-.038-4.629.013-6.942a12.316,12.316,0,0,1,1.117-5.318" transform="translate(-5.136 -111.231)" fill="#88554c"/>
        <path id="Trazado_1241157" data-name="Trazado 1241157" d="M8.436,207.263q0,2.114,0,4.229c0,.792.226,1.016,1.043,1.019,1.016,0,2.032,0,3.047,0-.019.391-.038.781-.058,1.214H7.224v-6.749l1.212.291" transform="translate(-5.289 -151.529)" fill="#88564c"/>
        <path id="Trazado_1241158" data-name="Trazado 1241158" d="M34.262,227.639l7.082,0v1.215H34.262Z" transform="translate(-25.084 -166.658)" fill="#88564d"/>
        <path id="Trazado_1241159" data-name="Trazado 1241159" d="M8.324,7.119v5.832c-1.258-.424-1.258-.424-1.258-1.707V7.119Z" transform="translate(-5.172 -5.212)" fill="#88564c"/>
        <path id="Trazado_1241160" data-name="Trazado 1241160" d="M8.389,35.411a3.145,3.145,0,0,0-.143.636c-.02,1.058-.018,2.116-.025,3.175-1.545-1.151-1.277-2.784-1.194-4.508l1.362.7" transform="translate(-5.093 -25.414)" fill="#88554c"/>
        <path id="Trazado_1241161" data-name="Trazado 1241161" d="M8.311,127.128c0,.644-.007,1.289.01,1.933a3.192,3.192,0,0,0,.123.583l-1.382,1.893c0-1.252-.011-2.382.014-3.512,0-.137.169-.31.3-.4.295-.19.619-.335.93-.5" transform="translate(-5.169 -93.073)" fill="#87554c"/>
        <path id="Trazado_1241162" data-name="Trazado 1241162" d="M90.908,83.3c-.138.559-.235,1.133-.427,1.673a.911.911,0,0,1-1.206.583A.879.879,0,0,1,88.7,84.4a2.773,2.773,0,0,0-.315-2.711.824.824,0,0,1,.331-1.188.87.87,0,0,1,1.227.2,4.131,4.131,0,0,1,.964,2.607" transform="translate(-64.606 -58.81)" fill="#0b0808"/>
        <path id="Trazado_1241163" data-name="Trazado 1241163" d="M117.354,137.845a10.091,10.091,0,0,1,.719-3.828c.263-.689.727-.971,1.272-.781a.973.973,0,0,1,.52,1.388,9.286,9.286,0,0,0,.349,7.5.939.939,0,0,1-.409,1.371.959.959,0,0,1-1.314-.587,10.924,10.924,0,0,1-1.138-5.065" transform="translate(-85.916 -97.503)" fill="#0a0808"/>
        <path id="Trazado_1241164" data-name="Trazado 1241164" d="M106.446,16.594c.09-.423.16-.918.305-1.391a.935.935,0,0,1,1.2-.711.984.984,0,0,1,.616,1.256,3.944,3.944,0,0,0-.152,1.227,2.073,2.073,0,0,0,2.794,1.845,1.306,1.306,0,0,1,.885.028,1.1,1.1,0,0,1,.494.827,1.294,1.294,0,0,1-.648.867,3.906,3.906,0,0,1-5.295-2.7c-.1-.38-.125-.778-.2-1.251" transform="translate(-77.932 -10.577)" fill="#0b0808"/>
        <path id="Trazado_1241165" data-name="Trazado 1241165" d="M26.861,183.139c0,.23.017.46,0,.688a.943.943,0,0,1-1,.907.922.922,0,0,1-.876-.948c-.016-.4.014-.8-.04-1.186a3.2,3.2,0,0,0-1.793-2.409,7.1,7.1,0,0,1-3.051-2.782A7.352,7.352,0,0,1,19.227,174a.938.938,0,1,1,1.87-.084,4.984,4.984,0,0,0,2.869,4.561,4.98,4.98,0,0,1,2.827,3.671c.059.326.069.661.1.992l-.034,0" transform="translate(-14.076 -126.63)" fill="#0a0808"/>
        <path id="Trazado_1241166" data-name="Trazado 1241166" d="M42.563,132.846c.132-.658.364-1.941.655-3.21a.921.921,0,0,1,1.194-.713.972.972,0,0,1,.636,1.245c-.178.893-.388,1.783-.513,2.684a6.092,6.092,0,0,0,.58,3.575c.337.691.214,1.223-.34,1.485-.532.251-1,.035-1.348-.628a9.126,9.126,0,0,1-.864-4.438" transform="translate(-31.161 -94.359)" fill="#0b0808"/>
      </g>
    </g>
  </g>
</svg>
